SplineFontDB: 3.2
FontName: Inconsolata-ExtraCondensedBold
FullName: Inconsolata Extra Condensed Bold
FamilyName: Inconsolata Extra Condensed Bold
Weight: Bold
Copyright: Copyright 2006 The Inconsolata Project Authors (https://github.com/cyrealtype/Inconsolata)
Version: 3.000; ttfautohint (v1.8.3)
ItalicAngle: 0
UnderlinePosition: -297
UnderlineWidth: 102
Ascent: 1802
Descent: 246
InvalidEm: 0
sfntRevision: 0x00030000
LayerCount: 2
Layer: 0 1 "Back" 1
Layer: 1 1 "Fore" 0
XUID: [1021 702 422526546 19458]
StyleMap: 0x0040
FSType: 0
OS2Version: 4
OS2_WeightWidthSlopeOnly: 0
OS2_UseTypoMetrics: 1
CreationTime: 1576097233
ModificationTime: 1732392374
PfmFamily: 81
TTFWeight: 700
TTFWidth: 2
LineGap: 0
VLineGap: 0
Panose: 0 0 0 0 0 0 0 0 0 0
OS2TypoAscent: 1759
OS2TypoAOffset: 0
OS2TypoDescent: -389
OS2TypoDOffset: 0
OS2TypoLinegap: 0
OS2WinAscent: 2056
OS2WinAOffset: 0
OS2WinDescent: 930
OS2WinDOffset: 0
HheadAscent: 1759
HheadAOffset: 0
HheadDescent: -389
HheadDOffset: 0
OS2SubXSize: 1331
OS2SubYSize: 1229
OS2SubXOff: 0
OS2SubYOff: 154
OS2SupXSize: 1331
OS2SupYSize: 1229
OS2SupXOff: 0
OS2SupYOff: 717
OS2StrikeYSize: 102
OS2StrikeYPos: 571
OS2CapHeight: 1276
OS2XHeight: 952
OS2Vendor: 'CYRE'
OS2CodePages: 60000193.cdd40000
OS2UnicodeRanges: a00000ff.0000f9eb.00000020.00000000
Lookup: 1 0 0 "'aalt' Access All Alternates in Latin lookup 0" { "'aalt' Access All Alternates in Latin lookup 0 subtable"  } ['aalt' ('DFLT' <'dflt' > 'latn' <'AZE ' 'CAT ' 'CRT ' 'KAZ ' 'MOL ' 'ROM ' 'TAT ' 'TRK ' 'dflt' > ) ]
Lookup: 3 0 0 "'aalt' Access All Alternates in Latin lookup 1" { "'aalt' Access All Alternates in Latin lookup 1 subtable"  } ['aalt' ('DFLT' <'dflt' > 'latn' <'AZE ' 'CAT ' 'CRT ' 'KAZ ' 'MOL ' 'ROM ' 'TAT ' 'TRK ' 'dflt' > ) ]

StartChar: A
Encoding: 65 65 1
Width: 768
VWidth: 2430
GlyphClass: 2
Flags: HW
AnchorPoint: "Anchor-3" 575 0 basechar 0
AnchorPoint: "Anchor-2" 385 0 basechar 0
AnchorPoint: "Anchor-0" 385 1514 basechar 0
LayerCount: 2
Fore
SplineSet
385 997 m 1,0,-1
 306 538 l 1,1,-1
 462 538 l 1,2,-1
 385 997 l 1,0,-1
553 0 m 1,3,-1
 494 362 l 1,4,-1
 277 362 l 1,5,-1
 214 0 l 1,6,-1
 17 0 l 1,7,-1
 330 1533 l 1,8,-1
 441 1533 l 1,9,-1
 753 0 l 1,10,-1
 553 0 l 1,3,-1
EndSplineSet
Substitution2: "Single Substitution lookup 29 subtable" ordfeminine
Substitution2: "'aalt' Access All Alternates in Latin lookup 0 subtable" ordfeminine
EndChar

StartChar: AE
Encoding: 198 198 26
Width: 768
VWidth: 2430
GlyphClass: 1
Flags: HW
LayerCount: 2
Fore
SplineSet
265 589 m 1,0,-1
 357 589 l 1,1,-1
 373 1242 l 1,2,-1
 265 589 l 1,0,-1
-3 0 m 1,3,-1
 287 1516 l 1,4,-1
 733 1516 l 1,5,-1
 733 1312 l 1,6,-1
 525 1312 l 1,7,-1
 525 892 l 1,8,-1
 694 892 l 1,9,-1
 694 686 l 1,10,-1
 525 686 l 1,11,-1
 525 204 l 1,12,-1
 731 204 l 1,13,-1
 729 0 l 1,14,-1
 355 0 l 1,15,-1
 355 389 l 1,16,-1
 238 389 l 1,17,-1
 167 0 l 1,18,-1
 -3 0 l 1,3,-1
EndSplineSet
EndChar

StartChar: B
Encoding: 66 66 28
Width: 768
VWidth: 2430
GlyphClass: 2
Flags: HW
AnchorPoint: "Anchor-2" 425 0 basechar 0
AnchorPoint: "Anchor-0" 425 1514 basechar 0
LayerCount: 2
Fore
SplineSet
276 206 m 1,0,-1
 408 206 l 2,1,2
 489 206 489 206 534.5 261 c 128,-1,3
 580 316 580 316 580 440 c 0,4,5
 580 563 580 563 533 635 c 128,-1,6
 486 707 486 707 379 707 c 2,7,-1
 276 707 l 1,8,-1
 276 206 l 1,0,-1
276 911 m 1,9,-1
 374 911 l 2,10,11
 474 911 474 911 511.5 965.5 c 128,-1,12
 549 1020 549 1020 549 1120 c 0,13,14
 549 1205 549 1205 511 1257.5 c 128,-1,15
 473 1310 473 1310 392 1310 c 2,16,-1
 276 1310 l 1,17,-1
 276 911 l 1,9,-1
65 0 m 1,18,-1
 65 1514 l 1,19,-1
 387 1514 l 2,20,21
 554 1514 554 1514 656 1425 c 128,-1,22
 758 1336 758 1336 758 1143 c 0,23,24
 758 874 758 874 605 809 c 1,25,26
 688 767 688 767 742.5 670 c 128,-1,27
 797 573 797 573 797 430 c 0,28,29
 797 221 797 221 695 110.5 c 128,-1,30
 593 0 593 0 384 0 c 2,31,-1
 65 0 l 1,18,-1
EndSplineSet
EndChar

StartChar: C
Encoding: 67 67 29
Width: 768
VWidth: 2430
GlyphClass: 2
Flags: HW
AnchorPoint: "Anchor-2" 456 0 basechar 0
AnchorPoint: "Anchor-0" 447 1514 basechar 0
LayerCount: 2
Fore
SplineSet
463 -24 m 0,0,1
 353 -24 353 -24 259.5 47.5 c 128,-1,2
 166 119 166 119 110 289 c 128,-1,3
 54 459 54 459 52 749 c 0,4,5
 52 987 52 987 91 1138.5 c 128,-1,6
 130 1290 130 1290 193 1376.5 c 128,-1,7
 256 1463 256 1463 331 1495.5 c 128,-1,8
 406 1528 406 1528 478 1528 c 0,9,10
 593 1528 593 1528 670 1467.5 c 128,-1,11
 747 1407 747 1407 788 1303 c 1,12,-1
 687 1140 l 1,13,-1
 675 1120 l 1,14,-1
 660 1132 l 1,15,16
 655 1149 655 1149 655.5 1173.5 c 128,-1,17
 656 1198 656 1198 637 1234 c 1,18,19
 604 1283 604 1283 565.5 1302.5 c 128,-1,20
 527 1322 527 1322 487 1322 c 0,21,22
 428 1322 428 1322 375.5 1266 c 128,-1,23
 323 1210 323 1210 290.5 1086 c 128,-1,24
 258 962 258 962 258 758 c 0,25,26
 258 459 258 459 324 321 c 128,-1,27
 390 183 390 183 485 183 c 0,28,29
 544 183 544 183 590.5 224 c 128,-1,30
 637 265 637 265 673 338 c 1,31,-1
 772 170 l 1,32,33
 716 68 716 68 642.5 22 c 128,-1,34
 569 -24 569 -24 463 -24 c 0,0,1
EndSplineSet
EndChar

StartChar: D
Encoding: 68 68 36
Width: 768
VWidth: 2430
GlyphClass: 2
Flags: HW
AnchorPoint: "Anchor-4" 423 758 basechar 0
AnchorPoint: "Anchor-2" 418 0 basechar 0
AnchorPoint: "Anchor-0" 372 1514 basechar 0
LayerCount: 2
Fore
SplineSet
281 199 m 1,0,-1
 334 199 l 2,1,2
 470 199 470 199 531.5 338.5 c 128,-1,3
 593 478 593 478 593 742 c 0,4,5
 593 1009 593 1009 541 1160.5 c 128,-1,6
 489 1312 489 1312 351 1312 c 2,7,-1
 281 1312 l 1,8,-1
 281 199 l 1,0,-1
67 -2 m 1,9,-1
 67 1514 l 1,10,-1
 341 1514 l 2,11,12
 479 1514 479 1514 561.5 1467.5 c 128,-1,13
 644 1421 644 1421 697 1319 c 0,14,15
 748 1219 748 1219 775.5 1084.5 c 128,-1,16
 803 950 803 950 803 749 c 0,17,18
 801 382 801 382 686 190 c 128,-1,19
 571 -2 571 -2 321 -2 c 2,20,-1
 67 -2 l 1,9,-1
EndSplineSet
EndChar

StartChar: Eth
Encoding: 208 208 37
Width: 768
VWidth: 2430
GlyphClass: 1
Flags: HW
LayerCount: 2
Fore
SplineSet
277 204 m 1,0,-1
 325 204 l 2,1,2
 456 204 456 204 513 336.5 c 128,-1,3
 570 469 570 469 570 742 c 0,4,5
 570 1022 570 1022 516 1162.5 c 128,-1,6
 462 1303 462 1303 333 1303 c 2,7,-1
 277 1303 l 1,8,-1
 277 899 l 1,9,-1
 406 899 l 1,10,-1
 406 702 l 1,11,-1
 277 702 l 1,12,-1
 277 204 l 1,0,-1
84 -2 m 1,13,-1
 84 702 l 1,14,-1
 28 702 l 1,15,-1
 28 899 l 1,16,-1
 84 899 l 1,17,-1
 84 1514 l 1,18,-1
 338 1514 l 2,19,20
 435 1514 435 1514 505.5 1473.5 c 128,-1,21
 576 1433 576 1433 622.5 1371.5 c 128,-1,22
 669 1310 669 1310 696 1242 c 0,23,24
 726 1177 726 1177 745 1055 c 128,-1,25
 764 933 764 933 764 749 c 0,26,27
 764 346 764 346 653.5 172 c 128,-1,28
 543 -2 543 -2 320 -2 c 2,29,-1
 84 -2 l 1,13,-1
EndSplineSet
EndChar

StartChar: E
Encoding: 69 69 42
Width: 768
VWidth: 2430
GlyphClass: 2
Flags: HW
AnchorPoint: "Anchor-3" 726 19 basechar 0
AnchorPoint: "Anchor-2" 425 0 basechar 0
AnchorPoint: "Anchor-0" 447 1514 basechar 0
LayerCount: 2
Fore
SplineSet
85 0 m 1,0,-1
 85 1516 l 1,1,-1
 770 1516 l 1,2,-1
 770 1312 l 1,3,-1
 297 1312 l 1,4,-1
 297 892 l 1,5,-1
 682 892 l 1,6,-1
 682 688 l 1,7,-1
 297 688 l 1,8,-1
 297 204 l 1,9,-1
 768 204 l 1,10,-1
 768 0 l 1,11,-1
 85 0 l 1,0,-1
EndSplineSet
EndChar

StartChar: uni01B8
Encoding: 440 440 65
Width: 768
VWidth: 2430
GlyphClass: 1
Flags: HW
LayerCount: 2
Fore
SplineSet
454 -34 m 0,0,1
 287 -34 287 -34 187.5 90 c 128,-1,2
 88 214 88 214 88 418 c 0,3,4
 88 615 88 615 167 744.5 c 128,-1,5
 246 874 246 874 374 916 c 1,6,-1
 123 1322 l 1,7,-1
 123 1514 l 1,8,-1
 695 1514 l 1,9,-1
 695 1305 l 1,10,-1
 360 1305 l 1,11,-1
 571 935 l 1,12,-1
 571 737 l 1,13,14
 554.368421053 737.947368421 554.368421053 737.947368421 538.817174515 737.947368421 c 0,15,16
 406.631578947 737.947368421 406.631578947 737.947368421 352.5 669.5 c 0,17,18
 292 593 292 593 292 433 c 0,19,20
 292 292 292 292 345.5 233 c 128,-1,21
 399 174 399 174 476 174 c 0,22,23
 576 174 576 174 635 234 c 1,24,25
 654 266 654 266 658.5 281.5 c 128,-1,26
 663 297 663 297 659 313 c 1,27,-1
 668 327 l 1,28,-1
 688 316 l 1,29,-1
 756 119 l 1,30,31
 695 36 695 36 621 1 c 128,-1,32
 547 -34 547 -34 454 -34 c 0,0,1
EndSplineSet
EndChar

StartChar: F
Encoding: 70 70 66
Width: 768
VWidth: 2430
GlyphClass: 2
Flags: HW
AnchorPoint: "Anchor-2" 425 0 basechar 0
AnchorPoint: "Anchor-0" 425 1514 basechar 0
LayerCount: 2
Fore
SplineSet
112 0 m 1,0,-1
 112 1516 l 1,1,-1
 770 1516 l 1,2,-1
 770 1312 l 1,3,-1
 316 1312 l 1,4,-1
 316 918 l 1,5,-1
 680 918 l 1,6,-1
 680 714 l 1,7,-1
 316 714 l 1,8,-1
 316 0 l 1,9,-1
 112 0 l 1,0,-1
EndSplineSet
EndChar

StartChar: G
Encoding: 71 71 67
Width: 768
VWidth: 2430
GlyphClass: 2
Flags: HW
AnchorPoint: "Anchor-2" 443 0 basechar 0
AnchorPoint: "Anchor-0" 452 1514 basechar 0
LayerCount: 2
Fore
SplineSet
459 -24 m 0,0,1
 261 -24 261 -24 153 172.5 c 128,-1,2
 45 369 45 369 45 744 c 0,3,4
 44.9024390244 755.853658537 44.9024390244 755.853658537 44.9024390244 767.496728138 c 0,5,6
 44.9024390244 994.536585366 44.9024390244 994.536585366 82 1141.5 c 0,7,8
 121 1296 121 1296 184.5 1382 c 128,-1,9
 248 1468 248 1468 321.5 1500.5 c 128,-1,10
 395 1533 395 1533 462 1533 c 0,11,12
 571 1533 571 1533 654.5 1475 c 128,-1,13
 738 1417 738 1417 779 1317 c 1,14,-1
 674 1164 l 1,15,-1
 661 1145 l 1,16,-1
 645 1157 l 1,17,18
 643 1176 643 1176 640.5 1198 c 128,-1,19
 638 1220 638 1220 616 1254 c 1,20,21
 587 1288 587 1288 554.5 1307.5 c 128,-1,22
 522 1327 522 1327 468 1327 c 0,23,24
 409 1327 409 1327 360.5 1277 c 128,-1,25
 312 1227 312 1227 283.5 1106.5 c 128,-1,26
 255 986 255 986 255 775 c 0,27,28
 255 469 255 469 310.5 323.5 c 128,-1,29
 366 178 366 178 457 178 c 0,30,31
 538 178 538 178 593 236 c 1,32,-1
 593 564 l 1,33,-1
 443 564 l 1,34,-1
 443 768 l 1,35,-1
 781 768 l 1,36,-1
 781 126 l 1,37,38
 708 43 708 43 625.5 9.5 c 128,-1,39
 543 -24 543 -24 459 -24 c 0,0,1
EndSplineSet
EndChar

StartChar: H
Encoding: 72 72 74
Width: 768
VWidth: 2430
GlyphClass: 2
Flags: HW
AnchorPoint: "Anchor-4" 608 758 basechar 0
AnchorPoint: "Anchor-2" 608 0 basechar 0
AnchorPoint: "Anchor-0" 498 1514 basechar 0
LayerCount: 2
Fore
SplineSet
65 1514 m 1,0,-1
 297 1514 l 1,1,-1
 297 1495 l 1,2,3
 288 1481 288 1481 285 1463.5 c 128,-1,4
 282 1446 282 1446 282 1405 c 2,5,-1
 282 895 l 1,6,-1
 556 895 l 1,7,-1
 556 1514 l 1,8,-1
 790 1514 l 1,9,-1
 790 1495 l 1,10,11
 781 1481 781 1481 778 1463.5 c 128,-1,12
 775 1446 775 1446 775 1405 c 2,13,-1
 775 0 l 1,14,-1
 556 0 l 1,15,-1
 556 691 l 1,16,-1
 282 691 l 1,17,-1
 282 0 l 1,18,-1
 65 0 l 1,19,-1
 65 1514 l 1,0,-1
EndSplineSet
EndChar

StartChar: Hbar
Encoding: 294 294 75
Width: 768
VWidth: 2430
GlyphClass: 2
Flags: HW
AnchorPoint: "Anchor-4" 535 758 basechar 0
AnchorPoint: "Anchor-2" 535 0 basechar 0
AnchorPoint: "Anchor-0" 438 1514 basechar 0
LayerCount: 2
Fore
SplineSet
246 895 m 1,0,-1
 490 895 l 1,1,-1
 490 1181 l 1,2,-1
 246 1181 l 1,3,-1
 246 895 l 1,0,-1
3 1181 m 1,4,-1
 3 1380 l 1,5,-1
 53 1380 l 1,6,-1
 53 1514 l 1,7,-1
 259 1514 l 1,8,-1
 259 1495 l 1,9,10
 251 1481 251 1481 248.5 1463.5 c 128,-1,11
 246 1446 246 1446 246 1405 c 2,12,-1
 246 1380 l 1,13,-1
 490 1380 l 1,14,-1
 490 1514 l 1,15,-1
 698 1514 l 1,16,-1
 698 1495 l 1,17,18
 690 1481 690 1481 687 1463.5 c 128,-1,19
 684 1446 684 1446 684 1405 c 2,20,-1
 684 1380 l 1,21,-1
 739 1380 l 1,22,-1
 739 1181 l 1,23,-1
 684 1181 l 1,24,-1
 684 0 l 1,25,-1
 490 0 l 1,26,-1
 490 691 l 1,27,-1
 246 691 l 1,28,-1
 246 0 l 1,29,-1
 53 0 l 1,30,-1
 53 1181 l 1,31,-1
 3 1181 l 1,4,-1
EndSplineSet
EndChar

StartChar: I
Encoding: 73 73 79
Width: 768
VWidth: 2430
GlyphClass: 2
Flags: HW
AnchorPoint: "Anchor-3" 603 0 basechar 0
AnchorPoint: "Anchor-2" 427 0 basechar 0
AnchorPoint: "Anchor-0" 413 1514 basechar 0
LayerCount: 2
Fore
SplineSet
114 0 m 1,0,-1
 114 204 l 1,1,-1
 311 204 l 1,2,-1
 311 1308 l 1,3,-1
 121 1308 l 1,4,-1
 121 1514 l 1,5,-1
 714 1514 l 1,6,-1
 714 1308 l 1,7,-1
 517 1308 l 1,8,-1
 517 202 l 1,9,-1
 724 202 l 1,10,-1
 724 0 l 1,11,-1
 114 0 l 1,0,-1
EndSplineSet
EndChar

StartChar: J
Encoding: 74 74 94
Width: 768
VWidth: 2430
GlyphClass: 2
Flags: HW
AnchorPoint: "Anchor-2" 382 0 basechar 0
AnchorPoint: "Anchor-0" 538 1514 basechar 0
LayerCount: 2
Fore
SplineSet
320 -30 m 0,0,1
 242 -30 242 -30 171.5 4.5 c 128,-1,2
 101 39 101 39 53 112 c 1,3,-1
 135 318 l 1,4,-1
 145 341 l 1,5,-1
 161 333 l 1,6,7
 170 314 170 314 173.5 289.5 c 128,-1,8
 177 265 177 265 203 234 c 1,9,10
 249 190 249 190 306 190 c 0,11,12
 364 190 364 190 397 264 c 128,-1,13
 430 338 430 338 430 517 c 2,14,-1
 430 1310 l 1,15,-1
 234 1310 l 1,16,-1
 234 1514 l 1,17,-1
 789 1514 l 1,18,-1
 789 1310 l 1,19,-1
 642 1310 l 1,20,-1
 642 510 l 2,21,22
 642 311 642 311 600.5 191.5 c 128,-1,23
 559 72 559 72 485.5 20 c 0,24,25
 414.722222222 -30.0740740741 414.722222222 -30.0740740741 326.789437586 -30.0740740741 c 0,26,27
 323.407407407 -30.0740740741 323.407407407 -30.0740740741 320 -30 c 0,0,1
EndSplineSet
EndChar

StartChar: K
Encoding: 75 75 96
Width: 768
VWidth: 2430
GlyphClass: 1
Flags: HW
LayerCount: 2
Fore
SplineSet
321 656 m 1,0,-1
 266 559 l 1,1,-1
 269 0 l 1,2,-1
 63 0 l 1,3,-1
 63 1514 l 1,4,-1
 288 1514 l 1,5,-1
 288 1495 l 1,6,7
 277 1481 277 1481 273 1463.5 c 128,-1,8
 269 1446 269 1446 269 1405 c 2,9,-1
 269 918 l 1,10,-1
 564 1526 l 1,11,12
 595 1521 595 1521 640 1517.5 c 128,-1,13
 685 1514 685 1514 711 1514 c 2,14,-1
 778 1514 l 1,15,-1
 455 848 l 1,16,-1
 799 0 l 1,17,-1
 577 -9 l 1,18,-1
 321 656 l 1,0,-1
EndSplineSet
EndChar

StartChar: uni0198
Encoding: 408 408 98
Width: 768
VWidth: 2430
GlyphClass: 1
Flags: HW
LayerCount: 2
Fore
SplineSet
66 1514 m 1,0,-1
 301 1514 l 1,1,-1
 301 1495 l 1,2,3
 287 1481 287 1481 283.5 1463.5 c 128,-1,4
 280 1446 280 1446 280 1405 c 2,5,-1
 280 958 l 1,6,7
 369 1181 369 1181 439 1305 c 128,-1,8
 509 1429 509 1429 573.5 1477.5 c 128,-1,9
 638 1526 638 1526 709 1526 c 0,10,11
 732 1526 732 1526 756.5 1521 c 128,-1,12
 781 1516 781 1516 795 1507 c 1,13,-1
 795 1276 l 1,14,-1
 795 1252 l 1,15,-1
 781 1252 l 1,16,17
 772 1266 772 1266 761 1278 c 128,-1,18
 750 1290 750 1290 724 1298 c 0,19,20
 719 1298 719 1298 707 1298 c 0,21,22
 676 1298 676 1298 641.5 1263.5 c 128,-1,23
 607 1229 607 1229 555.5 1139.5 c 128,-1,24
 504 1050 504 1050 430 882 c 1,25,-1
 802 0 l 1,26,-1
 579 -12 l 1,27,-1
 320 619 l 1,28,29
 301 573 301 573 280 520 c 1,30,-1
 280 0 l 1,31,-1
 66 0 l 1,32,-1
 66 1514 l 1,0,-1
EndSplineSet
EndChar

StartChar: L
Encoding: 76 76 99
Width: 768
VWidth: 2430
GlyphClass: 2
Flags: HW
AnchorPoint: "Anchor-4" 195 758 basechar 0
AnchorPoint: "Anchor-2" 425 0 basechar 0
AnchorPoint: "Anchor-1" 325 1115 basechar 0
AnchorPoint: "Anchor-0" 369 1514 basechar 0
LayerCount: 2
Fore
SplineSet
93 1514 m 1,0,-1
 331 1514 l 1,1,-1
 331 1495 l 1,2,3
 317 1481 317 1481 313 1463.5 c 128,-1,4
 309 1446 309 1446 309 1405 c 2,5,-1
 309 209 l 1,6,-1
 775 209 l 1,7,-1
 775 0 l 1,8,-1
 93 0 l 1,9,-1
 93 1514 l 1,0,-1
EndSplineSet
EndChar

StartChar: uni01C7
Encoding: 455 455 100
Width: 768
VWidth: 2350
GlyphClass: 1
Flags: HW
LayerCount: 2
Fore
SplineSet
74 129 m 1,0,-1
 74 1514 l 1,1,-1
 282 1514 l 1,2,3
 282 1499 282 1499 279 1495 c 128,-1,4
 276 1491 276 1491 271.5 1481.5 c 128,-1,5
 267 1472 267 1472 267 1438 c 2,6,-1
 267 314 l 1,7,-1
 437 314 l 1,8,-1
 437 129 l 1,9,-1
 74 129 l 1,0,-1
449 -246 m 0,10,11
 307 -246 307 -246 214 -133 c 1,12,-1
 320 30 l 1,13,14
 337 13 337 13 333 3.5 c 128,-1,15
 329 -6 329 -6 349 -28 c 0,16,17
 360 -41 360 -41 380 -54.5 c 128,-1,18
 400 -68 400 -68 433 -68 c 0,19,20
 484 -68 484 -68 510 3 c 128,-1,21
 536 74 536 74 536 267 c 2,22,-1
 536 1330 l 1,23,-1
 400 1330 l 1,24,-1
 400 1514 l 1,25,-1
 727 1514 l 1,26,-1
 727 256 l 2,27,28
 727.106666667 246.026666667 727.106666667 246.026666667 727.106666667 236.272355556 c 0,0,0
 727.106666667 63.1333333333 727.106666667 63.1333333333 693.5 -41 c 128,-1,29
 658 -151 658 -151 594.5 -198.5 c 128,-1,30
 531 -246 531 -246 449 -246 c 0,10,11
EndSplineSet
EndChar

StartChar: Lcaron
Encoding: 317 317 102
Width: 768
VWidth: 2430
GlyphClass: 2
Flags: HW
AnchorPoint: "Anchor-4" 195 758 basechar 0
AnchorPoint: "Anchor-2" 425 0 basechar 0
AnchorPoint: "Anchor-1" 325 1115 basechar 0
AnchorPoint: "Anchor-0" 369 1514 basechar 0
LayerCount: 2
Fore
SplineSet
93 1514 m 1,0,-1
 331 1514 l 1,1,-1
 331 1495 l 1,2,3
 317 1481 317 1481 313 1463.5 c 128,-1,4
 309 1446 309 1446 309 1405 c 2,5,-1
 309 209 l 1,6,-1
 775 209 l 1,7,-1
 775 0 l 1,8,-1
 93 0 l 1,9,-1
 93 1514 l 1,0,-1
586 990 m 1,10,-1
 486 1067 l 1,11,12
 530 1118 530 1118 554 1167.5 c 128,-1,13
 578 1217 578 1217 578 1257 c 0,14,15
 578 1284 578 1284 562.5 1306.5 c 128,-1,16
 547 1329 547 1329 530 1354.5 c 128,-1,17
 513 1380 513 1380 513 1419 c 0,18,19
 513 1477 513 1477 549.5 1508.5 c 128,-1,20
 586 1540 586 1540 629 1540 c 0,21,22
 682 1540 682 1540 717.5 1500.5 c 128,-1,23
 753 1461 753 1461 753 1382 c 0,24,25
 753 1196 753 1196 586 990 c 1,10,-1
EndSplineSet
EndChar

StartChar: uni01C8
Encoding: 456 456 106
Width: 768
VWidth: 2355
GlyphClass: 1
Flags: HW
LayerCount: 2
Fore
SplineSet
407 -246 m 0,0,1
 352 -246 352 -246 297.5 -217.5 c 128,-1,2
 243 -189 243 -189 205 -140 c 1,3,-1
 308 48 l 1,4,5
 321 33 321 33 317.5 13 c 128,-1,6
 314 -7 314 -7 352 -37 c 0,7,8
 374 -52 374 -52 407 -52 c 0,9,10
 458 -52 458 -52 491 2 c 128,-1,11
 524 56 524 56 524 187 c 2,12,-1
 524 992 l 1,13,-1
 367 992 l 1,14,-1
 367 1175 l 1,15,-1
 703 1175 l 1,16,-1
 703 196 l 2,17,18
 703 -40 703 -40 621.5 -143 c 128,-1,19
 540 -246 540 -246 407 -246 c 0,0,1
89 145 m 1,20,-1
 89 1523 l 1,21,-1
 289 1523 l 1,22,23
 289 1501 289 1501 284 1487.5 c 128,-1,24
 279 1474 279 1474 279 1445 c 2,25,-1
 279 335 l 1,26,-1
 433 335 l 1,27,-1
 431 145 l 1,28,-1
 89 145 l 1,20,-1
604 1359 m 0,29,30
 551 1359 551 1359 514 1395.5 c 128,-1,31
 477 1432 477 1432 477 1485 c 128,-1,32
 477 1538 477 1538 514 1574.5 c 128,-1,33
 551 1611 551 1611 604 1611 c 0,34,35
 655 1611 655 1611 692.5 1573.5 c 128,-1,36
 730 1536 730 1536 730 1485 c 0,37,38
 730 1432 730 1432 692.5 1395.5 c 128,-1,39
 655 1359 655 1359 604 1359 c 0,29,30
EndSplineSet
EndChar

StartChar: Lslash
Encoding: 321 321 108
Width: 768
VWidth: 2430
GlyphClass: 1
Flags: HW
LayerCount: 2
Fore
SplineSet
104 0 m 1,0,-1
 104 540 l 1,1,-1
 21 503 l 1,2,-1
 21 726 l 1,3,-1
 104 768 l 1,4,-1
 104 1514 l 1,5,-1
 327 1514 l 2,6,7
 334 1512 334 1512 334 1507 c 0,8,9
 334 1498 334 1498 324 1483 c 128,-1,10
 314 1468 314 1468 312 1431 c 2,11,-1
 312 867 l 1,12,-1
 533 974 l 2,13,14
 569 988 569 988 587 1006 c 1,15,-1
 587 761 l 1,16,-1
 314 635 l 1,17,-1
 314 209 l 1,18,-1
 757 209 l 1,19,-1
 757 0 l 1,20,-1
 104 0 l 1,0,-1
EndSplineSet
EndChar

StartChar: M
Encoding: 77 77 109
Width: 768
VWidth: 2430
GlyphClass: 2
Flags: HW
AnchorPoint: "Anchor-2" 419 0 basechar 0
AnchorPoint: "Anchor-0" 419 1514 basechar 0
LayerCount: 2
Fore
SplineSet
52 0 m 1,0,-1
 52 1514 l 1,1,-1
 227 1514 l 1,2,-1
 419 904 l 1,3,-1
 616 1516 l 1,4,-1
 788 1516 l 1,5,-1
 788 0 l 1,6,-1
 607 0 l 1,7,-1
 609 1037 l 1,8,-1
 450 538 l 1,9,-1
 379 538 l 1,10,-1
 229 1032 l 1,11,-1
 231 0 l 1,12,-1
 52 0 l 1,0,-1
EndSplineSet
EndChar

StartChar: N
Encoding: 78 78 111
Width: 768
VWidth: 2430
GlyphClass: 2
Flags: HW
AnchorPoint: "Anchor-2" 422 0 basechar 0
AnchorPoint: "Anchor-0" 422 1514 basechar 0
LayerCount: 2
Fore
SplineSet
62 1514 m 1,0,-1
 267 1514 l 1,1,-1
 598 580 l 1,2,-1
 591 1514 l 1,3,-1
 798 1514 l 1,4,-1
 798 1495 l 1,5,6
 784 1481 784 1481 782 1463.5 c 128,-1,7
 780 1446 780 1446 780 1405 c 2,8,-1
 780 0 l 1,9,-1
 601 0 l 1,10,-1
 253 999 l 1,11,-1
 253 0 l 1,12,-1
 62 0 l 1,13,-1
 62 1514 l 1,0,-1
EndSplineSet
EndChar

StartChar: Eng
Encoding: 330 330 117
Width: 768
VWidth: 2328
GlyphClass: 2
Flags: HW
AnchorPoint: "Anchor-2" 378 167 basechar 0
AnchorPoint: "Anchor-0" 382 1514 basechar 0
LayerCount: 2
Fore
SplineSet
541 1514 m 1,0,-1
 714 1514 l 1,1,2
 714 1495 714 1495 709.5 1481 c 128,-1,3
 705 1467 705 1467 705 1442 c 2,4,-1
 705 167 l 2,5,6
 705 -58 705 -58 631 -152 c 128,-1,7
 557 -246 557 -246 450 -246 c 0,8,9
 411 -246 411 -246 369.5 -229.5 c 128,-1,10
 328 -213 328 -213 287 -182 c 1,11,-1
 361 -2 l 1,12,13
 376 -6 376 -6 383 -20 c 128,-1,14
 390 -34 390 -34 401.5 -47 c 128,-1,15
 413 -60 413 -60 446 -60 c 0,16,17
 494 -60 494 -60 515 -0.5 c 128,-1,18
 536 59 536 59 536 197 c 1,19,-1
 227 1056 l 1,20,-1
 227 167 l 1,21,-1
 56 167 l 1,22,-1
 56 1514 l 1,23,-1
 225 1514 l 1,24,-1
 541 683 l 1,25,-1
 541 1514 l 1,0,-1
EndSplineSet
EndChar

StartChar: O
Encoding: 79 79 120
Width: 768
VWidth: 2430
GlyphClass: 2
Flags: HW
AnchorPoint: "Anchor-4" 399 758 basechar 0
AnchorPoint: "Anchor-3" 449 30 basechar 0
AnchorPoint: "Anchor-2" 401 0 basechar 0
AnchorPoint: "Anchor-1" 629 1414 basechar 0
AnchorPoint: "Anchor-0" 399 1516 basechar 0
LayerCount: 2
Fore
SplineSet
401 174 m 0,0,1
 453 174 453 174 491 227 c 128,-1,2
 529 280 529 280 548.5 406.5 c 128,-1,3
 568 533 568 533 568 753 c 0,4,5
 568 1064 568 1064 524.5 1195.5 c 128,-1,6
 481 1327 481 1327 401 1327 c 0,7,8
 319 1327 319 1327 276 1195.5 c 128,-1,9
 233 1064 233 1064 233 753 c 0,10,11
 233 532 233 532 252.5 406 c 128,-1,12
 272 280 272 280 309 227 c 128,-1,13
 346 174 346 174 401 174 c 0,0,1
401 -27 m 128,-1,15
 277 -27 277 -27 195.5 49.5 c 128,-1,16
 114 126 114 126 73 297.5 c 128,-1,17
 32 469 32 469 32 751 c 0,18,19
 32 1164 32 1164 124.5 1346 c 128,-1,20
 217 1528 217 1528 401 1528 c 0,21,22
 586 1528 586 1528 677 1346 c 128,-1,23
 768 1164 768 1164 768 751 c 0,24,25
 768 469 768 469 727 297.5 c 128,-1,26
 686 126 686 126 605.5 49.5 c 128,-1,14
 525 -27 525 -27 401 -27 c 128,-1,15
EndSplineSet
Substitution2: "Single Substitution lookup 29 subtable" ordmasculine
Substitution2: "'aalt' Access All Alternates in Latin lookup 0 subtable" ordmasculine
EndChar

StartChar: Oslash
Encoding: 216 216 148
Width: 768
VWidth: 2430
GlyphClass: 2
Flags: HW
AnchorPoint: "Anchor-4" 399 758 basechar 0
AnchorPoint: "Anchor-3" 449 30 basechar 0
AnchorPoint: "Anchor-2" 401 0 basechar 0
AnchorPoint: "Anchor-1" 629 1414 basechar 0
AnchorPoint: "Anchor-0" 399 1516 basechar 0
LayerCount: 2
Fore
SplineSet
401 174 m 0,0,1
 453 174 453 174 491 227 c 128,-1,2
 529 280 529 280 548.5 406.5 c 128,-1,3
 568 533 568 533 568 753 c 0,4,5
 568 936 568 936 555 1057 c 1,6,7
 556 1057 556 1057 290 262 c 1,8,9
 328 174 328 174 401 174 c 0,0,1
233 753 m 0,10,11
 233 595 233 595 242 486 c 1,12,-1
 500 1259 l 1,13,14
 461 1327 461 1327 401 1327 c 0,15,16
 319 1327 319 1327 276 1195.5 c 128,-1,17
 233 1064 233 1064 233 753 c 0,10,11
161 -116 m 1,18,-1
 57 -65 l 1,19,-1
 128 144 l 1,20,21
 80 237 80 237 56 387.5 c 128,-1,22
 32 538 32 538 32 751 c 0,23,24
 32 1164 32 1164 124.5 1346 c 128,-1,25
 217 1528 217 1528 401 1528 c 0,26,27
 501 1528 501 1528 572 1477 c 1,28,-1
 631 1658 l 1,29,-1
 737 1604 l 1,30,-1
 661 1378 l 1,31,32
 768 1193 768 1193 768 751 c 0,33,34
 768 469 768 469 727 297.5 c 128,-1,35
 686 126 686 126 605 49.5 c 128,-1,36
 524 -27 524 -27 401 -27 c 0,37,38
 287 -27 287 -27 212 34 c 1,39,-1
 161 -116 l 1,18,-1
EndSplineSet
EndChar

StartChar: OE
Encoding: 338 338 154
Width: 768
VWidth: 2430
GlyphClass: 1
Flags: HW
LayerCount: 2
Fore
SplineSet
291 190 m 128,-1,1
 345 190 345 190 357 338 c 1,2,-1
 357 1162 l 1,3,4
 344 1336 344 1336 281 1336 c 0,5,6
 254 1336 254 1336 234 1289 c 128,-1,7
 214 1242 214 1242 201.5 1117 c 128,-1,8
 190.724137931 1009.24137931 190.724137931 1009.24137931 190.724137931 822.707491082 c 0,0,0
 190.724137931 792.862068966 190.724137931 792.862068966 191 761 c 0,9,10
 191 464 191 464 214 327 c 128,-1,0
 237 190 237 190 291 190 c 128,-1,1
260 -17 m 0,11,12
 186 -17 186 -17 129 54.5 c 128,-1,13
 72 126 72 126 40.5 295 c 128,-1,14
 9 464 9 464 9 758 c 0,15,16
 9 1178 9 1178 75 1356.5 c 128,-1,17
 141 1535 141 1535 262 1535 c 0,18,19
 323 1535 323 1535 364 1465 c 1,20,-1
 364 1516 l 1,21,-1
 745 1516 l 1,22,-1
 745 1312 l 1,23,-1
 538 1312 l 1,24,-1
 538 892 l 1,25,-1
 715 892 l 1,26,-1
 715 686 l 1,27,-1
 538 686 l 1,28,-1
 538 202 l 1,29,-1
 742 202 l 1,30,-1
 742 0 l 1,31,-1
 362 0 l 1,32,-1
 362 49 l 1,33,34
 345 15 345 15 317 -1 c 128,-1,35
 289 -17 289 -17 260 -17 c 0,11,12
EndSplineSet
EndChar

StartChar: P
Encoding: 80 80 155
Width: 768
VWidth: 2430
GlyphClass: 2
Flags: HW
AnchorPoint: "Anchor-2" 262 0 basechar 0
AnchorPoint: "Anchor-0" 425 1514 basechar 0
LayerCount: 2
Fore
SplineSet
297 839 m 1,0,-1
 425 839 l 2,1,2
 497 839 497 839 540.5 900.5 c 128,-1,3
 584 962 584 962 584 1069 c 0,4,5
 584 1185 584 1185 541 1245 c 128,-1,6
 498 1305 498 1305 425 1305 c 2,7,-1
 297 1305 l 1,8,-1
 297 839 l 1,0,-1
78 0 m 1,9,-1
 78 1514 l 1,10,-1
 433 1514 l 2,11,12
 618 1514 618 1514 709 1398.5 c 128,-1,13
 800 1283 800 1283 800 1071 c 0,14,15
 800 874 800 874 705 752.5 c 128,-1,16
 610 631 610 631 440 631 c 2,17,-1
 297 631 l 1,18,-1
 297 0 l 1,19,-1
 78 0 l 1,9,-1
EndSplineSet
EndChar

StartChar: Thorn
Encoding: 222 222 156
Width: 768
VWidth: 2430
GlyphClass: 1
Flags: HW
LayerCount: 2
Fore
SplineSet
297 561 m 1,0,-1
 435 561 l 2,1,2
 523 561 523 561 560.5 627 c 128,-1,3
 598 693 598 693 598 795 c 128,-1,4
 598 897 598 897 557.5 967 c 128,-1,5
 517 1037 517 1037 430 1037 c 2,6,-1
 297 1037 l 1,7,-1
 297 561 l 1,0,-1
81 0 m 1,8,-1
 81 1514 l 1,9,-1
 311 1514 l 2,10,11
 313 1512 313 1512 313 1505 c 128,-1,12
 313 1498 313 1498 306 1484 c 128,-1,13
 299 1470 299 1470 297 1440 c 2,14,-1
 297 1249 l 1,15,-1
 447 1249 l 2,16,17
 632 1249 632 1249 722 1123 c 128,-1,18
 812 997 812 997 812 802 c 0,19,20
 812 600 812 600 720.5 481 c 128,-1,21
 629 362 629 362 443 362 c 2,22,-1
 297 362 l 1,23,-1
 297 0 l 1,24,-1
 81 0 l 1,8,-1
EndSplineSet
EndChar

StartChar: Q
Encoding: 81 81 157
Width: 768
VWidth: 2380
GlyphClass: 2
Flags: HW
AnchorPoint: "Anchor-2" 401 84 basechar 0
AnchorPoint: "Anchor-0" 401 1515 basechar 0
LayerCount: 2
Fore
SplineSet
409 254 m 0,0,1
 480 254 480 254 525.5 372 c 128,-1,2
 571 490 571 490 571 768 c 0,3,4
 571 989 571 989 549.5 1114 c 128,-1,5
 528 1239 528 1239 488.5 1289.5 c 128,-1,6
 449 1340 449 1340 403 1340 c 0,7,8
 322 1340 322 1340 278 1217 c 128,-1,9
 234 1094 234 1094 234 823 c 0,10,11
 234 518 234 518 280 386 c 128,-1,12
 326 254 326 254 409 254 c 0,0,1
622 -245 m 1,13,14
 604.569620253 -246.025316456 604.569620253 -246.025316456 588.151578273 -246.025316456 c 0,15,16
 460.455696203 -246.025316456 460.455696203 -246.025316456 394 -184 c 0,17,18
 319 -114 319 -114 319 70 c 1,19,20
 186 109 186 109 110.5 278 c 128,-1,21
 35 447 35 447 35 794 c 0,22,23
 35 1013 35 1013 64.5 1156 c 128,-1,24
 94 1299 94 1299 145.5 1382 c 128,-1,25
 197 1465 197 1465 263.5 1499 c 128,-1,26
 330 1533 330 1533 403 1533 c 0,27,28
 504 1533 504 1533 588 1468 c 128,-1,29
 672 1403 672 1403 721.5 1242 c 128,-1,30
 771 1081 771 1081 771 798 c 0,31,32
 771 557 771 557 739 405.5 c 128,-1,33
 707 254 707 254 647 174.5 c 128,-1,34
 587 95 587 95 500 70 c 1,35,36
 504 4 504 4 525 -32 c 128,-1,37
 546 -68 546 -68 596 -68 c 2,38,-1
 711 -61 l 1,39,-1
 709 -245 l 1,40,-1
 622 -245 l 1,13,14
EndSplineSet
EndChar

StartChar: R
Encoding: 82 82 158
Width: 768
VWidth: 2430
GlyphClass: 2
Flags: HW
AnchorPoint: "Anchor-2" 425 0 basechar 0
AnchorPoint: "Anchor-0" 425 1514 basechar 0
LayerCount: 2
Fore
SplineSet
294 839 m 1,0,-1
 418 839 l 2,1,2
 486 839 486 839 525 894.5 c 128,-1,3
 564 950 564 950 564 1074 c 0,4,5
 564 1190 564 1190 525 1247.5 c 128,-1,6
 486 1305 486 1305 418 1305 c 2,7,-1
 294 1305 l 1,8,-1
 294 839 l 1,0,-1
81 0 m 1,9,-1
 81 1514 l 1,10,-1
 401 1514 l 2,11,12
 593 1514 593 1514 685 1399.5 c 128,-1,13
 777 1285 777 1285 777 1076 c 0,14,15
 777 913 777 913 727.5 811.5 c 128,-1,16
 678 710 678 710 586 666 c 1,17,-1
 807 0 l 1,18,-1
 596 0 l 1,19,-1
 387 640 l 1,20,-1
 294 640 l 1,21,-1
 294 0 l 1,22,-1
 81 0 l 1,9,-1
EndSplineSet
EndChar

StartChar: S
Encoding: 83 83 166
Width: 768
VWidth: 2430
GlyphClass: 2
Flags: HW
AnchorPoint: "Anchor-2" 425 0 basechar 0
AnchorPoint: "Anchor-0" 438 1514 basechar 0
LayerCount: 2
Fore
SplineSet
411 -24 m 0,0,1
 186 -24 186 -24 61 126 c 1,2,-1
 151 350 l 1,3,-1
 158 374 l 1,4,-1
 174 364 l 1,5,6
 183 347 183 347 186.5 323 c 128,-1,7
 190 299 190 299 214 265 c 1,8,9
 253 226 253 226 300.5 203 c 128,-1,10
 348 180 348 180 403 180 c 0,11,12
 484 180 484 180 528.5 237 c 128,-1,13
 573 294 573 294 573 401 c 0,14,15
 573 454 573 454 561 500.5 c 128,-1,16
 549 547 549 547 509 592 c 128,-1,17
 469 637 469 637 387 693 c 1,18,19
 232 786 232 786 167 891.5 c 128,-1,20
 102 997 102 997 102 1147 c 0,21,22
 102 1332 102 1332 197 1433.5 c 128,-1,23
 292 1535 292 1535 440 1535 c 0,24,25
 644 1535 644 1535 761 1375 c 1,26,-1
 670 1181 l 1,27,-1
 661 1159 l 1,28,-1
 644 1169 l 1,29,30
 637 1186 637 1186 634 1211 c 128,-1,31
 631 1236 631 1236 608 1268 c 1,32,33
 574 1305 574 1305 537.5 1318 c 128,-1,34
 501 1331 501 1331 457 1331 c 0,35,36
 392 1331 392 1331 352.5 1286.5 c 128,-1,37
 313 1242 313 1242 313 1159 c 0,38,39
 313 1101 313 1101 329 1055 c 128,-1,40
 345 1009 345 1009 390 962.5 c 128,-1,41
 435 916 435 916 524 860 c 0,42,43
 672 767 672 767 730 664 c 128,-1,44
 788 561 788 561 788 422 c 0,45,46
 788 225 788 225 688.5 100.5 c 128,-1,47
 589 -24 589 -24 411 -24 c 0,0,1
EndSplineSet
EndChar

StartChar: uni1E9E
Encoding: 7838 7838 177
Width: 768
VWidth: 2430
GlyphClass: 1
Flags: HW
LayerCount: 2
Fore
SplineSet
505 -24 m 0,0,1
 403 -24 403 -24 333 34 c 1,2,-1
 382 225 l 1,3,4
 419.304347826 182.913043478 419.304347826 182.913043478 464.843100189 182.913043478 c 0,0,0
 466.913043478 182.913043478 466.913043478 182.913043478 469 183 c 0,5,6
 527 183 527 183 560 253 c 128,-1,7
 593 323 593 323 593 459 c 0,8,9
 593 585 593 585 555 667 c 128,-1,10
 517 749 517 749 411 749 c 2,11,-1
 369 749 l 1,12,-1
 369 955 l 1,13,-1
 540 1213 l 1,14,15
 540 1306 540 1306 512 1366 c 128,-1,16
 484 1426 484 1426 418 1426 c 0,17,18
 357 1426 357 1426 318.5 1359.5 c 128,-1,19
 280 1293 280 1293 280 1143 c 2,20,-1
 280 0 l 1,21,-1
 70 0 l 1,22,-1
 70 1108 l 2,23,24
 70 1310 70 1310 117.5 1422.5 c 128,-1,25
 165 1535 165 1535 244 1581.5 c 128,-1,26
 323 1628 323 1628 415 1628 c 0,27,28
 570 1628 570 1628 653.5 1511.5 c 128,-1,29
 737 1395 737 1395 737 1178 c 1,30,-1
 554 928 l 1,31,32
 683 884 683 884 743.5 756.5 c 128,-1,33
 804 629 804 629 804 440 c 0,34,35
 804 206 804 206 724 91 c 128,-1,36
 644 -24 644 -24 505 -24 c 0,0,1
EndSplineSet
EndChar

StartChar: T
Encoding: 84 84 179
Width: 768
VWidth: 2430
GlyphClass: 2
Flags: HW
AnchorPoint: "Anchor-4" 399 758 basechar 0
AnchorPoint: "Anchor-2" 409 0 basechar 0
AnchorPoint: "Anchor-0" 409 1514 basechar 0
LayerCount: 2
Fore
SplineSet
299 0 m 1,0,-1
 299 1308 l 1,1,-1
 40 1308 l 1,2,-1
 40 1516 l 1,3,-1
 776 1516 l 1,4,-1
 776 1308 l 1,5,-1
 502 1308 l 1,6,-1
 502 0 l 1,7,-1
 299 0 l 1,0,-1
EndSplineSet
EndChar

StartChar: Tbar
Encoding: 358 358 180
Width: 768
VWidth: 2430
GlyphClass: 2
Flags: HW
AnchorPoint: "Anchor-4" 399 758 basechar 0
AnchorPoint: "Anchor-2" 409 0 basechar 0
AnchorPoint: "Anchor-0" 409 1514 basechar 0
LayerCount: 2
Fore
SplineSet
299 0 m 1,0,-1
 299 675 l 1,1,-1
 121 675 l 1,2,-1
 121 860 l 1,3,-1
 299 860 l 1,4,-1
 299 1308 l 1,5,-1
 40 1308 l 1,6,-1
 40 1516 l 1,7,-1
 776 1516 l 1,8,-1
 776 1308 l 1,9,-1
 502 1308 l 1,10,-1
 502 860 l 1,11,-1
 678 860 l 1,12,-1
 678 675 l 1,13,-1
 502 675 l 1,14,-1
 502 0 l 1,15,-1
 299 0 l 1,0,-1
EndSplineSet
EndChar

StartChar: U
Encoding: 85 85 186
Width: 768
VWidth: 2430
GlyphClass: 2
Flags: HW
AnchorPoint: "Anchor-3" 494 24 basechar 0
AnchorPoint: "Anchor-2" 425 0 basechar 0
AnchorPoint: "Anchor-1" 777 1514 basechar 0
AnchorPoint: "Anchor-0" 425 1514 basechar 0
LayerCount: 2
Fore
SplineSet
427 -30 m 0,0,1
 232 -30 232 -30 148.5 104 c 128,-1,2
 65 238 65 238 65 496 c 2,3,-1
 65 1514 l 1,4,-1
 301 1514 l 1,5,-1
 301 1495 l 1,6,7
 289 1481 289 1481 285.5 1463.5 c 128,-1,8
 282 1446 282 1446 282 1405 c 2,9,-1
 282 494 l 2,10,11
 282 334 282 334 312.5 253 c 0,12,13
 342.265060241 173.951807229 342.265060241 173.951807229 422.982871244 173.951807229 c 0,14,15
 424.975903614 173.951807229 424.975903614 173.951807229 427 174 c 0,16,17
 512 174 512 174 543.5 259.5 c 128,-1,18
 575 345 575 345 575 501 c 2,19,-1
 575 1514 l 1,20,-1
 790 1514 l 1,21,-1
 790 503 l 2,22,23
 790 218 790 218 697.5 95 c 128,-1,24
 605 -28 605 -28 427 -30 c 0,0,1
EndSplineSet
EndChar

StartChar: V
Encoding: 86 86 209
Width: 768
VWidth: 2430
GlyphClass: 2
Flags: HW
AnchorPoint: "Anchor-2" 395 0 basechar 0
AnchorPoint: "Anchor-0" 395 1514 basechar 0
LayerCount: 2
Fore
SplineSet
328 -7 m 1,0,-1
 30 1516 l 1,1,-1
 225 1516 l 1,2,-1
 407 494 l 1,3,-1
 575 1514 l 1,4,-1
 766 1514 l 1,5,-1
 474 -7 l 1,6,-1
 328 -7 l 1,0,-1
EndSplineSet
EndChar

StartChar: W
Encoding: 87 87 210
Width: 768
VWidth: 2430
GlyphClass: 2
Flags: HW
AnchorPoint: "Anchor-2" 374 0 basechar 0
AnchorPoint: "Anchor-0" 384 1514 basechar 0
LayerCount: 2
Fore
SplineSet
138 0 m 1,0,-1
 7 1514 l 1,1,-1
 171 1514 l 1,2,-1
 229 629 l 1,3,-1
 340 1347 l 1,4,-1
 434 1347 l 1,5,-1
 544 629 l 1,6,-1
 590 1514 l 1,7,-1
 743 1514 l 1,8,-1
 614 0 l 1,9,-1
 503 0 l 1,10,-1
 380 839 l 1,11,-1
 253 0 l 1,12,-1
 138 0 l 1,0,-1
EndSplineSet
EndChar

StartChar: X
Encoding: 88 88 215
Width: 768
VWidth: 2430
GlyphClass: 2
Flags: HW
AnchorPoint: "Anchor-2" 413 0 basechar 0
AnchorPoint: "Anchor-0" 413 1514 basechar 0
LayerCount: 2
Fore
SplineSet
54 0 m 1,0,-1
 301 772 l 1,1,-1
 59 1516 l 1,2,-1
 258 1516 l 1,3,-1
 413 1020 l 1,4,-1
 570 1516 l 1,5,-1
 757 1516 l 1,6,-1
 529 775 l 1,7,-1
 790 0 l 1,8,-1
 588 0 l 1,9,-1
 416 520 l 1,10,-1
 249 0 l 1,11,-1
 54 0 l 1,0,-1
EndSplineSet
EndChar

StartChar: Y
Encoding: 89 89 216
Width: 768
VWidth: 2430
GlyphClass: 2
Flags: HW
AnchorPoint: "Anchor-2" 413 0 basechar 0
AnchorPoint: "Anchor-0" 396 1514 basechar 0
LayerCount: 2
Fore
SplineSet
311 0 m 1,0,-1
 311 566 l 1,1,-1
 32 1514 l 1,2,-1
 231 1514 l 1,3,-1
 413 874 l 1,4,-1
 576 1514 l 1,5,-1
 768 1514 l 1,6,-1
 508 566 l 1,7,-1
 508 0 l 1,8,-1
 311 0 l 1,0,-1
EndSplineSet
EndChar

StartChar: Z
Encoding: 90 90 226
Width: 768
VWidth: 2430
GlyphClass: 2
Flags: HW
AnchorPoint: "Anchor-2" 455 0 basechar 0
AnchorPoint: "Anchor-0" 441 1514 basechar 0
LayerCount: 2
Fore
SplineSet
67 136 m 1,0,-1
 533 1308 l 1,1,-1
 87 1308 l 1,2,-1
 87 1514 l 1,3,-1
 782 1514 l 1,4,-1
 782 1378 l 1,5,-1
 321 206 l 1,6,-1
 695 206 l 2,7,8
 736 206 736 206 752.5 211 c 128,-1,9
 769 216 769 216 784 231 c 1,10,-1
 803 231 l 1,11,-1
 803 0 l 1,12,-1
 67 0 l 1,13,-1
 67 136 l 1,0,-1
EndSplineSet
EndChar

StartChar: a
Encoding: 97 97 232
Width: 768
VWidth: 2430
GlyphClass: 2
Flags: HW
AnchorPoint: "Anchor-3" 663 0 basechar 0
AnchorPoint: "Anchor-2" 401 0 basechar 0
AnchorPoint: "Anchor-0" 425 1106 basechar 0
LayerCount: 2
Fore
SplineSet
267 331 m 0,0,1
 267 256 267 256 299 211.5 c 128,-1,2
 331 167 331 167 382 167 c 0,3,4
 470 167 470 167 513 250 c 128,-1,5
 556 333 556 333 561 517 c 1,6,7
 544 519 544 519 526 519.5 c 128,-1,8
 508 520 508 520 491 520 c 0,9,10
 375 520 375 520 321 474 c 128,-1,11
 267 428 267 428 267 331 c 0,0,1
336 -27 m 0,12,13
 204 -27 204 -27 132.5 66.5 c 128,-1,14
 61 160 61 160 61 301 c 0,15,16
 61 505 61 505 175.5 607.5 c 128,-1,17
 290 710 290 710 489 710 c 0,18,19
 519 710 519 710 559 705 c 1,20,21
 552 865 552 865 512.5 915 c 128,-1,22
 473 965 473 965 399 965 c 0,23,24
 343 965 343 965 299 943 c 128,-1,25
 255 921 255 921 209 865 c 1,26,-1
 100 1009 l 1,27,28
 161 1077 161 1077 239.5 1117 c 128,-1,29
 318 1157 318 1157 420 1157 c 0,30,31
 529 1157 529 1157 607.5 1113 c 128,-1,32
 686 1069 686 1069 728 951 c 128,-1,33
 770 833 770 833 770 615 c 2,34,-1
 770 0 l 1,35,-1
 559 0 l 1,36,-1
 559 116 l 1,37,38
 517 33 517 33 461.5 3 c 128,-1,39
 406 -27 406 -27 336 -27 c 0,12,13
EndSplineSet
Substitution2: "Single Substitution lookup 29 subtable" ordfeminine
Substitution2: "'aalt' Access All Alternates in Latin lookup 0 subtable" ordfeminine
EndChar

StartChar: ae
Encoding: 230 230 257
Width: 768
VWidth: 2430
GlyphClass: 1
Flags: HW
LayerCount: 2
Fore
SplineSet
214 153 m 0,0,1
 263 153 263 153 275 247 c 128,-1,2
 287 341 287 341 287 515 c 1,3,4
 210 510 210 510 180.5 455.5 c 128,-1,5
 150.984615385 400.971577575 150.984615385 400.971577575 150.984615385 299.389585799 c 0,6,7
 150.984615385 153 150.984615385 153 214 153 c 0,0,1
435 702 m 1,8,-1
 582 710 l 1,9,10
 582 842 582 842 564 903.5 c 128,-1,11
 546 965 546 965 512 965 c 0,12,13
 435 964 435 964 435 702 c 1,8,-1
202 -27 m 0,14,15
 106 -27 106 -27 50 64 c 128,-1,16
 -6 155 -6 155 -6 304 c 0,17,18
 -6 491 -6 491 64.5 583 c 128,-1,19
 135 675 135 675 285 693 c 1,20,21
 285 834 285 834 262.5 899.5 c 128,-1,22
 240 965 240 965 195 965 c 0,23,24
 135 965 135 965 92 882 c 1,25,-1
 22 1023 l 1,26,27
 91 1144 91 1144 210 1145 c 0,28,29
 261 1145 261 1145 306 1106 c 128,-1,30
 351 1067 351 1067 371 1013 c 1,31,32
 392 1069 392 1069 434.5 1107 c 128,-1,33
 477 1145 477 1145 520 1145 c 0,34,35
 626 1145 626 1145 675 1017.5 c 128,-1,36
 724 890 724 890 724 647 c 2,37,-1
 724 547 l 1,38,-1
 435 533 l 1,39,-1
 435 427 l 2,40,41
 435 295 435 295 465.5 221.5 c 128,-1,42
 496 148 496 148 555 148 c 0,43,44
 619 148 619 148 659 225 c 1,45,-1
 730 90 l 1,46,47
 657 -26 657 -26 546 -27 c 0,48,49
 497 -27 497 -27 445.5 6 c 128,-1,50
 394 39 394 39 364 102 c 1,51,52
 338 41 338 41 295.5 7 c 128,-1,53
 253 -27 253 -27 202 -27 c 0,14,15
EndSplineSet
EndChar

StartChar: b
Encoding: 98 98 259
Width: 768
VWidth: 2430
GlyphClass: 2
Flags: HW
AnchorPoint: "Anchor-2" 612 0 basechar 0
AnchorPoint: "Anchor-0" 612 1115 basechar 0
LayerCount: 2
Fore
SplineSet
440 170 m 0,0,1
 489 170 489 170 523.5 199.5 c 128,-1,2
 558 229 558 229 579 311.5 c 128,-1,3
 600 394 600 394 600 556 c 0,4,5
 600 785 600 785 559.5 875 c 128,-1,6
 519 965 519 965 442 965 c 0,7,8
 374 965 374 965 329 866.5 c 128,-1,9
 284 768 284 768 284 559 c 0,10,11
 284 353 284 353 323 261.5 c 128,-1,12
 362 170 362 170 440 170 c 0,0,1
481 -27 m 0,13,14
 416 -27 416 -27 358.5 11 c 128,-1,15
 301 49 301 49 269 129 c 1,16,-1
 245 0 l 1,17,-1
 72 0 l 1,18,-1
 72 1621 l 1,19,-1
 303 1621 l 1,20,-1
 303 1602 l 1,21,22
 291 1588 291 1588 287.5 1570.5 c 128,-1,23
 284 1553 284 1553 284 1512 c 2,24,-1
 284 992 l 1,25,26
 318 1077 318 1077 379 1118 c 0,27,28
 437.162790698 1157.09302326 437.162790698 1157.09302326 494.41644132 1157.09302326 c 0,29,30
 497.209302326 1157.09302326 497.209302326 1157.09302326 500 1157 c 0,31,32
 595 1157 595 1157 663.5 1104.5 c 128,-1,33
 732 1052 732 1052 770 924.5 c 128,-1,34
 808 797 808 797 808 573 c 0,35,36
 808 337 808 337 763 207.5 c 128,-1,37
 718 78 718 78 644.5 25.5 c 128,-1,38
 571 -27 571 -27 481 -27 c 0,13,14
EndSplineSet
EndChar

StartChar: c
Encoding: 99 99 261
Width: 768
VWidth: 2430
GlyphClass: 2
Flags: HW
AnchorPoint: "Anchor-2" 476 0 basechar 0
AnchorPoint: "Anchor-0" 476 1132 basechar 0
LayerCount: 2
Fore
SplineSet
489 -27 m 0,0,1
 299 -27 299 -27 187 121 c 128,-1,2
 75 269 75 269 75 561 c 0,3,4
 75 760 75 760 129 892.5 c 128,-1,5
 183 1025 183 1025 275 1091 c 128,-1,6
 367 1157 367 1157 478 1157 c 0,7,8
 587 1157 587 1157 666.5 1109.5 c 128,-1,9
 746 1062 746 1062 793 977 c 1,10,-1
 698 814 l 1,11,-1
 688 795 l 1,12,-1
 670 802 l 1,13,14
 665 821 665 821 663 843 c 128,-1,15
 661 865 661 865 637 895 c 1,16,17
 581 948 581 948 496 948 c 0,18,19
 443 948 443 948 395.5 912.5 c 128,-1,20
 348 877 348 877 317.5 792 c 128,-1,21
 287 707 287 707 287 561 c 0,22,23
 287 352 287 352 349 262 c 128,-1,24
 411 172 411 172 498 172 c 0,25,26
 610 172 610 172 686 287 c 1,27,-1
 777 112 l 1,28,29
 724 42 724 42 648 7.5 c 128,-1,30
 572 -27 572 -27 489 -27 c 0,0,1
EndSplineSet
EndChar

StartChar: d
Encoding: 100 100 268
Width: 768
VWidth: 2430
GlyphClass: 2
Flags: HW
AnchorPoint: "Anchor-4" 612 1344 basechar 0
AnchorPoint: "Anchor-2" 425 0 basechar 0
AnchorPoint: "Anchor-1" 799 1115 basechar 0
AnchorPoint: "Anchor-0" 425 1115 basechar 0
LayerCount: 2
Fore
SplineSet
409 174 m 0,0,1
 559 174 559 174 559 564 c 0,2,3
 559 773 559 773 521.5 869 c 128,-1,4
 484 965 484 965 411 965 c 0,5,6
 339 965 339 965 300 879 c 128,-1,7
 261 793 261 793 261 586 c 0,8,9
 261 361 261 361 305 267.5 c 128,-1,10
 349 174 349 174 409 174 c 0,0,1
365 -24 m 0,11,12
 280 -24 280 -24 210.5 28.5 c 128,-1,13
 141 81 141 81 98.5 211 c 128,-1,14
 56 341 56 341 56 568 c 0,15,16
 56 789 56 789 96 918.5 c 128,-1,17
 136 1048 136 1048 205.5 1103.5 c 128,-1,18
 275 1159 275 1159 370 1159 c 0,19,20
 440 1159 440 1159 490 1122.5 c 128,-1,21
 540 1086 540 1086 561 1006 c 1,22,-1
 561 1621 l 1,23,-1
 792 1621 l 1,24,-1
 792 1602 l 1,25,26
 778 1588 778 1588 773.5 1570.5 c 128,-1,27
 769 1553 769 1553 769 1512 c 2,28,-1
 769 163 l 2,29,30
 769 121 769 121 771.5 81.5 c 128,-1,31
 774 42 774 42 787 0 c 1,32,-1
 584 0 l 1,33,34
 572 34 572 34 566.5 61 c 128,-1,35
 561 88 561 88 561 129 c 1,36,37
 529 57 529 57 476 16.5 c 128,-1,38
 423 -24 423 -24 365 -24 c 0,11,12
EndSplineSet
EndChar

StartChar: eth
Encoding: 240 240 269
Width: 768
VWidth: 2430
GlyphClass: 1
Flags: HW
LayerCount: 2
Fore
SplineSet
436 167 m 0,0,1
 501 167 501 167 544.5 252.5 c 128,-1,2
 588 338 588 338 588 561 c 0,3,4
 588 753 588 753 541 848 c 128,-1,5
 494 943 494 943 431 943 c 0,6,7
 364 941 364 941 315 852 c 128,-1,8
 266 763 266 763 266 561 c 0,9,10
 266 362 266 362 315 264.5 c 128,-1,11
 364 167 364 167 436 167 c 0,0,1
434 -32 m 0,12,13
 330 -32 330 -32 244.5 25.5 c 128,-1,14
 159 83 159 83 108.5 208 c 128,-1,15
 58 333 58 333 58 540 c 0,16,17
 58 846 58 846 155 991.5 c 128,-1,18
 252 1137 252 1137 387 1137 c 0,19,20
 498 1137 498 1137 554 1060 c 1,21,22
 535 1125 535 1125 505.5 1187 c 128,-1,23
 476 1249 476 1249 441 1298 c 1,24,-1
 271 1234 l 1,25,-1
 208 1387 l 1,26,-1
 346 1440 l 1,27,28
 309 1484 309 1484 275.5 1522 c 128,-1,29
 242 1560 242 1560 194 1589 c 1,30,-1
 397 1640 l 1,31,32
 434 1608 434 1608 464 1579.5 c 128,-1,33
 494 1551 494 1551 527 1507 c 1,34,-1
 699 1572 l 1,35,-1
 757 1417 l 1,36,-1
 628 1363 l 1,37,38
 708 1224 708 1224 751 1047 c 128,-1,39
 794 870 794 870 794 615 c 0,40,41
 794 260 794 260 699.5 114 c 128,-1,42
 605 -32 605 -32 434 -32 c 0,12,13
EndSplineSet
EndChar

StartChar: dcaron
Encoding: 271 271 270
Width: 768
VWidth: 2430
GlyphClass: 1
Flags: HW
LayerCount: 2
Fore
SplineSet
291 172 m 0,0,1
 399 172 399 172 400 561 c 0,2,3
 400 777 400 777 374 873 c 128,-1,4
 348 969 348 969 301 969 c 0,5,6
 271 969 271 969 248.5 936.5 c 128,-1,7
 226 904 226 904 213.5 821.5 c 128,-1,8
 201 739 201 739 201 591 c 0,9,10
 201 428 201 428 213.5 337 c 128,-1,11
 226 246 226 246 246 209 c 128,-1,12
 266 172 266 172 291 172 c 0,0,1
254 -24 m 0,13,14
 191 -24 191 -24 141 22 c 128,-1,15
 91 68 91 68 62 196.5 c 128,-1,16
 33 325 33 325 33 566 c 0,17,18
 33 800 33 800 59 928.5 c 128,-1,19
 85 1057 85 1057 135.5 1108 c 128,-1,20
 186 1159 186 1159 256 1159 c 0,21,22
 316 1159 316 1159 351 1122.5 c 128,-1,23
 386 1086 386 1086 400 1001 c 1,24,-1
 400 1618 l 1,25,-1
 591 1618 l 1,26,-1
 591 1599 l 1,27,28
 580 1585 580 1585 575 1568 c 128,-1,29
 570 1551 570 1551 572 1509 c 2,30,-1
 570 170 l 2,31,32
 570 126 570 126 572.5 85 c 128,-1,33
 575 44 575 44 584 0 c 1,34,-1
 417 0 l 1,35,36
 406 30 406 30 401 57.5 c 128,-1,37
 396 85 396 85 396 129 c 1,38,39
 376 57 376 57 334 16.5 c 128,-1,40
 292 -24 292 -24 254 -24 c 0,13,14
683 1623 m 0,41,42
 721 1623 721 1623 745 1588 c 128,-1,43
 769 1553 769 1553 769 1487 c 0,44,45
 769 1324 769 1324 667 1103 c 1,46,-1
 577 1162 l 1,47,48
 607 1218 607 1218 625 1268.5 c 128,-1,49
 643 1319 643 1319 643 1363 c 0,50,51
 643 1390 643 1390 631.5 1409.5 c 128,-1,52
 620 1429 620 1429 610 1453 c 128,-1,53
 601.666666667 1473 601.666666667 1473 601.666666667 1506.88888889 c 0,0,0
 601.666666667 1513.66666667 601.666666667 1513.66666667 602 1521 c 0,54,55
 602 1565 602 1565 625.5 1594 c 128,-1,56
 649 1623 649 1623 683 1623 c 0,41,42
EndSplineSet
EndChar

StartChar: e
Encoding: 101 101 274
Width: 768
VWidth: 2430
GlyphClass: 2
Flags: HW
AnchorPoint: "Anchor-3" 540 24 basechar 0
AnchorPoint: "Anchor-2" 473 0 basechar 0
AnchorPoint: "Anchor-0" 438 1115 basechar 0
LayerCount: 2
Fore
SplineSet
274 688 m 1,0,-1
 568 688 l 1,1,2
 568 829 568 829 536.5 894.5 c 128,-1,3
 505 960 505 960 430 960 c 0,4,5
 367 960 367 960 326.5 897 c 128,-1,6
 286 834 286 834 274 688 c 1,0,-1
459 -24 m 0,7,8
 279 -24 279 -24 171 114.5 c 128,-1,9
 63 253 63 253 63 554 c 0,10,11
 63 870 63 870 165 1013.5 c 128,-1,12
 267 1157 267 1157 438 1157 c 0,13,14
 593 1157 593 1157 684 1026 c 128,-1,15
 775 895 775 895 775 589 c 0,16,17
 775 565 775 565 775 541 c 128,-1,18
 775 517 775 517 772 496 c 1,19,-1
 272 496 l 1,20,21
 277 313 277 313 332 243.5 c 128,-1,22
 387 174 387 174 469 172 c 0,23,24
 525 172 525 172 568.5 198.5 c 128,-1,25
 612 225 612 225 647 274 c 1,26,-1
 753 139 l 1,27,28
 702 64 702 64 627 20 c 128,-1,29
 552 -24 552 -24 459 -24 c 0,7,8
EndSplineSet
EndChar

StartChar: uni029A
Encoding: 666 666 296
Width: 768
VWidth: 2430
GlyphClass: 1
Flags: HW
LayerCount: 2
Fore
SplineSet
400 170 m 0,0,1
 494 170 494 170 538 257.5 c 128,-1,2
 582 345 582 345 582 561 c 0,3,4
 582 770 582 770 543 864 c 128,-1,5
 504 958 504 958 415 958 c 0,6,7
 355 958 355 958 327 914 c 128,-1,8
 299 870 299 870 299 816 c 0,9,10
 299 755 299 755 323 720.5 c 128,-1,11
 347 686 347 686 400 686 c 0,12,13
 416 686 416 686 429 686 c 128,-1,14
 442 686 442 686 458 688 c 1,15,-1
 458 489 l 1,16,17
 431 491 431 491 420.5 493.5 c 128,-1,18
 410 496 410 496 389 496 c 0,19,20
 261 496 261 496 260 338 c 0,21,22
 260 266 260 266 296.5 218 c 128,-1,23
 333 170 333 170 400 170 c 0,0,1
393 -30 m 0,24,25
 229 -28 229 -28 141 68.5 c 128,-1,26
 53 165 53 165 53 333 c 0,27,28
 53 437 53 437 94 507.5 c 128,-1,29
 135 578 135 578 200 608 c 1,30,31
 147 650 147 650 119.5 711 c 128,-1,32
 92 772 92 772 92 846 c 0,33,34
 92 982 92 982 178.5 1064.5 c 128,-1,35
 265 1147 265 1147 398 1147 c 0,36,37
 789 1147 789 1147 789 561 c 0,38,39
 789 257 789 257 686.5 113.5 c 128,-1,40
 584 -30 584 -30 393 -30 c 0,24,25
EndSplineSet
EndChar

StartChar: f
Encoding: 102 102 300
Width: 768
VWidth: 2430
GlyphClass: 1
Flags: HW
LayerCount: 2
Fore
SplineSet
212 935 m 1,0,-1
 53 935 l 1,1,-1
 53 1130 l 1,2,-1
 212 1130 l 1,3,-1
 212 1201 l 2,4,5
 212 1352 212 1352 257.5 1449 c 128,-1,6
 303 1546 303 1546 376 1591.5 c 128,-1,7
 449 1637 449 1637 531 1637 c 0,8,9
 603 1637 603 1637 675 1602 c 128,-1,10
 747 1567 747 1567 789 1497 c 1,11,-1
 722 1327 l 1,12,-1
 713 1305 l 1,13,-1
 696 1312 l 1,14,15
 689 1331 689 1331 683.5 1352 c 128,-1,16
 678 1373 678 1373 650 1403 c 1,17,18
 610.153846154 1438.1025641 610.153846154 1438.1025641 555.006574622 1438.1025641 c 0,0,0
 552.025641026 1438.1025641 552.025641026 1438.1025641 549 1438 c 0,19,20
 489 1438 489 1438 452 1381 c 128,-1,21
 415 1324 415 1324 415 1203 c 2,22,-1
 415 1130 l 1,23,-1
 634 1130 l 1,24,-1
 634 935 l 1,25,-1
 415 935 l 1,26,-1
 415 0 l 1,27,-1
 212 0 l 1,28,-1
 212 935 l 1,0,-1
EndSplineSet
EndChar

StartChar: g
Encoding: 103 103 301
Width: 768
VWidth: 2286
GlyphClass: 2
Flags: HW
AnchorPoint: "Anchor-2" 377 -221 basechar 0
AnchorPoint: "Anchor-0" 352 1121 basechar 0
LayerCount: 2
Fore
SplineSet
200 43 m 0,0,1
 200 -19 200 -19 249 -50 c 128,-1,2
 298 -81 298 -81 375 -81 c 0,3,4
 453 -81 453 -81 494 -43 c 128,-1,5
 535 -5 535 -5 535 49 c 0,6,7
 535 111 535 111 505 135 c 128,-1,8
 475 159 475 159 403 159 c 0,9,10
 362 159 362 159 323 162.5 c 128,-1,11
 284 166 284 166 251 174 c 1,12,13
 227 146 227 146 213.5 115 c 128,-1,14
 200 84 200 84 200 43 c 0,0,1
352 625 m 0,15,16
 451 625 451 625 451 812 c 0,17,18
 451 995 451 995 352 996 c 0,19,20
 255 996 255 996 255 812 c 0,21,22
 255 625 255 625 352 625 c 0,15,16
352 467 m 0,23,24
 307 467 307 467 267 478 c 1,25,26
 254 463 254 463 245.5 447 c 128,-1,27
 237 431 237 431 237 413 c 0,28,29
 237 374 237 374 284.5 356 c 128,-1,30
 332 338 332 338 453 338 c 0,31,32
 587 338 587 338 642 266.5 c 128,-1,33
 697 195 697 195 697 71 c 0,34,35
 697 -15 697 -15 661.5 -86.5 c 128,-1,36
 626 -158 626 -158 552.5 -202 c 128,-1,37
 479 -246 479 -246 366 -246 c 0,38,39
 208 -246 208 -246 124.5 -180 c 128,-1,40
 41 -114 41 -114 41 16 c 0,41,42
 41 86 41 86 69 139.5 c 128,-1,43
 97 193 97 193 138 226 c 1,44,45
 112 250 112 250 98 284 c 128,-1,46
 84 318 84 318 84 366 c 0,47,48
 86 415 86 415 109 459.5 c 128,-1,49
 132 504 132 504 166 543 c 1,50,51
 82 634 82 634 82 812 c 0,52,53
 82 978 82 978 157.5 1071 c 128,-1,54
 233 1164 233 1164 352 1164 c 0,55,56
 469 1164 469 1164 539 1080 c 1,57,58
 578 1121 578 1121 621 1140.5 c 0,59,60
 656.680851064 1156.68085106 656.680851064 1156.68085106 699.935717519 1156.68085106 c 0,61,62
 708.808510638 1156.68085106 708.808510638 1156.68085106 718 1156 c 1,63,-1
 731 998 l 1,64,65
 715.4 1000.81666667 715.4 1000.81666667 700.457222222 1000.81666667 c 0,66,67
 646.433333333 1000.81666667 646.433333333 1000.81666667 601 964 c 1,68,69
 620 898 620 898 621 812 c 0,70,71
 621 639 621 639 544 553 c 128,-1,72
 467 467 467 467 352 467 c 0,23,24
EndSplineSet
EndChar

StartChar: h
Encoding: 104 104 308
Width: 768
VWidth: 2430
GlyphClass: 2
Flags: HW
AnchorPoint: "Anchor-4" 225 1336 basechar 0
AnchorPoint: "Anchor-2" 425 0 basechar 0
AnchorPoint: "Anchor-0" 202 1621 basechar 0
LayerCount: 2
Fore
SplineSet
90 1621 m 1,0,-1
 323 1621 l 1,1,-1
 323 1602 l 1,2,3
 309 1588 309 1588 305 1570.5 c 128,-1,4
 301 1553 301 1553 301 1512 c 2,5,-1
 301 972 l 1,6,7
 340 1067 340 1067 402 1112 c 128,-1,8
 464 1157 464 1157 538 1157 c 0,9,10
 654 1157 654 1157 713 1053.5 c 128,-1,11
 772 950 772 950 772 695 c 2,12,-1
 772 0 l 1,13,-1
 561 0 l 1,14,-1
 561 691 l 2,15,16
 561 842 561 842 537 898.5 c 128,-1,17
 513 955 513 955 464 955 c 0,18,19
 399 955 399 955 350 876 c 128,-1,20
 301 797 301 797 301 644 c 2,21,-1
 301 0 l 1,22,-1
 90 0 l 1,23,-1
 90 1621 l 1,0,-1
EndSplineSet
EndChar

StartChar: i
Encoding: 105 105 313
Width: 768
VWidth: 2430
GlyphClass: 2
Flags: HW
AnchorPoint: "Anchor-3" 586 0 basechar 0
AnchorPoint: "Anchor-2" 427 0 basechar 0
AnchorPoint: "Anchor-0" 427 1492 basechar 0
LayerCount: 2
Fore
SplineSet
134 0 m 1,0,-1
 134 197 l 1,1,-1
 331 197 l 1,2,-1
 331 933 l 1,3,-1
 141 933 l 1,4,-1
 141 1130 l 1,5,-1
 540 1130 l 1,6,-1
 540 197 l 1,7,-1
 719 197 l 1,8,-1
 719 0 l 1,9,-1
 134 0 l 1,0,-1
425 1347 m 0,10,11
 367 1347 367 1347 327 1388 c 128,-1,12
 287 1429 287 1429 287 1484 c 0,13,14
 287 1542 287 1542 327 1584 c 128,-1,15
 367 1626 367 1626 425 1626 c 0,16,17
 481 1626 481 1626 522.5 1584.5 c 128,-1,18
 564 1543 564 1543 564 1484 c 0,19,20
 564 1428 564 1428 522.5 1387.5 c 128,-1,21
 481 1347 481 1347 425 1347 c 0,10,11
EndSplineSet
Substitution2: "'locl' Localized Forms in Latin lookup 18 subtable" i.loclTRK
Substitution2: "'locl' Localized Forms in Latin lookup 17 subtable" i.loclTRK
Substitution2: "'locl' Localized Forms in Latin lookup 16 subtable" i.loclTRK
Substitution2: "'locl' Localized Forms in Latin lookup 15 subtable" i.loclTRK
Substitution2: "'locl' Localized Forms in Latin lookup 14 subtable" i.loclTRK
Substitution2: "Single Substitution lookup 4 subtable" dotlessi
Substitution2: "Single Substitution lookup 3 subtable" dotlessi
AlternateSubs2: "'aalt' Access All Alternates in Latin lookup 1 subtable" dotlessi i.loclTRK
EndChar

StartChar: dotlessi
Encoding: 305 305 314
Width: 768
VWidth: 2430
GlyphClass: 2
Flags: HW
AnchorPoint: "Anchor-3" 586 0 basechar 0
AnchorPoint: "Anchor-2" 427 0 basechar 0
AnchorPoint: "Anchor-0" 427 1127 basechar 0
LayerCount: 2
Fore
SplineSet
134 0 m 1,0,-1
 134 197 l 1,1,-1
 331 197 l 1,2,-1
 331 933 l 1,3,-1
 141 933 l 1,4,-1
 141 1130 l 1,5,-1
 540 1130 l 1,6,-1
 540 197 l 1,7,-1
 719 197 l 1,8,-1
 719 0 l 1,9,-1
 134 0 l 1,0,-1
EndSplineSet
EndChar

StartChar: j
Encoding: 106 106 329
Width: 768
VWidth: 2358
GlyphClass: 2
Flags: HW
AnchorPoint: "Anchor-2" 400 -280 basechar 0
AnchorPoint: "Anchor-0" 504 1503 basechar 0
LayerCount: 2
Fore
SplineSet
295 -246 m 0,0,1
 147 -246 147 -246 49 -133 c 1,2,-1
 135 38 l 1,3,-1
 144 55 l 1,4,-1
 159 49 l 1,5,6
 165 32 165 32 170 14 c 128,-1,7
 175 -4 175 -4 197 -29 c 1,8,9
 239 -60 239 -60 295 -60 c 0,10,11
 355 -60 355 -60 381.5 -1.5 c 128,-1,12
 408 57 408 57 408 182 c 2,13,-1
 408 991 l 1,14,-1
 153 991 l 1,15,-1
 153 1173 l 1,16,-1
 603 1173 l 1,17,-1
 603 197 l 2,18,19
 603 30 603 30 561 -66.5 c 128,-1,20
 519 -163 519 -163 449 -204.5 c 128,-1,21
 379 -246 379 -246 295 -246 c 0,0,1
501 1371 m 0,22,23
 448 1371 448 1371 411.5 1408.5 c 128,-1,24
 375 1446 375 1446 375 1497 c 0,25,26
 375 1550 375 1550 411.5 1588 c 128,-1,27
 448 1626 448 1626 501 1626 c 0,28,29
 552 1626 552 1626 590 1588 c 128,-1,30
 628 1550 628 1550 628 1497 c 0,31,32
 628 1446 628 1446 590 1408.5 c 128,-1,33
 552 1371 552 1371 501 1371 c 0,22,23
EndSplineSet
Substitution2: "Single Substitution lookup 4 subtable" uni0237
Substitution2: "Single Substitution lookup 3 subtable" uni0237
Substitution2: "'aalt' Access All Alternates in Latin lookup 0 subtable" uni0237
EndChar

StartChar: uni0237
Encoding: 567 567 330
Width: 768
VWidth: 2279
GlyphClass: 2
Flags: HW
AnchorPoint: "Anchor-2" 387 -279 basechar 0
AnchorPoint: "Anchor-0" 488 1128 basechar 0
LayerCount: 2
Fore
SplineSet
286 -246 m 0,0,1
 142 -246 142 -246 47 -137 c 1,2,-1
 131 29 l 1,3,-1
 140 46 l 1,4,-1
 154 40 l 1,5,6
 160 23 160 23 165 5.5 c 128,-1,7
 170 -12 170 -12 191 -36 c 1,8,9
 230.677419355 -65.0322580645 230.677419355 -65.0322580645 282.529656608 -65.0322580645 c 0,10,11
 284.258064516 -65.0322580645 284.258064516 -65.0322580645 286 -65 c 0,12,13
 344 -65 344 -65 370 -8.5 c 128,-1,14
 396 48 396 48 396 169 c 2,15,-1
 396 953 l 1,16,-1
 148 953 l 1,17,-1
 148 1130 l 1,18,-1
 585 1130 l 1,19,-1
 585 183 l 2,20,21
 585 21 585 21 544 -72 c 128,-1,22
 503 -165 503 -165 435.5 -205.5 c 128,-1,23
 368 -246 368 -246 286 -246 c 0,0,1
EndSplineSet
EndChar

StartChar: k
Encoding: 107 107 332
Width: 768
VWidth: 2430
GlyphClass: 2
Flags: HW
AnchorPoint: "Anchor-2" 417 0 basechar 0
AnchorPoint: "Anchor-0" 179 1621 basechar 0
LayerCount: 2
Fore
SplineSet
344 482 m 1,0,-1
 289 394 l 1,1,-1
 286 0 l 1,2,-1
 79 0 l 1,3,-1
 79 1621 l 1,4,-1
 307 1621 l 1,5,-1
 307 1602 l 1,6,7
 293 1588 293 1588 289.5 1570.5 c 128,-1,8
 286 1553 286 1553 286 1512 c 2,9,-1
 286 670 l 1,10,-1
 578 1140 l 1,11,12
 605 1133 605 1133 640 1127.5 c 128,-1,13
 675 1122 675 1122 701 1122 c 2,14,-1
 780 1122 l 1,15,-1
 484 644 l 1,16,-1
 815 0 l 1,17,-1
 592 -9 l 1,18,-1
 344 482 l 1,0,-1
EndSplineSet
EndChar

StartChar: kgreenlandic
Encoding: 312 312 334
Width: 768
VWidth: 2430
GlyphClass: 2
Flags: HW
AnchorPoint: "Anchor-2" 417 0 basechar 0
AnchorPoint: "Anchor-0" 184 1115 basechar 0
LayerCount: 2
Fore
SplineSet
344 482 m 1,0,-1
 289 394 l 1,1,-1
 286 0 l 1,2,-1
 79 0 l 1,3,-1
 79 1130 l 1,4,-1
 307 1130 l 1,5,-1
 307 1111 l 1,6,7
 293 1097 293 1097 289.5 1079.5 c 128,-1,8
 286 1062 286 1062 286 1020 c 2,9,-1
 286 670 l 1,10,-1
 578 1140 l 1,11,12
 605 1133 605 1133 640 1127.5 c 128,-1,13
 675 1122 675 1122 701 1122 c 2,14,-1
 780 1122 l 1,15,-1
 484 644 l 1,16,-1
 815 0 l 1,17,-1
 592 -9 l 1,18,-1
 344 482 l 1,0,-1
EndSplineSet
EndChar

StartChar: l
Encoding: 108 108 335
Width: 768
VWidth: 2430
GlyphClass: 2
Flags: HW
AnchorPoint: "Anchor-4" 427 559 basechar 0
AnchorPoint: "Anchor-2" 427 0 basechar 0
AnchorPoint: "Anchor-1" 819 1115 basechar 0
AnchorPoint: "Anchor-0" 427 1621 basechar 0
LayerCount: 2
Fore
SplineSet
102 0 m 1,0,-1
 102 199 l 1,1,-1
 323 199 l 1,2,-1
 323 1424 l 1,3,-1
 112 1424 l 1,4,-1
 112 1621 l 1,5,-1
 535 1621 l 1,6,-1
 535 199 l 1,7,-1
 751 199 l 1,8,-1
 751 0 l 1,9,-1
 102 0 l 1,0,-1
EndSplineSet
EndChar

StartChar: ldot
Encoding: 320 320 339
Width: 768
VWidth: 2430
GlyphClass: 1
Flags: HW
LayerCount: 2
Fore
SplineSet
670 663 m 128,-1,1
 609 663 609 663 566.5 707 c 128,-1,2
 524 751 524 751 524 812 c 128,-1,3
 524 873 524 873 568 916.5 c 128,-1,4
 612 960 612 960 670 960 c 0,5,6
 731 960 731 960 773.5 916 c 128,-1,7
 816 872 816 872 816 812 c 0,8,9
 816 751 816 751 773.5 707 c 128,-1,0
 731 663 731 663 670 663 c 128,-1,1
97 0 m 1,10,-1
 97 199 l 1,11,-1
 272 199 l 1,12,-1
 272 1426 l 1,13,-1
 107 1426 l 1,14,-1
 107 1626 l 1,15,-1
 484 1626 l 1,16,-1
 484 199 l 1,17,-1
 721 199 l 1,18,-1
 721 0 l 1,19,-1
 97 0 l 1,10,-1
EndSplineSet
EndChar

StartChar: uni01C9
Encoding: 457 457 341
Width: 768
VWidth: 2358
GlyphClass: 1
Flags: HW
LayerCount: 2
Fore
SplineSet
404 -246 m 0,0,1
 344 -246 344 -246 291.5 -219.5 c 128,-1,2
 239 -193 239 -193 204 -151 c 1,3,-1
 286 40 l 1,4,5
 299 34 299 34 299 23.5 c 128,-1,6
 299 13 299 13 306 -2 c 128,-1,7
 313 -17 313 -17 343 -38 c 0,8,9
 368 -55 368 -55 404 -55 c 0,10,11
 459 -55 459 -55 491 -3 c 128,-1,12
 523 49 523 49 523 182 c 2,13,-1
 523 991 l 1,14,-1
 366 991 l 1,15,-1
 366 1173 l 1,16,-1
 707 1173 l 1,17,-1
 707 190 l 2,18,19
 707 28 707 28 667.5 -68.5 c 128,-1,20
 628 -165 628 -165 559.5 -205.5 c 128,-1,21
 491 -246 491 -246 404 -246 c 0,0,1
603 1359 m 128,-1,23
 552 1359 552 1359 515.5 1397 c 128,-1,24
 479 1435 479 1435 479 1486 c 0,25,26
 479 1539 479 1539 514.5 1577 c 128,-1,27
 550 1615 550 1615 603 1615 c 0,28,29
 654 1615 654 1615 692 1577 c 128,-1,30
 730 1539 730 1539 730 1486 c 0,31,32
 730 1435 730 1435 692 1397 c 128,-1,22
 654 1359 654 1359 603 1359 c 128,-1,23
31 142 m 1,33,-1
 34 324 l 1,34,-1
 113 324 l 1,35,-1
 113 1444 l 1,36,-1
 42 1444 l 1,37,-1
 42 1626 l 1,38,-1
 292 1626 l 1,39,-1
 292 324 l 1,40,-1
 436 324 l 1,41,-1
 436 142 l 1,42,-1
 31 142 l 1,33,-1
EndSplineSet
EndChar

StartChar: lslash
Encoding: 322 322 343
Width: 768
VWidth: 2430
GlyphClass: 1
Flags: HW
LayerCount: 2
Fore
SplineSet
114 0 m 1,0,-1
 114 199 l 1,1,-1
 320 199 l 1,2,-1
 320 615 l 1,3,-1
 206 554 l 1,4,-1
 206 807 l 1,5,-1
 320 865 l 1,6,-1
 320 1424 l 1,7,-1
 123 1424 l 1,8,-1
 123 1621 l 1,9,-1
 533 1621 l 1,10,-1
 533 962 l 1,11,-1
 666 1028 l 1,12,-1
 666 775 l 1,13,-1
 533 705 l 1,14,-1
 533 199 l 1,15,-1
 739 199 l 1,16,-1
 739 0 l 1,17,-1
 114 0 l 1,0,-1
EndSplineSet
EndChar

StartChar: m
Encoding: 109 109 344
Width: 768
VWidth: 2430
GlyphClass: 2
Flags: HW
AnchorPoint: "Anchor-2" 418 0 basechar 0
AnchorPoint: "Anchor-0" 583 1115 basechar 0
LayerCount: 2
Fore
SplineSet
47 0 m 1,0,-1
 47 1130 l 1,1,-1
 210 1130 l 1,2,-1
 210 1032 l 1,3,4
 233 1090 233 1090 266.5 1123.5 c 128,-1,5
 300 1157 300 1157 340 1157 c 0,6,7
 432 1157 432 1157 461 1004 c 1,8,9
 484 1076 484 1076 525.5 1116.5 c 128,-1,10
 567 1157 567 1157 621 1157 c 0,11,12
 701 1157 701 1157 744 1075.5 c 0,13,14
 782.520833333 1002.48958333 782.520833333 1002.48958333 782.520833333 876.111762153 c 0,15,16
 782.520833333 861.416666667 782.520833333 861.416666667 782 846 c 1,17,-1
 782 0 l 1,18,-1
 609 0 l 1,19,-1
 609 800 l 2,20,21
 609 912 609 912 599.5 945.5 c 128,-1,22
 590 979 590 979 570 979 c 0,23,24
 537 979 537 979 516.5 916 c 128,-1,25
 496 853 496 853 496 749 c 2,26,-1
 496 0 l 1,27,-1
 335 0 l 1,28,-1
 335 788 l 2,29,30
 335 904 335 904 325.5 941.5 c 128,-1,31
 316 979 316 979 291 979 c 0,32,33
 262 979 262 979 242.5 924.5 c 128,-1,34
 223 870 223 870 223 758 c 2,35,-1
 223 0 l 1,36,-1
 47 0 l 1,0,-1
EndSplineSet
EndChar

StartChar: n
Encoding: 110 110 346
Width: 768
VWidth: 2430
GlyphClass: 2
Flags: HW
AnchorPoint: "Anchor-2" 443 0 basechar 0
AnchorPoint: "Anchor-0" 450 1115 basechar 0
LayerCount: 2
Fore
SplineSet
90 0 m 1,0,-1
 90 1130 l 1,1,-1
 301 1130 l 1,2,-1
 301 969 l 1,3,4
 340 1054 340 1054 396 1105.5 c 128,-1,5
 452 1157 452 1157 527 1157 c 0,6,7
 597 1157 597 1157 653.5 1119 c 128,-1,8
 710 1081 710 1081 740 982.5 c 128,-1,9
 770 884 770 884 770 710 c 2,10,-1
 770 0 l 1,11,-1
 561 0 l 1,12,-1
 561 705 l 2,13,14
 561 846 561 846 535.5 900.5 c 128,-1,15
 510 955 510 955 462 955 c 0,16,17
 404 955 404 955 352.5 881 c 128,-1,18
 301 807 301 807 301 668 c 2,19,-1
 301 0 l 1,20,-1
 90 0 l 1,0,-1
EndSplineSet
EndChar

StartChar: eng
Encoding: 331 331 352
Width: 768
VWidth: 2281
GlyphClass: 1
Flags: HW
LayerCount: 2
Fore
SplineSet
400 -246 m 0,0,1
 359 -246 359 -246 308.5 -229 c 128,-1,2
 258 -212 258 -212 221 -174 c 1,3,-1
 283 1 l 1,4,5
 296 -3 296 -3 300.5 -19.5 c 128,-1,6
 305 -36 305 -36 321.5 -51 c 128,-1,7
 338 -66 338 -66 383 -66 c 0,8,9
 447 -66 447 -66 472.5 5 c 128,-1,10
 498 76 498 76 498 228 c 2,11,-1
 498 731 l 2,12,13
 498 873 498 873 472.5 923.5 c 128,-1,14
 447 974 447 974 406 974 c 0,15,16
 346 974 346 974 305 903.5 c 128,-1,17
 264 833 264 833 264 706 c 2,18,-1
 264 134 l 1,19,-1
 78 134 l 1,20,-1
 78 1133 l 1,21,-1
 264 1133 l 1,22,-1
 264 991 l 1,23,24
 333 1157 333 1157 462 1157 c 0,25,26
 524 1157 524 1157 574.5 1118 c 128,-1,27
 625 1079 625 1079 653 988 c 128,-1,28
 681 897 681 897 681 733 c 2,29,-1
 681 252 l 2,30,31
 681 -21 681 -21 604 -133.5 c 128,-1,32
 527 -246 527 -246 400 -246 c 0,0,1
EndSplineSet
EndChar

StartChar: o
Encoding: 111 111 355
Width: 768
VWidth: 2430
GlyphClass: 2
Flags: HW
AnchorPoint: "Anchor-4" 415 559 basechar 0
AnchorPoint: "Anchor-3" 475 39 basechar 0
AnchorPoint: "Anchor-2" 415 0 basechar 0
AnchorPoint: "Anchor-1" 594 1067 basechar 0
AnchorPoint: "Anchor-0" 415 1115 basechar 0
LayerCount: 2
Fore
SplineSet
412 178 m 0,0,1
 574 178 574 178 576 564 c 0,2,3
 576 766 576 766 533.5 860.5 c 128,-1,4
 491 955 491 955 412 955 c 0,5,6
 339 955 339 955 294.5 860 c 128,-1,7
 250 765 250 765 250 564 c 0,8,9
 250 367 250 367 293 272.5 c 128,-1,10
 336 178 336 178 412 178 c 0,0,1
412 -21 m 128,-1,12
 252 -21 252 -21 148.5 116 c 128,-1,13
 45 253 45 253 45 559 c 0,14,15
 45 872 45 872 148.5 1014.5 c 128,-1,16
 252 1157 252 1157 412 1157 c 128,-1,17
 572 1157 572 1157 676.5 1014.5 c 128,-1,18
 781 872 781 872 781 559 c 0,19,20
 781 255 781 255 676.5 117 c 128,-1,11
 572 -21 572 -21 412 -21 c 128,-1,12
EndSplineSet
Substitution2: "Single Substitution lookup 29 subtable" ordmasculine
Substitution2: "'aalt' Access All Alternates in Latin lookup 0 subtable" ordmasculine
EndChar

StartChar: oslash
Encoding: 248 248 383
Width: 768
VWidth: 2430
GlyphClass: 2
Flags: HW
AnchorPoint: "Anchor-4" 415 559 basechar 0
AnchorPoint: "Anchor-3" 475 39 basechar 0
AnchorPoint: "Anchor-2" 415 0 basechar 0
AnchorPoint: "Anchor-1" 594 1067 basechar 0
AnchorPoint: "Anchor-0" 415 1115 basechar 0
LayerCount: 2
Fore
SplineSet
412 178 m 0,0,1
 574 178 574 178 576 564 c 0,2,3
 576 668 576 668 563 746 c 1,4,-1
 358 192 l 1,5,6
 381 178 381 178 412 178 c 0,0,1
250 564 m 0,7,8
 250 464 250 464 261 389 c 1,9,-1
 468 943 l 1,10,11
 445 955 445 955 412 955 c 0,12,13
 339 955 339 955 294.5 860.5 c 128,-1,14
 250 766 250 766 250 564 c 0,7,8
236 -136 m 1,15,-1
 92 -70 l 1,16,-1
 158 104 l 1,17,18
 104 174 104 174 74.5 287.5 c 128,-1,19
 45 401 45 401 45 559 c 0,20,21
 45 872 45 872 148.5 1014.5 c 128,-1,22
 252 1157 252 1157 412 1157 c 0,23,24
 480 1157 480 1157 538 1132 c 1,25,-1
 585 1261 l 1,26,-1
 729 1194 l 1,27,-1
 668 1028 l 1,28,29
 722 956 722 956 751.5 840 c 128,-1,30
 781 724 781 724 781 559 c 0,31,32
 781 255 781 255 677.5 117 c 128,-1,33
 574 -21 574 -21 412 -21 c 0,34,35
 344 -21 344 -21 288 2 c 1,36,-1
 236 -136 l 1,15,-1
EndSplineSet
EndChar

StartChar: oe
Encoding: 339 339 389
Width: 768
VWidth: 2430
GlyphClass: 1
Flags: HW
LayerCount: 2
Fore
SplineSet
245 155 m 0,0,1
 269 155 269 155 285 175 c 128,-1,2
 301 195 301 195 301 234 c 0,3,4
 301 241 301 241 300 253 c 128,-1,5
 299 265 299 265 297 287 c 0,6,7
 291 365 291 365 286 433 c 128,-1,8
 281 501 281 501 281 580 c 0,9,10
 281 716 281 716 290 786 c 128,-1,11
 299 856 299 856 299 872 c 0,12,13
 299 911 299 911 286 936.5 c 128,-1,14
 273 962 273 962 243 962 c 0,15,16
 206 962 206 962 179.5 882 c 128,-1,17
 153 802 153 802 153 586 c 0,18,19
 153 348 153 348 174.5 251.5 c 128,-1,20
 196 155 196 155 245 155 c 0,0,1
431 693 m 1,21,-1
 598 693 l 1,22,23
 598 846 598 846 581 907.5 c 128,-1,24
 564 969 564 969 517 969 c 0,25,26
 472 969 472 969 451.5 899 c 128,-1,27
 431 829 431 829 431 693 c 1,21,-1
544 -30 m 0,28,29
 441 -30 441 -30 379 53 c 1,30,31
 319.731707317 -27.012195122 319.731707317 -27.012195122 234.117935753 -27.012195122 c 0,0,0
 233.06097561 -27.012195122 233.06097561 -27.012195122 232 -27 c 0,32,33
 176 -27 176 -27 123 19 c 128,-1,34
 70 65 70 65 35.5 191.5 c 128,-1,35
 1 318 1 318 1 559 c 0,36,37
 1 780 1 780 32.5 907.5 c 128,-1,38
 64 1035 64 1035 119 1090 c 128,-1,39
 174 1145 174 1145 243 1145 c 0,40,41
 329 1145 329 1145 381 1055 c 1,42,43
 433 1145 433 1145 523 1145 c 0,44,45
 622 1145 622 1145 679.5 1037.5 c 128,-1,46
 737 930 737 930 737 688 c 2,47,-1
 737 520 l 1,48,-1
 426 520 l 1,49,50
 428 365 428 365 443 284.5 c 128,-1,51
 458 204 458 204 485.5 176 c 128,-1,52
 513 148 513 148 551 148 c 0,53,54
 629 148 629 148 674 238 c 1,55,-1
 735 93 l 1,56,57
 656 -30 656 -30 544 -30 c 0,28,29
EndSplineSet
EndChar

StartChar: p
Encoding: 112 112 390
Width: 768
VWidth: 2298
GlyphClass: 2
Flags: HW
AnchorPoint: "Anchor-2" 408 118 basechar 0
AnchorPoint: "Anchor-0" 408 1130 basechar 0
LayerCount: 2
Fore
SplineSet
397 266 m 0,0,1
 439 266 439 266 470.5 293.5 c 128,-1,2
 502 321 502 321 520.5 398.5 c 128,-1,3
 539 476 539 476 539 624 c 0,4,5
 539 824 539 824 505 902 c 128,-1,6
 471 980 471 980 404 982 c 0,7,8
 337 982 337 982 296.5 887.5 c 128,-1,9
 256 793 256 793 256 593 c 0,10,11
 258 408 258 408 296 337 c 128,-1,12
 334 266 334 266 397 266 c 0,0,1
67 -246 m 1,13,-1
 67 1135 l 1,14,-1
 256 1135 l 1,15,-1
 256 997 l 1,16,17
 287 1074 287 1074 335 1115.5 c 128,-1,18
 383 1157 383 1157 450 1157 c 0,19,20
 527 1157 527 1157 588.5 1111 c 128,-1,21
 650 1065 650 1065 688 949.5 c 128,-1,22
 726 834 726 834 726 624 c 0,23,24
 726 426 726 426 690 309.5 c 128,-1,25
 654 193 654 193 591 142.5 c 128,-1,26
 528 92 528 92 447 92 c 0,27,28
 314 92 314 92 258 223 c 1,29,-1
 258 -246 l 1,30,-1
 67 -246 l 1,13,-1
EndSplineSet
EndChar

StartChar: thorn
Encoding: 254 254 391
Width: 768
VWidth: 2365
GlyphClass: 1
Flags: HW
LayerCount: 2
Fore
SplineSet
408 280 m 0,0,1
 451 280 451 280 483 307.5 c 128,-1,2
 515 335 515 335 534 415 c 128,-1,3
 553 495 553 495 553 647 c 0,4,5
 553 852 553 852 518 932 c 128,-1,6
 483 1012 483 1012 414 1014 c 0,7,8
 345 1014 345 1014 303.5 917 c 128,-1,9
 262 820 262 820 262 615 c 0,10,11
 264 425 264 425 304 352.5 c 128,-1,12
 344 280 344 280 408 280 c 0,0,1
69 1621 m 1,13,-1
 282 1621 l 1,14,-1
 282 1603 l 1,15,16
 269 1590 269 1590 265.5 1574.5 c 128,-1,17
 262 1559 262 1559 262 1520 c 2,18,-1
 262 1030 l 1,19,20
 294 1109 294 1109 343.5 1151 c 128,-1,21
 393 1193 393 1193 461 1193 c 0,22,23
 540 1193 540 1193 603.5 1146 c 128,-1,24
 667 1099 667 1099 706 980.5 c 128,-1,25
 745 862 745 862 745 647 c 0,26,27
 745 444 745 444 708 324 c 128,-1,28
 671 204 671 204 606.5 152 c 128,-1,29
 542 100 542 100 459 100 c 0,30,31
 322 100 322 100 265 235 c 1,32,-1
 265 -246 l 1,33,-1
 69 -246 l 1,34,-1
 69 1621 l 1,13,-1
EndSplineSet
EndChar

StartChar: q
Encoding: 113 113 392
Width: 768
VWidth: 2299
GlyphClass: 1
Flags: HW
LayerCount: 2
Fore
SplineSet
375 271 m 0,0,1
 436 271 436 271 473 352 c 128,-1,2
 510 433 510 433 510 643 c 0,3,4
 510 839 510 839 473.5 913 c 128,-1,5
 437 987 437 987 375 987 c 0,6,7
 310 987 310 987 270.5 910.5 c 128,-1,8
 231 834 231 834 231 629 c 0,9,10
 231 431 231 431 269.5 351 c 128,-1,11
 308 271 308 271 375 271 c 0,0,1
510 -246 m 1,12,-1
 510 227 l 1,13,14
 481 152 481 152 438 123 c 128,-1,15
 399.03125 96.71875 399.03125 96.71875 346.921875 96.71875 c 0,0,0
 341.53125 96.71875 341.53125 96.71875 336 97 c 0,16,17
 188 97 188 97 115 232 c 128,-1,18
 42 367 42 367 42 622 c 0,19,20
 42 820 42 820 79 938.5 c 128,-1,21
 116 1057 116 1057 183.5 1108 c 128,-1,22
 251 1159 251 1159 340 1159 c 0,23,24
 407 1159 407 1159 449 1122 c 128,-1,25
 491 1085 491 1085 515 1015 c 1,26,-1
 515 1133 l 1,27,-1
 700 1133 l 1,28,-1
 700 -246 l 1,29,-1
 510 -246 l 1,12,-1
EndSplineSet
EndChar

StartChar: r
Encoding: 114 114 393
Width: 768
VWidth: 2430
GlyphClass: 2
Flags: HW
AnchorPoint: "Anchor-2" 469 0 basechar 0
AnchorPoint: "Anchor-0" 484 1118 basechar 0
LayerCount: 2
Fore
SplineSet
121 1130 m 1,0,-1
 338 1130 l 1,1,-1
 336 967 l 1,2,3
 370 1060 370 1060 437.5 1109.5 c 0,4,5
 502.378640777 1157.0776699 502.378640777 1157.0776699 572.338391931 1157.0776699 c 0,6,7
 575.165048544 1157.0776699 575.165048544 1157.0776699 578 1157 c 0,8,9
 656 1157 656 1157 710.5 1121.5 c 128,-1,10
 765 1086 765 1086 807 1020 c 1,11,-1
 719 839 l 1,12,-1
 712 816 l 1,13,-1
 693 823 l 1,14,15
 686 842 686 842 679.5 865 c 128,-1,16
 673 888 673 888 647 916 c 1,17,18
 598 953 598 953 549 953 c 0,19,20
 496 953 496 953 447.5 922.5 c 128,-1,21
 399 892 399 892 367.5 815.5 c 128,-1,22
 336 739 336 739 336 598 c 2,23,-1
 336 -2 l 1,24,-1
 121 -2 l 1,25,-1
 121 1130 l 1,0,-1
EndSplineSet
EndChar

StartChar: uni027B
Encoding: 635 635 399
Width: 768
VWidth: 2276
GlyphClass: 1
Flags: HW
LayerCount: 2
Fore
SplineSet
600 -246 m 0,0,1
 493 -246 493 -246 432.5 -171 c 128,-1,2
 372 -96 372 -96 370 88 c 1,3,-1
 372 249 l 1,4,5
 346 180 346 180 296 144.5 c 128,-1,6
 246 109 246 109 194 109 c 0,7,8
 145 109 145 109 101 128.5 c 128,-1,9
 57 148 57 148 16 202 c 1,10,-1
 74 377 l 1,11,-1
 79 399 l 1,12,-1
 91 395 l 1,13,14
 97 380 97 380 100.5 363 c 128,-1,15
 104 346 104 346 121 326 c 0,16,17
 160 287 160 287 207 287 c 0,18,19
 269 287 269 287 319.5 361.5 c 128,-1,20
 370 436 370 436 370 600 c 2,21,-1
 370 1132 l 1,22,-1
 557 1132 l 1,23,-1
 555 88 l 2,24,25
 555 4 555 4 570.5 -38 c 128,-1,26
 586 -80 586 -80 623 -80 c 0,27,28
 636 -80 636 -80 648 -76.5 c 128,-1,29
 660 -73 660 -73 670 -64 c 0,30,31
 680 -56 680 -56 684 -44 c 128,-1,32
 688 -32 688 -32 698 -28 c 1,33,-1
 733 -193 l 1,34,35
 680 -246 680 -246 600 -246 c 0,0,1
EndSplineSet
EndChar

StartChar: uni024D
Encoding: 589 589 402
Width: 768
VWidth: 2430
GlyphClass: 2
Flags: HW
AnchorPoint: "Anchor-2" 455 0 basechar 0
AnchorPoint: "Anchor-0" 470 1118 basechar 0
LayerCount: 2
Fore
SplineSet
47 396 m 1,0,-1
 47 596 l 1,1,-1
 117 596 l 1,2,-1
 117 1130 l 1,3,-1
 328 1130 l 1,4,-1
 326 967 l 1,5,6
 359 1060 359 1060 425 1109.5 c 0,7,8
 488.436893204 1157.0776699 488.436893204 1157.0776699 555.56913941 1157.0776699 c 0,9,10
 558.281553398 1157.0776699 558.281553398 1157.0776699 561 1157 c 0,11,12
 637 1157 637 1157 690 1121.5 c 128,-1,13
 743 1086 743 1086 783 1020 c 1,14,-1
 698 839 l 1,15,-1
 691 816 l 1,16,-1
 673 823 l 1,17,18
 666 842 666 842 659.5 865 c 128,-1,19
 653 888 653 888 628 916 c 1,20,21
 581 953 581 953 533 953 c 0,22,23
 481 953 481 953 434 922.5 c 128,-1,24
 387 892 387 892 356.5 815.5 c 128,-1,25
 326 739 326 739 326 598 c 2,26,-1
 326 596 l 1,27,-1
 533 596 l 1,28,-1
 533 396 l 1,29,-1
 326 396 l 1,30,-1
 326 -2 l 1,31,-1
 117 -2 l 1,32,-1
 117 396 l 1,33,-1
 47 396 l 1,0,-1
EndSplineSet
EndChar

StartChar: s
Encoding: 115 115 403
Width: 768
VWidth: 2430
GlyphClass: 1
Flags: HW
LayerCount: 2
Fore
SplineSet
418 -24 m 0,0,1
 306 -24 306 -24 219 9 c 128,-1,2
 132 42 132 42 72 100 c 1,3,-1
 155 287 l 1,4,-1
 163 309 l 1,5,-1
 180 301 l 1,6,7
 189 282 189 282 197.5 264 c 128,-1,8
 206 246 206 246 236 223 c 0,9,10
 273 193 273 193 315 179 c 128,-1,11
 357 165 357 165 411 165 c 0,12,13
 479 165 479 165 516.5 207.5 c 128,-1,14
 554 250 554 250 554 313 c 0,15,16
 554 366 554 366 518 408 c 128,-1,17
 482 450 482 450 389 494 c 0,18,19
 270 547 270 547 191 624.5 c 128,-1,20
 112 702 112 702 112 844 c 0,21,22
 112 973 112 973 196 1065 c 128,-1,23
 280 1157 280 1157 430 1157 c 0,24,25
 646 1157 646 1157 753 1004 c 1,26,-1
 656 846 l 1,27,-1
 644 826 l 1,28,-1
 629 837 l 1,29,30
 624 856 624 856 617 875.5 c 128,-1,31
 610 895 610 895 584 923 c 1,32,33
 554 944 554 944 518 955.5 c 128,-1,34
 482 967 482 967 445 967 c 0,35,36
 384 967 384 967 346.5 934.5 c 128,-1,37
 309 902 309 902 309 848 c 0,38,39
 309 790 309 790 351.5 751 c 128,-1,40
 394 712 394 712 496 666 c 0,41,42
 632 605 632 605 692.5 532 c 128,-1,43
 753 459 753 459 753 325 c 0,44,45
 753 158 753 158 662 67 c 128,-1,46
 571 -24 571 -24 418 -24 c 0,0,1
EndSplineSet
EndChar

StartChar: germandbls
Encoding: 223 223 414
Width: 768
VWidth: 2430
GlyphClass: 1
Flags: HW
LayerCount: 2
Fore
SplineSet
499 -27 m 0,0,1
 446 -27 446 -27 406.5 -13.5 c 128,-1,2
 367 0 367 0 330 27 c 1,3,-1
 385 216 l 1,4,5
 424 172 424 172 476 172 c 0,6,7
 534 172 534 172 564.5 257.5 c 128,-1,8
 595 343 595 343 595 471 c 0,9,10
 595 597 595 597 556 676.5 c 128,-1,11
 517 756 517 756 411 756 c 2,12,-1
 356 756 l 1,13,-1
 356 953 l 1,14,-1
 418 953 l 2,15,16
 471 953 471 953 502 1013.5 c 128,-1,17
 533 1074 533 1074 533 1188 c 128,-1,18
 533 1302 533 1302 501 1365.5 c 128,-1,19
 469 1429 469 1429 406 1429 c 0,20,21
 341 1429 341 1429 307 1330.5 c 128,-1,22
 273 1232 273 1232 273 1048 c 2,23,-1
 273 0 l 1,24,-1
 65 0 l 1,25,-1
 65 1035 l 2,26,27
 65 1253 65 1253 106.5 1383.5 c 128,-1,28
 148 1514 148 1514 221.5 1571 c 128,-1,29
 295 1628 295 1628 395 1628 c 0,30,31
 543 1628 543 1628 638.5 1514 c 128,-1,32
 734 1400 734 1400 734 1201 c 0,33,34
 734 1099 734 1099 704.5 1012.5 c 128,-1,35
 675 926 675 926 610 877 c 1,36,37
 697 838 697 838 749 733.5 c 128,-1,38
 801 629 801 629 801 443 c 0,39,40
 801 200 801 200 716.5 86.5 c 128,-1,41
 632 -27 632 -27 499 -27 c 0,0,1
EndSplineSet
EndChar

StartChar: t
Encoding: 116 116 415
Width: 768
VWidth: 2430
GlyphClass: 2
Flags: HW
AnchorPoint: "Anchor-4" 352 746 basechar 0
AnchorPoint: "Anchor-2" 471 0 basechar 0
AnchorPoint: "Anchor-1" 515 1127 basechar 0
AnchorPoint: "Anchor-0" 399 1424 basechar 0
LayerCount: 2
Fore
SplineSet
515 -27 m 0,0,1
 413 -27 413 -27 351.5 27 c 128,-1,2
 290 81 290 81 262 215.5 c 0,3,4
 239.6 323.1 239.6 323.1 239.6 502.06 c 0,5,6
 239.6 546.8 239.6 546.8 241 596 c 2,7,-1
 248 904 l 1,8,-1
 90 904 l 1,9,-1
 93 1103 l 1,10,-1
 255 1103 l 1,11,-1
 262 1395 l 1,12,-1
 486 1424 l 1,13,-1
 508 1426 l 1,14,-1
 510 1407 l 1,15,16
 498 1390 498 1390 491 1372 c 128,-1,17
 484 1354 484 1354 482 1315 c 2,18,-1
 469 1103 l 1,19,-1
 712 1103 l 1,20,-1
 710 904 l 1,21,-1
 469 904 l 1,22,-1
 457 591 l 2,23,24
 455.638888889 543.75 455.638888889 543.75 455.638888889 502.322530864 c 0,25,26
 455.638888889 330.694444444 455.638888889 330.694444444 479 259 c 0,27,28
 508 170 508 170 571 170 c 0,29,30
 624 170 624 170 667 195.5 c 128,-1,31
 710 221 710 221 742 253 c 1,32,-1
 780 72 l 1,33,34
 724 19 724 19 654.5 -4 c 128,-1,35
 585 -27 585 -27 515 -27 c 0,0,1
EndSplineSet
EndChar

StartChar: tbar
Encoding: 359 359 416
Width: 768
VWidth: 2430
GlyphClass: 2
Flags: HW
AnchorPoint: "Anchor-4" 352 746 basechar 0
AnchorPoint: "Anchor-2" 471 0 basechar 0
AnchorPoint: "Anchor-1" 515 1127 basechar 0
AnchorPoint: "Anchor-0" 399 1424 basechar 0
LayerCount: 2
Fore
SplineSet
85 508 m 1,0,-1
 85 717 l 1,1,-1
 243 717 l 1,2,-1
 248 904 l 1,3,-1
 90 904 l 1,4,-1
 93 1103 l 1,5,-1
 255 1103 l 1,6,-1
 262 1395 l 1,7,-1
 486 1424 l 1,8,-1
 508 1426 l 1,9,-1
 510 1407 l 1,10,11
 498 1390 498 1390 491 1372 c 128,-1,12
 484 1354 484 1354 482 1315 c 2,13,-1
 469 1103 l 1,14,-1
 712 1103 l 1,15,-1
 710 904 l 1,16,-1
 469 904 l 1,17,-1
 462 717 l 1,18,-1
 698 717 l 1,19,-1
 698 508 l 1,20,-1
 454 508 l 1,21,22
 454 316 454 316 484.5 243 c 128,-1,23
 515 170 515 170 571 170 c 0,24,25
 624 170 624 170 667 195.5 c 128,-1,26
 710 221 710 221 742 253 c 1,27,-1
 780 72 l 1,28,29
 724 19 724 19 655 -4 c 128,-1,30
 586 -27 586 -27 515 -27 c 0,31,32
 420 -27 420 -27 358.5 19 c 128,-1,33
 297 65 297 65 267.5 182 c 128,-1,34
 238 299 238 299 238 508 c 1,35,-1
 85 508 l 1,0,-1
EndSplineSet
EndChar

StartChar: u
Encoding: 117 117 423
Width: 768
VWidth: 2430
GlyphClass: 2
Flags: HW
AnchorPoint: "Anchor-3" 605 0 basechar 0
AnchorPoint: "Anchor-2" 382 0 basechar 0
AnchorPoint: "Anchor-1" 737 1115 basechar 0
AnchorPoint: "Anchor-0" 420 1115 basechar 0
LayerCount: 2
Fore
SplineSet
357 -27 m 0,0,1
 272 -27 272 -27 211.5 17 c 128,-1,2
 151 61 151 61 118 171.5 c 0,3,4
 87.75 272.791666667 87.75 272.791666667 87.75 449.288194444 c 0,5,6
 87.75 465.333333333 87.75 465.333333333 88 482 c 2,7,-1
 90 1130 l 1,8,-1
 299 1130 l 1,9,-1
 299 464 l 2,10,11
 299 343 299 343 312 280.5 c 128,-1,12
 325 218 325 218 349.5 195 c 128,-1,13
 374 172 374 172 408 172 c 0,14,15
 471 172 471 172 508 251.5 c 128,-1,16
 545 331 545 331 545 484 c 2,17,-1
 545 1130 l 1,18,-1
 756 1130 l 1,19,-1
 756 174 l 2,20,21
 756 128 756 128 758.5 86 c 128,-1,22
 761 44 761 44 772 0 c 1,23,-1
 578 0 l 1,24,25
 559 56 559 56 559 129 c 1,26,27
 529 57 529 57 477 15 c 128,-1,28
 425 -27 425 -27 357 -27 c 0,0,1
EndSplineSet
EndChar

StartChar: v
Encoding: 118 118 446
Width: 768
VWidth: 2430
GlyphClass: 2
Flags: HW
AnchorPoint: "Anchor-2" 427 0 basechar 0
AnchorPoint: "Anchor-0" 427 1127 basechar 0
LayerCount: 2
Fore
SplineSet
333 0 m 1,0,-1
 56 1130 l 1,1,-1
 265 1130 l 1,2,-1
 443 341 l 1,3,-1
 524 666 l 2,4,5
 556 795 556 795 576 913.5 c 128,-1,6
 596 1032 596 1032 600 1130 c 1,7,-1
 790 1130 l 1,8,9
 781 1026 781 1026 756 899 c 128,-1,10
 731 772 731 772 695 640 c 2,11,-1
 520 0 l 1,12,-1
 333 0 l 1,0,-1
EndSplineSet
EndChar

StartChar: w
Encoding: 119 119 447
Width: 768
VWidth: 2430
GlyphClass: 2
Flags: HW
AnchorPoint: "Anchor-2" 386 0 basechar 0
AnchorPoint: "Anchor-0" 386 1115 basechar 0
LayerCount: 2
Fore
SplineSet
142 -2 m 1,0,-1
 16 1130 l 1,1,-1
 180 1130 l 1,2,-1
 252 367 l 1,3,-1
 340 948 l 1,4,-1
 451 948 l 1,5,-1
 554 369 l 1,6,7
 579 656 579 656 584.5 828.5 c 128,-1,8
 590 1001 590 1001 590 1083 c 2,9,-1
 590 1130 l 1,10,-1
 752 1130 l 1,11,12
 735 854 735 854 708.5 561.5 c 128,-1,13
 682 269 682 269 649 -2 c 1,14,-1
 479 -2 l 1,15,-1
 394 549 l 1,16,-1
 312 -2 l 1,17,-1
 142 -2 l 1,0,-1
EndSplineSet
EndChar

StartChar: x
Encoding: 120 120 452
Width: 768
VWidth: 2430
GlyphClass: 2
Flags: HW
AnchorPoint: "Anchor-2" 415 0 basechar 0
AnchorPoint: "Anchor-0" 415 1127 basechar 0
LayerCount: 2
Fore
SplineSet
50 0 m 1,0,-1
 308 571 l 1,1,-1
 54 1130 l 1,2,-1
 258 1130 l 1,3,-1
 413 788 l 1,4,-1
 558 1130 l 1,5,-1
 752 1130 l 1,6,-1
 515 578 l 1,7,-1
 786 0 l 1,8,-1
 577 0 l 1,9,-1
 413 360 l 1,10,-1
 258 0 l 1,11,-1
 50 0 l 1,0,-1
EndSplineSet
EndChar

StartChar: y
Encoding: 121 121 453
Width: 768
VWidth: 2279
GlyphClass: 2
Flags: HW
AnchorPoint: "Anchor-2" 585 130 basechar 0
AnchorPoint: "Anchor-0" 392 1128 basechar 0
LayerCount: 2
Fore
SplineSet
197 -246 m 0,0,1
 98 -246 98 -246 30 -167 c 1,2,-1
 90 -6 l 1,3,-1
 97 13 l 1,4,-1
 111 7 l 1,5,6
 117 -8 117 -8 125 -25 c 128,-1,7
 133 -42 133 -42 160 -61 c 0,8,9
 177 -69 177 -69 200 -70 c 0,10,11
 245 -70 245 -70 269 -14 c 128,-1,12
 293 42 293 42 318 151 c 2,13,-1
 322 167 l 1,14,-1
 51 1130 l 1,15,-1
 234 1130 l 1,16,-1
 402 495 l 1,17,-1
 462 743 l 2,18,19
 486 840 486 840 503.5 937.5 c 128,-1,20
 521 1035 521 1035 527 1130 c 1,21,-1
 695 1130 l 1,22,23
 689 1031 689 1031 663.5 922.5 c 128,-1,24
 638 814 638 814 613 715 c 2,25,-1
 441 29 l 2,26,27
 402 -117 402 -117 337.5 -181.5 c 128,-1,28
 273 -246 273 -246 197 -246 c 0,0,1
EndSplineSet
EndChar

StartChar: z
Encoding: 122 122 463
Width: 768
VWidth: 2430
GlyphClass: 2
Flags: HW
AnchorPoint: "Anchor-2" 462 0 basechar 0
AnchorPoint: "Anchor-0" 464 1127 basechar 0
LayerCount: 2
Fore
SplineSet
65 155 m 1,0,-1
 496 928 l 1,1,-1
 102 928 l 1,2,-1
 102 1130 l 1,3,-1
 744 1130 l 1,4,-1
 744 972 l 1,5,-1
 325 199 l 1,6,-1
 675 199 l 2,7,8
 714 199 714 199 732.5 204 c 128,-1,9
 751 209 751 209 765 223 c 1,10,-1
 786 223 l 1,11,-1
 786 0 l 1,12,-1
 65 0 l 1,13,-1
 65 155 l 1,0,-1
EndSplineSet
EndChar

StartChar: u.i
Encoding: 65539 -1 468
Width: 768
VWidth: 2430
GlyphClass: 2
Flags: HW
AnchorPoint: "Anchor-3" 568 0 basechar 0
AnchorPoint: "Anchor-2" 331 0 basechar 0
AnchorPoint: "Anchor-1" 647 1127 basechar 0
AnchorPoint: "Anchor-0" 350 1127 basechar 0
LayerCount: 2
Fore
SplineSet
297 -27 m 0,0,1
 219 -27 219 -27 161.5 17 c 128,-1,2
 104 61 104 61 74 171.5 c 0,3,4
 45.875 275.09375 45.875 275.09375 45.875 457.349609375 c 0,5,6
 45.875 469.5 45.875 469.5 46 482 c 2,7,-1
 49 1130 l 1,8,-1
 243 1130 l 1,9,-1
 243 464 l 2,10,11
 243 343 243 343 255 280.5 c 128,-1,12
 267 218 267 218 290 195 c 128,-1,13
 313 172 313 172 345 172 c 0,14,15
 403 172 403 172 438 251.5 c 128,-1,16
 473 331 473 331 473 484 c 2,17,-1
 473 1130 l 1,18,-1
 668 1130 l 1,19,-1
 668 174 l 2,20,21
 668 128 668 128 670.5 86 c 128,-1,22
 673 44 673 44 686 0 c 1,23,-1
 505 0 l 1,24,25
 486 56 486 56 486 129 c 1,26,27
 459 57 459 57 409.5 15 c 128,-1,28
 360 -27 360 -27 297 -27 c 0,0,1
EndSplineSet
EndChar

StartChar: r.serif
Encoding: 65540 -1 469
Width: 768
VWidth: 2430
GlyphClass: 1
Flags: HW
LayerCount: 2
Fore
SplineSet
90 -2 m 1,0,-1
 90 197 l 1,1,-1
 180 197 l 1,2,-1
 180 933 l 1,3,-1
 95 933 l 1,4,-1
 95 1130 l 1,5,-1
 396 1130 l 1,6,-1
 396 965 l 1,7,8
 430 1050 430 1050 492 1103.5 c 128,-1,9
 554 1157 554 1157 622 1157 c 0,10,11
 743 1157 743 1157 823 1035 c 1,12,-1
 751 823 l 1,13,14
 732 828 732 828 724.5 847.5 c 128,-1,15
 717 867 717 867 705 890.5 c 128,-1,16
 693 914 693 914 668.5 931 c 128,-1,17
 644 948 644 948 593 948 c 0,18,19
 518 948 518 948 456 853 c 128,-1,20
 394 758 394 758 394 600 c 2,21,-1
 394 197 l 1,22,-1
 520 197 l 1,23,-1
 520 -2 l 1,24,-1
 90 -2 l 1,0,-1
EndSplineSet
EndChar

StartChar: ordfeminine
Encoding: 170 170 470
Width: 768
VWidth: 2430
GlyphClass: 1
Flags: HW
LayerCount: 2
Fore
SplineSet
112 533 m 1,0,-1
 742 533 l 1,1,-1
 742 338 l 1,2,-1
 112 338 l 1,3,-1
 112 533 l 1,0,-1
323 911 m 0,4,5
 323 860 323 860 343.5 825 c 128,-1,6
 364 790 364 790 399 790 c 0,7,8
 455 790 455 790 480 847 c 128,-1,9
 505 904 505 904 508 1045 c 1,10,11
 494 1045 494 1045 473 1045 c 0,12,13
 392 1045 392 1045 357.5 1012 c 128,-1,14
 323 979 323 979 323 911 c 0,4,5
355 629 m 0,15,16
 258 629 258 629 205.5 702 c 128,-1,17
 153 775 153 775 153 884 c 0,18,19
 153 1044 153 1044 238 1123.5 c 128,-1,20
 323 1203 323 1203 471 1203 c 0,21,22
 485 1203 485 1203 505 1203 c 1,23,24
 500 1319 500 1319 475 1353 c 128,-1,25
 450 1387 450 1387 403 1387 c 0,26,27
 361 1387 361 1387 331 1371.5 c 128,-1,28
 301 1356 301 1356 269 1315 c 1,29,-1
 180 1426 l 1,30,31
 224 1479 224 1479 283.5 1511 c 128,-1,32
 343 1543 343 1543 422 1543 c 0,33,34
 505 1543 505 1543 562 1510 c 128,-1,35
 619 1477 619 1477 649.5 1386.5 c 128,-1,36
 680 1296 680 1296 680 1122 c 2,37,-1
 680 649 l 1,38,-1
 508 649 l 1,39,-1
 508 726 l 1,40,41
 481 670 481 670 443.5 649.5 c 128,-1,42
 406 629 406 629 355 629 c 0,15,16
EndSplineSet
EndChar

StartChar: ordmasculine
Encoding: 186 186 471
Width: 768
VWidth: 2430
GlyphClass: 1
Flags: HW
LayerCount: 2
Fore
SplineSet
112 533 m 1,0,-1
 742 533 l 1,1,-1
 742 338 l 1,2,-1
 112 338 l 1,3,-1
 112 533 l 1,0,-1
425 797 m 128,-1,5
 534 797 534 797 535 1081 c 0,6,7
 535 1236 535 1236 508.5 1307 c 128,-1,8
 482 1378 482 1378 425 1378 c 0,9,10
 374 1378 374 1378 345 1307 c 128,-1,11
 316 1236 316 1236 316 1081 c 0,12,4
 316 797 316 797 425 797 c 128,-1,5
425 631 m 128,-1,14
 302 631 302 631 223 734 c 128,-1,15
 144 837 144 837 144 1079 c 0,16,17
 144 1332 144 1332 222.5 1437.5 c 128,-1,18
 301 1543 301 1543 425 1543 c 0,19,20
 548 1543 548 1543 627.5 1437 c 128,-1,21
 707 1331 707 1331 707 1079 c 0,22,23
 707 838 707 838 627.5 734.5 c 128,-1,13
 548 631 548 631 425 631 c 128,-1,14
EndSplineSet
EndChar

StartChar: uni2124
Encoding: 8484 8484 473
Width: 768
VWidth: 2430
GlyphClass: 1
Flags: HW
LayerCount: 2
Fore
SplineSet
659 1351 m 1,0,-1
 566 1351 l 1,1,-1
 216 160 l 1,2,-1
 311 160 l 1,3,-1
 659 1351 l 1,0,-1
790 1514 m 1,4,-1
 790 1351 l 1,5,-1
 435 160 l 1,6,-1
 678 160 l 2,7,8
 720 160 720 160 736.5 163.5 c 128,-1,9
 753 167 753 167 768 183 c 1,10,-1
 788 183 l 1,11,-1
 788 0 l 1,12,-1
 85 0 l 1,13,-1
 85 163 l 1,14,-1
 440 1351 l 1,15,-1
 88 1351 l 1,16,-1
 88 1514 l 1,17,-1
 790 1514 l 1,4,-1
EndSplineSet
EndChar

StartChar: zero
Encoding: 48 48 474
Width: 768
VWidth: 2430
GlyphClass: 1
Flags: HW
LayerCount: 2
Fore
SplineSet
425 172 m 0,0,1
 506 172 506 172 543 311 c 128,-1,2
 580 450 580 450 580 749 c 0,3,4
 580 819 580 819 580 879 c 1,5,-1
 290 396 l 1,6,7
 328 172 328 172 425 172 c 0,0,1
267 749 m 0,8,9
 267 668 267 668 269 603 c 1,10,-1
 559 1103 l 1,11,12
 522 1324 522 1324 425 1324 c 0,13,14
 267 1324 267 1324 267 749 c 0,8,9
425 -27 m 128,-1,16
 262 -27 262 -27 162.5 157 c 128,-1,17
 63 341 63 341 63 749 c 0,18,19
 63 1150 63 1150 162.5 1339 c 128,-1,20
 262 1528 262 1528 425 1528 c 128,-1,21
 588 1528 588 1528 688 1339 c 128,-1,22
 788 1150 788 1150 788 749 c 0,23,24
 788 338 788 338 688 155.5 c 128,-1,15
 588 -27 588 -27 425 -27 c 128,-1,16
EndSplineSet
Substitution2: "'ss02' Style Set 2 in Latin lookup 36 subtable" zero.ss02
Substitution2: "'zero' Slashed Zero in Latin lookup 33 subtable" zero.zero
Substitution2: "'frac' Diagonal Fractions in Latin lookup 24 subtable" zero.numr
Substitution2: "'dnom' Denominators in Latin lookup 22 subtable" zero.dnom
Substitution2: "'numr' Numerators in Latin lookup 21 subtable" zero.numr
Substitution2: "'sups' Superscript in Latin lookup 20 subtable" uni2070
Substitution2: "'subs' Subscript in Latin lookup 19 subtable" uni2080
AlternateSubs2: "'aalt' Access All Alternates in Latin lookup 1 subtable" zero.zero zero.ss02 uni2080 zero.dnom zero.numr uni2070
EndChar

StartChar: one
Encoding: 49 49 475
Width: 768
VWidth: 2430
GlyphClass: 1
Flags: HW
LayerCount: 2
Fore
SplineSet
343 0 m 1,0,-1
 343 1220 l 1,1,-1
 160 1127 l 1,2,-1
 119 1305 l 1,3,-1
 406 1516 l 1,4,-1
 556 1516 l 1,5,-1
 556 0 l 1,6,-1
 343 0 l 1,0,-1
EndSplineSet
Substitution2: "'frac' Diagonal Fractions in Latin lookup 24 subtable" one.numr
Substitution2: "'dnom' Denominators in Latin lookup 22 subtable" one.dnom
Substitution2: "'numr' Numerators in Latin lookup 21 subtable" one.numr
Substitution2: "'sups' Superscript in Latin lookup 20 subtable" uni00B9
Substitution2: "'subs' Subscript in Latin lookup 19 subtable" uni2081
AlternateSubs2: "'aalt' Access All Alternates in Latin lookup 1 subtable" uni2081 one.dnom one.numr uni00B9
EndChar

StartChar: two
Encoding: 50 50 476
Width: 768
VWidth: 2430
GlyphClass: 1
Flags: HW
LayerCount: 2
Fore
SplineSet
102 170 m 1,0,1
 216 342 216 342 300 471 c 128,-1,2
 384 600 384 600 440 704.5 c 128,-1,3
 496 809 496 809 522.5 903 c 128,-1,4
 549 997 549 997 552 1096 c 0,5,6
 552.111111111 1101.94444444 552.111111111 1101.94444444 552.111111111 1107.74228395 c 0,0,0
 552.111111111 1206.30555556 552.111111111 1206.30555556 520 1262.5 c 128,-1,7
 486 1322 486 1322 425 1322 c 0,8,9
 381 1322 381 1322 346 1303.5 c 128,-1,10
 311 1285 311 1285 280 1239 c 1,11,12
 263 1205 263 1205 259 1188 c 128,-1,13
 255 1171 255 1171 260 1152 c 1,14,-1
 250 1134 l 1,15,-1
 231 1145 l 1,16,-1
 72 1225 l 1,17,18
 125 1366 125 1366 213 1447 c 128,-1,19
 301 1528 301 1528 433 1528 c 0,20,21
 581 1528 581 1528 671 1416.5 c 128,-1,22
 761 1305 761 1305 761 1094 c 0,23,24
 761 939 761 939 712 803.5 c 128,-1,25
 663 668 663 668 577 526 c 128,-1,26
 491 384 491 384 374 204 c 1,27,-1
 656 204 l 2,28,29
 695 204 695 204 713 209 c 128,-1,30
 731 214 731 214 746 229 c 1,31,-1
 765 229 l 1,32,-1
 765 0 l 1,33,-1
 102 0 l 1,34,-1
 102 170 l 1,0,1
EndSplineSet
Substitution2: "'frac' Diagonal Fractions in Latin lookup 24 subtable" two.numr
Substitution2: "'dnom' Denominators in Latin lookup 22 subtable" two.dnom
Substitution2: "'numr' Numerators in Latin lookup 21 subtable" two.numr
Substitution2: "'sups' Superscript in Latin lookup 20 subtable" uni00B2
Substitution2: "'subs' Subscript in Latin lookup 19 subtable" uni2082
AlternateSubs2: "'aalt' Access All Alternates in Latin lookup 1 subtable" uni2082 two.dnom two.numr uni00B2
EndChar

StartChar: three
Encoding: 51 51 477
Width: 768
VWidth: 2430
GlyphClass: 1
Flags: HW
LayerCount: 2
Fore
SplineSet
403 -27 m 0,0,1
 299 -27 299 -27 212.5 24 c 128,-1,2
 126 75 126 75 72 165 c 1,3,-1
 199 294 l 1,4,-1
 216 309 l 1,5,-1
 229 297 l 1,6,7
 229 280 229 280 233.5 263 c 128,-1,8
 238 246 238 246 260 216 c 1,9,10
 313 163 313 163 389 163 c 0,11,12
 461 163 461 163 503 227.5 c 128,-1,13
 545 292 545 292 545 425 c 0,14,15
 545 590 545 590 479 651 c 128,-1,16
 428.675 697.5125 428.675 697.5125 339.39578125 697.5125 c 0,0,0
 311.5875 697.5125 311.5875 697.5125 280 693 c 1,17,-1
 280 882 l 1,18,19
 285.666666667 881.888888889 285.666666667 881.888888889 291.172839506 881.888888889 c 0,0,0
 384.777777778 881.888888889 384.777777778 881.888888889 432 914 c 128,-1,20
 482 948 482 948 498.5 1007.5 c 128,-1,21
 515 1067 515 1067 515 1140 c 0,22,23
 515 1235 515 1235 483.5 1286.5 c 128,-1,24
 452 1338 452 1338 396 1338 c 0,25,26
 306 1338 306 1338 241 1227 c 1,27,-1
 100 1334 l 1,28,29
 156 1431 156 1431 237 1479.5 c 128,-1,30
 318 1528 318 1528 408 1528 c 0,31,32
 544 1528 544 1528 632.5 1431 c 128,-1,33
 721 1334 721 1334 721 1147 c 0,34,35
 721 1026 721 1026 680.5 936 c 128,-1,36
 640 846 640 846 564 807 c 1,37,38
 647 763 647 763 701.5 669 c 128,-1,39
 756 575 756 575 756 418 c 0,40,41
 756 212 756 212 659.5 92.5 c 128,-1,42
 563 -27 563 -27 403 -27 c 0,0,1
EndSplineSet
Substitution2: "'frac' Diagonal Fractions in Latin lookup 24 subtable" three.numr
Substitution2: "'dnom' Denominators in Latin lookup 22 subtable" three.dnom
Substitution2: "'numr' Numerators in Latin lookup 21 subtable" three.numr
Substitution2: "'sups' Superscript in Latin lookup 20 subtable" uni00B3
Substitution2: "'subs' Subscript in Latin lookup 19 subtable" uni2083
AlternateSubs2: "'aalt' Access All Alternates in Latin lookup 1 subtable" uni2083 three.dnom three.numr uni00B3
EndChar

StartChar: four
Encoding: 52 52 478
Width: 768
VWidth: 2430
GlyphClass: 1
Flags: HW
LayerCount: 2
Fore
SplineSet
283 556 m 1,0,-1
 498 556 l 1,1,-1
 498 1025 l 1,2,-1
 283 556 l 1,0,-1
495 0 m 1,3,-1
 495 355 l 1,4,-1
 80 355 l 1,5,-1
 80 529 l 1,6,-1
 546 1516 l 1,7,-1
 703 1516 l 1,8,-1
 703 556 l 1,9,-1
 816 556 l 1,10,-1
 816 352 l 1,11,-1
 703 352 l 1,12,-1
 703 0 l 1,13,-1
 495 0 l 1,3,-1
EndSplineSet
Substitution2: "'frac' Diagonal Fractions in Latin lookup 24 subtable" four.numr
Substitution2: "'dnom' Denominators in Latin lookup 22 subtable" four.dnom
Substitution2: "'numr' Numerators in Latin lookup 21 subtable" four.numr
Substitution2: "'sups' Superscript in Latin lookup 20 subtable" uni2074
Substitution2: "'subs' Subscript in Latin lookup 19 subtable" uni2084
AlternateSubs2: "'aalt' Access All Alternates in Latin lookup 1 subtable" uni2084 four.dnom four.numr uni2074
EndChar

StartChar: five
Encoding: 53 53 479
Width: 768
VWidth: 2430
GlyphClass: 1
Flags: HW
LayerCount: 2
Fore
SplineSet
427 -27 m 0,0,1
 315 -27 315 -27 225.5 28 c 128,-1,2
 136 83 136 83 83 204 c 1,3,-1
 236 313 l 1,4,-1
 253 325 l 1,5,-1
 262 311 l 1,6,7
 260 294 260 294 263.5 278 c 128,-1,8
 267 262 267 262 287 231 c 1,9,10
 338 173 338 173 418 172 c 0,11,12
 490 172 490 172 531.5 257.5 c 128,-1,13
 573 343 573 343 573 482 c 0,14,15
 573 640 573 640 534.5 723.5 c 128,-1,16
 496 807 496 807 422 807 c 0,17,18
 327 807 327 807 265 698 c 1,19,-1
 132 729 l 1,20,-1
 165 1514 l 1,21,-1
 729 1514 l 1,22,-1
 729 1312 l 1,23,-1
 355 1312 l 1,24,-1
 341 941 l 1,25,26
 402 997 402 997 491 997 c 0,27,28
 625 997 625 997 703.5 870.5 c 128,-1,29
 782 744 782 744 782 486 c 0,30,31
 782 236 782 236 684.5 104.5 c 128,-1,32
 587 -27 587 -27 427 -27 c 0,0,1
EndSplineSet
Substitution2: "'frac' Diagonal Fractions in Latin lookup 24 subtable" five.numr
Substitution2: "'dnom' Denominators in Latin lookup 22 subtable" five.dnom
Substitution2: "'numr' Numerators in Latin lookup 21 subtable" five.numr
Substitution2: "'sups' Superscript in Latin lookup 20 subtable" uni2075
Substitution2: "'subs' Subscript in Latin lookup 19 subtable" uni2085
AlternateSubs2: "'aalt' Access All Alternates in Latin lookup 1 subtable" uni2085 five.dnom five.numr uni2075
EndChar

StartChar: six
Encoding: 54 54 480
Width: 768
VWidth: 2430
GlyphClass: 1
Flags: HW
LayerCount: 2
Fore
SplineSet
447 178 m 0,0,1
 500 178 500 178 534 252.5 c 128,-1,2
 568 327 568 327 568 489 c 0,3,4
 568 642 568 642 533 712 c 128,-1,5
 498 782 498 782 447 782 c 0,6,7
 398 782 398 782 364.5 744.5 c 128,-1,8
 331 707 331 707 306 644 c 1,9,10
 304.346938776 605.612244898 304.346938776 605.612244898 304.346938776 569.940233236 c 0,0,0
 304.346938776 411.397959184 304.346938776 411.397959184 337 306.5 c 128,-1,11
 377 178 377 178 447 178 c 0,0,1
445 -24 m 0,12,13
 273 -24 273 -24 181.5 156 c 128,-1,14
 90 336 90 336 90 693 c 0,15,16
 90 1118 90 1118 199.5 1325.5 c 128,-1,17
 309 1533 309 1533 496 1533 c 0,18,19
 574 1533 574 1533 644 1494.5 c 128,-1,20
 714 1456 714 1456 761 1378 c 1,21,-1
 651 1229 l 1,22,-1
 640 1213 l 1,23,-1
 624 1222 l 1,24,25
 622 1239 622 1239 616 1256 c 128,-1,26
 610 1273 610 1273 589 1298 c 1,27,28
 553.193548387 1327.03225806 553.193548387 1327.03225806 508.021852237 1327.03225806 c 0,0,0
 506.516129032 1327.03225806 506.516129032 1327.03225806 505 1327 c 0,29,30
 463 1327 463 1327 418.5 1294 c 128,-1,31
 374 1261 374 1261 341.5 1165 c 128,-1,32
 309 1069 309 1069 301 879 c 1,33,34
 373 983 373 983 491 984 c 0,35,36
 612 984 612 984 691 860.5 c 128,-1,37
 770 737 770 737 770 489 c 0,38,39
 770 255 770 255 684 115.5 c 128,-1,40
 598 -24 598 -24 445 -24 c 0,12,13
EndSplineSet
Substitution2: "'frac' Diagonal Fractions in Latin lookup 24 subtable" six.numr
Substitution2: "'dnom' Denominators in Latin lookup 22 subtable" six.dnom
Substitution2: "'numr' Numerators in Latin lookup 21 subtable" six.numr
Substitution2: "'sups' Superscript in Latin lookup 20 subtable" uni2076
Substitution2: "'subs' Subscript in Latin lookup 19 subtable" uni2086
AlternateSubs2: "'aalt' Access All Alternates in Latin lookup 1 subtable" uni2086 six.dnom six.numr uni2076
EndChar

StartChar: seven
Encoding: 55 55 481
Width: 768
VWidth: 2430
GlyphClass: 1
Flags: HW
LayerCount: 2
Fore
SplineSet
204 0 m 1,0,1
 279 343 279 343 349.5 660 c 128,-1,2
 420 977 420 977 510 1308 c 1,3,-1
 112 1308 l 1,4,-1
 112 1514 l 1,5,-1
 756 1514 l 1,6,-1
 756 1375 l 1,7,8
 656 1030 656 1030 579.5 696 c 128,-1,9
 503 362 503 362 430 0 c 1,10,-1
 204 0 l 1,0,1
EndSplineSet
Substitution2: "'frac' Diagonal Fractions in Latin lookup 24 subtable" seven.numr
Substitution2: "'dnom' Denominators in Latin lookup 22 subtable" seven.dnom
Substitution2: "'numr' Numerators in Latin lookup 21 subtable" seven.numr
Substitution2: "'sups' Superscript in Latin lookup 20 subtable" uni2077
Substitution2: "'subs' Subscript in Latin lookup 19 subtable" uni2087
AlternateSubs2: "'aalt' Access All Alternates in Latin lookup 1 subtable" uni2087 seven.dnom seven.numr uni2077
EndChar

StartChar: eight
Encoding: 56 56 482
Width: 768
VWidth: 2430
GlyphClass: 1
Flags: HW
LayerCount: 2
Fore
SplineSet
427 178 m 0,0,1
 568 178 568 178 568 401 c 0,2,3
 568 510 568 510 527 583 c 128,-1,4
 486 656 486 656 411 700 c 1,5,6
 353 658 353 658 319 586.5 c 128,-1,7
 285 515 285 515 285 408 c 0,8,9
 285 292 285 292 325.5 235 c 128,-1,10
 366 178 366 178 427 178 c 0,0,1
454 899 m 1,11,12
 500 941 500 941 521 1012 c 128,-1,13
 542 1083 542 1083 542 1159 c 0,14,15
 542 1237 542 1237 513 1285.5 c 128,-1,16
 484 1334 484 1334 430 1334 c 0,17,18
 377 1334 377 1334 351 1286.5 c 128,-1,19
 325 1239 325 1239 325 1166 c 0,20,21
 325 1066 325 1066 359 1005.5 c 128,-1,22
 393 945 393 945 454 899 c 1,11,12
425 -24 m 0,23,24
 265 -24 265 -24 171.5 89 c 128,-1,25
 78 202 78 202 78 384 c 0,26,27
 78 532 78 532 130.5 640.5 c 128,-1,28
 183 749 183 749 274 814 c 1,29,30
 126 935 126 935 126 1157 c 0,31,32
 126 1324 126 1324 210 1429.5 c 128,-1,33
 294 1535 294 1535 435 1535 c 0,34,35
 583 1535 583 1535 661 1433 c 128,-1,36
 739 1331 739 1331 739 1171 c 0,37,38
 739 1057 739 1057 704.5 960 c 128,-1,39
 670 863 670 863 600 802 c 1,40,41
 774 670 774 670 775 394 c 0,42,43
 775 202 775 202 681.5 89 c 128,-1,44
 588 -24 588 -24 425 -24 c 0,23,24
EndSplineSet
Substitution2: "'frac' Diagonal Fractions in Latin lookup 24 subtable" eight.numr
Substitution2: "'dnom' Denominators in Latin lookup 22 subtable" eight.dnom
Substitution2: "'numr' Numerators in Latin lookup 21 subtable" eight.numr
Substitution2: "'sups' Superscript in Latin lookup 20 subtable" uni2078
Substitution2: "'subs' Subscript in Latin lookup 19 subtable" uni2088
AlternateSubs2: "'aalt' Access All Alternates in Latin lookup 1 subtable" uni2088 eight.dnom eight.numr uni2078
EndChar

StartChar: nine
Encoding: 57 57 483
Width: 768
VWidth: 2430
GlyphClass: 1
Flags: HW
LayerCount: 2
Fore
SplineSet
287 1025 m 0,0,1
 287 886 287 886 327 816 c 128,-1,2
 367 746 367 746 430 746 c 0,3,4
 518 746 518 746 566 802 c 1,5,6
 566 1006 566 1006 550.5 1120 c 128,-1,7
 535 1234 535 1234 503 1281.5 c 128,-1,8
 471 1329 471 1329 422 1329 c 0,9,10
 359 1329 359 1329 323 1257 c 128,-1,11
 287 1185 287 1185 287 1025 c 0,0,1
384 -24 m 0,12,13
 197 -24 197 -24 90 119 c 1,14,-1
 195 276 l 1,15,-1
 209 297 l 1,16,-1
 223 290 l 1,17,18
 228 271 228 271 234.5 252.5 c 128,-1,19
 241 234 241 234 265 206 c 1,20,21
 311 174 311 174 369 174 c 0,22,23
 457 174 457 174 502 296 c 128,-1,24
 547 418 547 418 559 600 c 1,25,26
 498 549 498 549 413 549 c 0,27,28
 277 549 277 549 181 673 c 128,-1,29
 85 797 85 797 85 1028 c 0,30,31
 85 1271 85 1271 183.5 1399.5 c 128,-1,32
 282 1528 282 1528 422 1528 c 0,33,34
 600 1528 600 1528 682.5 1363 c 128,-1,35
 765 1198 765 1198 765 863 c 0,36,37
 765 399 765 399 669.5 188.5 c 128,-1,38
 574 -22 574 -22 384 -24 c 0,12,13
EndSplineSet
Substitution2: "'frac' Diagonal Fractions in Latin lookup 24 subtable" nine.numr
Substitution2: "'dnom' Denominators in Latin lookup 22 subtable" nine.dnom
Substitution2: "'numr' Numerators in Latin lookup 21 subtable" nine.numr
Substitution2: "'sups' Superscript in Latin lookup 20 subtable" uni2079
Substitution2: "'subs' Subscript in Latin lookup 19 subtable" uni2089
AlternateSubs2: "'aalt' Access All Alternates in Latin lookup 1 subtable" uni2089 nine.dnom nine.numr uni2079
EndChar

StartChar: zero.zero
Encoding: 65541 -1 484
Width: 768
VWidth: 2430
GlyphClass: 1
Flags: HW
LayerCount: 2
Fore
SplineSet
425 654 m 128,-1,1
 379 654 379 654 346 686.5 c 128,-1,2
 313 719 313 719 313 768 c 0,3,4
 313 814 313 814 346 848 c 128,-1,5
 379 882 379 882 425 882 c 128,-1,6
 471 882 471 882 504.5 848 c 128,-1,7
 538 814 538 814 538 768 c 128,-1,8
 538 722 538 722 504.5 688 c 128,-1,0
 471 654 471 654 425 654 c 128,-1,1
425 172 m 0,9,10
 506 172 506 172 543 311 c 128,-1,11
 580 450 580 450 580 749 c 0,12,13
 580 1324 580 1324 425 1324 c 0,14,15
 267 1324 267 1324 267 749 c 0,16,17
 267 450 267 450 308.5 311 c 128,-1,18
 350 172 350 172 425 172 c 0,9,10
425 -27 m 128,-1,20
 262 -27 262 -27 162.5 157 c 128,-1,21
 63 341 63 341 63 749 c 0,22,23
 63 1150 63 1150 162.5 1339 c 128,-1,24
 262 1528 262 1528 425 1528 c 128,-1,25
 588 1528 588 1528 688 1339 c 128,-1,26
 788 1150 788 1150 788 749 c 0,27,28
 788 338 788 338 688 155.5 c 128,-1,19
 588 -27 588 -27 425 -27 c 128,-1,20
EndSplineSet
EndChar

StartChar: zero.ss02
Encoding: 65542 -1 485
Width: 768
VWidth: 2430
GlyphClass: 1
Flags: HW
LayerCount: 2
Fore
SplineSet
425 172 m 0,0,1
 506 172 506 172 543 311 c 128,-1,2
 580 450 580 450 580 749 c 0,3,4
 580 1324 580 1324 425 1324 c 0,5,6
 267 1324 267 1324 267 749 c 0,7,8
 267 450 267 450 308.5 311 c 128,-1,9
 350 172 350 172 425 172 c 0,0,1
425 -27 m 128,-1,11
 262 -27 262 -27 162.5 157 c 128,-1,12
 63 341 63 341 63 749 c 0,13,14
 63 1150 63 1150 162.5 1339 c 128,-1,15
 262 1528 262 1528 425 1528 c 128,-1,16
 588 1528 588 1528 688 1339 c 128,-1,17
 788 1150 788 1150 788 749 c 0,18,19
 788 338 788 338 688 155.5 c 128,-1,10
 588 -27 588 -27 425 -27 c 128,-1,11
EndSplineSet
EndChar

StartChar: uni2070
Encoding: 8304 8304 516
Width: 768
VWidth: 2430
GlyphClass: 1
Flags: HW
LayerCount: 2
Fore
SplineSet
425 719 m 0,0,1
 481 719 481 719 505 801.5 c 128,-1,2
 529 884 529 884 529 1062 c 0,3,4
 529 1101 529 1101 529 1134 c 1,5,-1
 336 848 l 1,6,7
 360 719 360 719 425 719 c 0,0,1
320 1062 m 0,8,9
 320 1020 320 1020 320 986 c 1,10,-1
 515 1283 l 1,11,12
 488 1404 488 1404 425 1405 c 0,13,14
 320 1405 320 1405 320 1062 c 0,8,9
425 580 m 128,-1,16
 313 580 313 580 243.5 694.5 c 128,-1,17
 174 809 174 809 174 1062 c 0,18,19
 174 1312 174 1312 243.5 1429 c 128,-1,20
 313 1546 313 1546 425 1546 c 128,-1,21
 537 1546 537 1546 606 1429 c 128,-1,22
 675 1312 675 1312 675 1062 c 0,23,24
 675 807 675 807 606 693.5 c 128,-1,15
 537 580 537 580 425 580 c 128,-1,16
EndSplineSet
Substitution2: "'ss02' Style Set 2 in Latin lookup 36 subtable" uni2070.ss02
Substitution2: "'zero' Slashed Zero in Latin lookup 33 subtable" uni2070.zero
AlternateSubs2: "'aalt' Access All Alternates in Latin lookup 1 subtable" uni2070.ss02 uni2070.zero
EndChar

StartChar: uni00B9
Encoding: 185 185 517
Width: 768
VWidth: 2430
GlyphClass: 1
Flags: HW
LayerCount: 2
Fore
SplineSet
364 598 m 1,0,-1
 364 1338 l 1,1,-1
 246 1278 l 1,2,-1
 214 1407 l 1,3,-1
 408 1538 l 1,4,-1
 520 1538 l 1,5,-1
 520 598 l 1,6,-1
 364 598 l 1,0,-1
EndSplineSet
EndChar

StartChar: uni00B2
Encoding: 178 178 518
Width: 768
VWidth: 2430
GlyphClass: 1
Flags: HW
LayerCount: 2
Fore
SplineSet
199 712 m 1,0,1
 306 858 306 858 373 953 c 128,-1,2
 440 1048 440 1048 472.5 1122 c 128,-1,3
 505 1196 505 1196 508 1278 c 0,4,5
 508 1331 508 1331 487 1367 c 128,-1,6
 466 1403 466 1403 422 1403 c 0,7,8
 380 1403 380 1403 357 1385 c 1,9,10
 333 1353 333 1353 326.5 1336 c 128,-1,11
 320 1319 320 1319 320 1300 c 1,12,-1
 309 1285 l 1,13,-1
 292 1300 l 1,14,-1
 180 1361 l 1,15,16
 219 1449 219 1449 278.5 1497.5 c 128,-1,17
 338 1546 338 1546 430 1546 c 0,18,19
 530 1546 530 1546 593 1476.5 c 128,-1,20
 656 1407 656 1407 656 1276 c 0,21,22
 656 1181 656 1181 627 1102 c 128,-1,23
 598 1023 598 1023 542 938 c 128,-1,24
 486 853 486 853 408 742 c 1,25,-1
 552 742 l 2,26,27
 591 742 591 742 609 746.5 c 128,-1,28
 627 751 627 751 642 763 c 1,29,-1
 661 763 l 1,30,-1
 661 598 l 1,31,-1
 199 598 l 1,32,-1
 199 712 l 1,0,1
EndSplineSet
EndChar

StartChar: uni00B3
Encoding: 179 179 519
Width: 768
VWidth: 2430
GlyphClass: 1
Flags: HW
LayerCount: 2
Fore
SplineSet
408 580 m 0,0,1
 257 580 257 580 180 700 c 1,2,-1
 267 790 l 1,3,-1
 285 807 l 1,4,-1
 297 795 l 1,5,6
 297 776 297 776 305 762.5 c 128,-1,7
 313 749 313 749 341 724 c 1,8,9
 368 715 368 715 399 714 c 0,10,11
 448 714 448 714 475.5 750 c 128,-1,12
 503 786 503 786 503 863 c 0,13,14
 503 963 503 963 459 996.5 c 0,15,16
 426.604395604 1021.16483516 426.604395604 1021.16483516 368.188745321 1021.16483516 c 0,17,18
 347.263736264 1021.16483516 347.263736264 1021.16483516 323 1018 c 1,19,-1
 323 1152 l 1,20,21
 327.636363636 1151.90909091 327.636363636 1151.90909091 332.122933884 1151.90909091 c 0,22,23
 426.340909091 1151.90909091 426.340909091 1151.90909091 454.5 1192 c 0,24,25
 484 1234 484 1234 484 1300 c 0,26,27
 484 1353 484 1353 463.5 1383.5 c 128,-1,28
 443 1414 443 1414 403 1414 c 0,29,30
 340 1414 340 1414 297 1347 c 1,31,-1
 197 1426 l 1,32,33
 236 1487 236 1487 293 1516.5 c 128,-1,34
 350 1546 350 1546 411 1546 c 0,35,36
 506 1546 506 1546 568.5 1486 c 128,-1,37
 631 1426 631 1426 631 1310 c 0,38,39
 631 1232 631 1232 603 1177 c 128,-1,40
 575 1122 575 1122 527 1099 c 1,41,42
 580 1072 580 1072 617 1013.5 c 128,-1,43
 654 955 654 955 654 858 c 0,44,45
 654 726 654 726 587 653 c 128,-1,46
 520 580 520 580 408 580 c 0,0,1
EndSplineSet
EndChar

StartChar: uni2074
Encoding: 8308 8308 520
Width: 768
VWidth: 2430
GlyphClass: 1
Flags: HW
LayerCount: 2
Fore
SplineSet
333 953 m 1,0,-1
 469 953 l 1,1,-1
 469 1213 l 1,2,-1
 333 953 l 1,0,-1
466 598 m 1,3,-1
 466 812 l 1,4,-1
 185 812 l 1,5,-1
 185 933 l 1,6,-1
 503 1538 l 1,7,-1
 615 1538 l 1,8,-1
 615 955 l 1,9,-1
 695 955 l 1,10,-1
 695 812 l 1,11,-1
 615 812 l 1,12,-1
 615 598 l 1,13,-1
 466 598 l 1,3,-1
EndSplineSet
EndChar

StartChar: uni2075
Encoding: 8309 8309 521
Width: 768
VWidth: 2430
GlyphClass: 1
Flags: HW
LayerCount: 2
Fore
SplineSet
427 580 m 0,0,1
 349 580 349 580 287 614.5 c 128,-1,2
 225 649 225 649 190 726 c 1,3,-1
 297 804 l 1,4,-1
 313 816 l 1,5,-1
 323 802 l 1,6,7
 321 785 321 785 329.5 771.5 c 128,-1,8
 338 758 338 758 362 731 c 1,9,10
 389 722 389 722 418 721 c 0,11,12
 469 721 469 721 495.5 770 c 128,-1,13
 522 819 522 819 522 897 c 0,14,15
 522 1086.0052356 522 1086.0052356 423.044379266 1086.0052356 c 0,16,17
 422.523560209 1086.0052356 422.523560209 1086.0052356 422 1086 c 0,18,19
 359 1086 359 1086 320 1023 c 1,20,-1
 221 1045 l 1,21,-1
 246 1535 l 1,22,-1
 635 1535 l 1,23,-1
 635 1398 l 1,24,-1
 382 1398 l 1,25,-1
 371 1183 l 1,26,27
 413 1220 413 1220 473 1220 c 0,28,29
 563 1220 563 1220 618 1142 c 128,-1,30
 673 1064 673 1064 673 902 c 0,31,32
 673 747 673 747 606 663.5 c 128,-1,33
 539 580 539 580 427 580 c 0,0,1
EndSplineSet
EndChar

StartChar: uni2076
Encoding: 8310 8310 522
Width: 768
VWidth: 2430
GlyphClass: 1
Flags: HW
LayerCount: 2
Fore
SplineSet
440 724 m 0,0,1
 477 724 477 724 498.5 766.5 c 128,-1,2
 520 809 520 809 520 902 c 0,3,4
 520 992 520 992 496.5 1031.5 c 128,-1,5
 473 1071 473 1071 440 1071 c 0,6,7
 408 1071 408 1071 386 1050.5 c 128,-1,8
 364 1030 364 1030 348 997 c 1,9,10
 347.180327869 975.360655738 347.180327869 975.360655738 347.180327869 955.34721849 c 0,11,12
 347.180327869 853.278688525 347.180327869 853.278688525 368.5 793.5 c 0,13,14
 393.306122449 723.945578231 393.306122449 723.945578231 437.5117775 723.945578231 c 0,15,16
 438.74829932 723.945578231 438.74829932 723.945578231 440 724 c 0,0,1
438 584 m 0,17,18
 192 584 192 584 192 1025 c 0,19,20
 192 1290 192 1290 268.5 1420.5 c 128,-1,21
 345 1551 345 1551 471 1551 c 0,22,23
 524 1551 524 1551 574 1526.5 c 128,-1,24
 624 1502 624 1502 661 1451 c 1,25,-1
 580 1351 l 1,26,-1
 568 1334 l 1,27,-1
 554 1344 l 1,28,29
 552 1363 552 1363 542.5 1372.5 c 128,-1,30
 533 1382 533 1382 503 1405 c 0,31,32
 498 1405 498 1405 492 1405 c 128,-1,33
 486 1405 486 1405 482 1405 c 0,34,35
 455 1405 455 1405 424.5 1386.5 c 128,-1,36
 394 1368 394 1368 372 1312.5 c 128,-1,37
 350 1257 350 1257 345 1150 c 1,38,39
 390.258064516 1210.01612903 390.258064516 1210.01612903 466.49219563 1210.01612903 c 0,40,41
 467.741935484 1210.01612903 467.741935484 1210.01612903 469 1210 c 0,42,43
 557 1210 557 1210 610 1136 c 128,-1,44
 663 1062 663 1062 663 904 c 0,45,46
 663 758 663 758 604 671 c 128,-1,47
 545 584 545 584 438 584 c 0,17,18
EndSplineSet
EndChar

StartChar: uni2077
Encoding: 8311 8311 523
Width: 768
VWidth: 2430
GlyphClass: 1
Flags: HW
LayerCount: 2
Fore
SplineSet
269 598 m 1,0,1
 320 807 320 807 369 999 c 128,-1,2
 418 1191 418 1191 478 1389 c 1,3,-1
 206 1389 l 1,4,-1
 206 1535 l 1,5,-1
 654 1535 l 1,6,-1
 654 1436 l 1,7,8
 589 1225 589 1225 535.5 1023 c 128,-1,9
 482 821 482 821 430 598 c 1,10,-1
 269 598 l 1,0,1
EndSplineSet
EndChar

StartChar: uni2078
Encoding: 8312 8312 524
Width: 768
VWidth: 2430
GlyphClass: 1
Flags: HW
LayerCount: 2
Fore
SplineSet
427 724 m 0,0,1
 473 724 473 724 496.5 753 c 128,-1,2
 520 782 520 782 520 848 c 0,3,4
 520 913 520 913 491 956 c 128,-1,5
 462 999 462 999 411 1023 c 1,6,7
 374 999 374 999 353.5 957.5 c 128,-1,8
 333 916 333 916 333 853 c 0,9,10
 333 785 333 785 359 754.5 c 128,-1,11
 385 724 385 724 427 724 c 0,0,1
447 1159 m 1,12,13
 477 1180 477 1180 490 1224 c 128,-1,14
 503 1268 503 1268 503 1312 c 128,-1,15
 503 1356 503 1356 483.5 1383 c 128,-1,16
 464 1410 464 1410 427 1410 c 0,17,18
 393 1410 393 1410 376.5 1383 c 128,-1,19
 360 1356 360 1356 360 1317 c 0,20,21
 360 1259 360 1259 382.5 1221 c 128,-1,22
 405 1183 405 1183 447 1159 c 1,12,13
425 584 m 128,-1,24
 313 584 313 584 248 652.5 c 128,-1,25
 183 721 183 721 183 837 c 0,26,27
 183 932 183 932 218 997 c 128,-1,28
 253 1062 253 1062 313 1103 c 1,29,30
 218 1181 218 1181 218 1312 c 0,31,32
 218 1416 218 1416 277 1483.5 c 128,-1,33
 336 1551 336 1551 433 1551 c 0,34,35
 533 1551 533 1551 588.5 1486 c 128,-1,36
 644 1421 644 1421 644 1322 c 0,37,38
 644 1250 644 1250 622 1191 c 128,-1,39
 600 1132 600 1132 556 1094 c 1,40,41
 668 1013 668 1013 668 844 c 0,42,43
 668 725 668 725 602.5 654.5 c 128,-1,23
 537 584 537 584 425 584 c 128,-1,24
EndSplineSet
EndChar

StartChar: uni2079
Encoding: 8313 8313 525
Width: 768
VWidth: 2430
GlyphClass: 1
Flags: HW
LayerCount: 2
Fore
SplineSet
333 1229 m 0,0,1
 333 1069 333 1069 427 1069 c 0,2,3
 485 1069 485 1069 515 1101 c 1,4,5
 515 1284 515 1284 493 1345.5 c 128,-1,6
 471 1407 471 1407 422 1407 c 0,7,8
 380 1407 380 1407 356.5 1365.5 c 128,-1,9
 333 1324 333 1324 333 1229 c 0,0,1
396 584 m 0,10,11
 262 584 262 584 190 673 c 1,12,-1
 267 786 l 1,13,-1
 282 804 l 1,14,-1
 297 793 l 1,15,16
 299 774 299 774 309.5 761.5 c 128,-1,17
 320 749 320 749 350 726 c 1,18,19
 367 721 367 721 387 721 c 0,20,21
 440 721 440 721 470.5 787 c 128,-1,22
 501 853 501 853 510 962 c 1,23,24
 471 930 471 930 413 930 c 0,25,26
 320 930 320 930 255 1006.5 c 128,-1,27
 190 1083 190 1083 190 1232 c 0,28,29
 190 1385 190 1385 257.5 1465.5 c 128,-1,30
 325 1546 325 1546 425 1546 c 0,31,32
 546 1546 546 1546 603.5 1443.5 c 128,-1,33
 661 1341 661 1341 661 1127 c 0,34,35
 661 842 661 842 594.5 713 c 128,-1,36
 528 584 528 584 396 584 c 0,10,11
EndSplineSet
EndChar

StartChar: fraction
Encoding: 8260 8260 526
Width: 768
VWidth: 2430
GlyphClass: 1
Flags: HW
LayerCount: 2
Fore
SplineSet
209 -104 m 1,0,-1
 90 -42 l 1,1,-1
 629 1630 l 1,2,-1
 751 1563 l 1,3,-1
 209 -104 l 1,0,-1
EndSplineSet
EndChar

StartChar: onehalf
Encoding: 189 189 527
Width: 768
VWidth: 2430
GlyphClass: 1
Flags: HW
LayerCount: 2
Fore
SplineSet
416 -170 m 1,0,-1
 416 -72 l 1,1,2
 493 42 493 42 540 116 c 128,-1,3
 587 190 587 190 610 247 c 128,-1,4
 633 304 633 304 633 367 c 0,5,6
 633 404 633 404 620 429 c 128,-1,7
 607 454 607 454 579 454 c 0,8,9
 550 454 550 454 529 440.5 c 128,-1,10
 508 427 508 427 489 382 c 1,11,-1
 403 435 l 1,12,13
 432 500 432 500 474.5 540 c 128,-1,14
 517 580 517 580 583 580 c 0,15,16
 656 580 656 580 702.5 524.5 c 128,-1,17
 749 469 749 469 749 367 c 0,18,19
 749 292 749 292 729.5 231 c 128,-1,20
 710 170 710 170 673 106 c 128,-1,21
 636 42 636 42 581 -46 c 1,22,-1
 749 -46 l 1,23,-1
 749 -170 l 1,24,-1
 416 -170 l 1,0,-1
186 -104 m 1,25,-1
 79 -42 l 1,26,-1
 565 1630 l 1,27,-1
 675 1563 l 1,28,-1
 186 -104 l 1,25,-1
119 923 m 1,29,-1
 119 1497 l 1,30,-1
 38 1451 l 1,31,-1
 13 1563 l 1,32,-1
 151 1667 l 1,33,-1
 239 1667 l 1,34,-1
 239 923 l 1,35,-1
 119 923 l 1,29,-1
EndSplineSet
EndChar

StartChar: onequarter
Encoding: 188 188 528
Width: 768
VWidth: 2430
GlyphClass: 1
Flags: HW
LayerCount: 2
Fore
SplineSet
491 116 m 1,0,-1
 576 116 l 1,1,-1
 576 297 l 1,2,-1
 491 116 l 1,0,-1
574 -170 m 1,3,-1
 574 -5 l 1,4,-1
 379 -5 l 1,5,-1
 379 100 l 1,6,-1
 604 573 l 1,7,-1
 686 573 l 1,8,-1
 686 116 l 1,9,-1
 741 116 l 1,10,-1
 741 -5 l 1,11,-1
 686 -5 l 1,12,-1
 686 -170 l 1,13,-1
 574 -170 l 1,3,-1
177 -104 m 1,14,-1
 71 -42 l 1,15,-1
 551 1630 l 1,16,-1
 661 1563 l 1,17,-1
 177 -104 l 1,14,-1
110 923 m 1,18,-1
 110 1497 l 1,19,-1
 29 1451 l 1,20,-1
 5 1563 l 1,21,-1
 142 1667 l 1,22,-1
 228 1667 l 1,23,-1
 228 923 l 1,24,-1
 110 923 l 1,18,-1
EndSplineSet
EndChar

StartChar: threequarters
Encoding: 190 190 529
Width: 768
VWidth: 2430
GlyphClass: 1
Flags: HW
LayerCount: 2
Fore
SplineSet
556 116 m 1,0,-1
 556 297 l 1,1,-1
 474 116 l 1,2,-1
 556 116 l 1,0,-1
554 -5 m 1,3,-1
 366 -5 l 1,4,-1
 366 100 l 1,5,-1
 584 573 l 1,6,-1
 663 573 l 1,7,-1
 663 116 l 1,8,-1
 716 116 l 1,9,-1
 716 -5 l 1,10,-1
 663 -5 l 1,11,-1
 663 -170 l 1,12,-1
 554 -170 l 1,13,-1
 554 -5 l 1,3,-1
170 -104 m 1,14,-1
 68 -42 l 1,15,-1
 533 1630 l 1,16,-1
 638 1563 l 1,17,-1
 170 -104 l 1,14,-1
141 911 m 0,18,19
 35 911 35 911 -20 1004 c 1,20,-1
 40 1081 l 1,21,-1
 55 1096 l 1,22,-1
 66 1086 l 1,23,24
 62 1062 62 1062 93 1032 c 1,25,26
 109 1023 109 1023 133 1023 c 0,27,28
 163 1023 163 1023 180.5 1048.5 c 128,-1,29
 198 1074 198 1074 198 1132 c 0,30,31
 198 1210 198 1210 169.5 1235.5 c 128,-1,32
 148.434782609 1254.34782609 148.434782609 1254.34782609 109.61436673 1254.34782609 c 0,0,0
 95.9130434783 1254.34782609 95.9130434783 1254.34782609 80 1252 c 1,33,-1
 80 1366 l 1,34,35
 84.1212121212 1365.87878788 84.1212121212 1365.87878788 88.0661157025 1365.87878788 c 0,0,0
 149.212121212 1365.87878788 149.212121212 1365.87878788 168 1395 c 128,-1,36
 188 1426 188 1426 188 1475 c 0,37,38
 188 1560 188 1560 135 1560 c 0,39,40
 91 1560 91 1560 64 1509 c 1,41,-1
 -10 1577 l 1,42,43
 18 1626 18 1626 58.5 1650 c 128,-1,44
 99 1674 99 1674 141 1674 c 0,45,46
 205 1674 205 1674 250.5 1626.5 c 128,-1,47
 296 1579 296 1579 296 1484 c 0,48,49
 296 1423 296 1423 276 1380.5 c 128,-1,50
 256 1338 256 1338 227 1319 c 1,51,52
 261 1298 261 1298 286 1253 c 128,-1,53
 311 1208 311 1208 311 1127 c 0,54,55
 311 1025 311 1025 264 968 c 128,-1,56
 217 911 217 911 141 911 c 0,18,19
EndSplineSet
EndChar

StartChar: uni2070.ss02
Encoding: 65566 -1 533
Width: 768
VWidth: 2430
GlyphClass: 1
Flags: HW
LayerCount: 2
Fore
SplineSet
425 719 m 0,0,1
 481 719 481 719 505 801.5 c 128,-1,2
 529 884 529 884 529 1062 c 0,3,4
 529 1405 529 1405 425 1405 c 128,-1,5
 321 1405 321 1405 320 1062 c 0,6,7
 320 884 320 884 347 801.5 c 128,-1,8
 374 719 374 719 425 719 c 0,0,1
425 580 m 128,-1,10
 313 580 313 580 243.5 694.5 c 128,-1,11
 174 809 174 809 174 1062 c 0,12,13
 174 1312 174 1312 243.5 1429 c 128,-1,14
 313 1546 313 1546 425 1546 c 128,-1,15
 537 1546 537 1546 606 1429 c 128,-1,16
 675 1312 675 1312 675 1062 c 0,17,18
 675 807 675 807 606 693.5 c 128,-1,9
 537 580 537 580 425 580 c 128,-1,10
EndSplineSet
EndChar

StartChar: uni2070.zero
Encoding: 65570 -1 537
Width: 768
VWidth: 2430
GlyphClass: 1
Flags: HW
LayerCount: 2
Fore
SplineSet
430 1025 m 0,0,1
 400 1025 400 1025 381 1044.5 c 128,-1,2
 362 1064 362 1064 362 1094 c 128,-1,3
 362 1124 362 1124 381.5 1144 c 128,-1,4
 401 1164 401 1164 430 1164 c 0,5,6
 457 1164 457 1164 476.5 1143 c 128,-1,7
 496 1122 496 1122 496 1094 c 0,8,9
 496 1067 496 1067 476.5 1046 c 128,-1,10
 457 1025 457 1025 430 1025 c 0,0,1
425 719 m 0,11,12
 481 719 481 719 505 801.5 c 128,-1,13
 529 884 529 884 529 1062 c 0,14,15
 529 1405 529 1405 425 1405 c 128,-1,16
 321 1405 321 1405 320 1062 c 0,17,18
 320 884 320 884 347 801.5 c 128,-1,19
 374 719 374 719 425 719 c 0,11,12
425 580 m 128,-1,21
 313 580 313 580 243.5 694.5 c 128,-1,22
 174 809 174 809 174 1062 c 0,23,24
 174 1312 174 1312 243.5 1429 c 128,-1,25
 313 1546 313 1546 425 1546 c 128,-1,26
 537 1546 537 1546 606 1429 c 128,-1,27
 675 1312 675 1312 675 1062 c 0,28,29
 675 807 675 807 606 693.5 c 128,-1,20
 537 580 537 580 425 580 c 128,-1,21
EndSplineSet
EndChar

StartChar: period
Encoding: 46 46 538
Width: 768
VWidth: 2596
GlyphClass: 1
Flags: HW
LayerCount: 2
Fore
SplineSet
411 136 m 0,0,1
 350 136 350 136 307.5 180 c 128,-1,2
 265 224 265 224 265 287 c 0,3,4
 265 348 265 348 307.5 391.5 c 128,-1,5
 350 435 350 435 411 435 c 0,6,7
 469 435 469 435 511.5 392 c 128,-1,8
 554 349 554 349 554 287 c 0,9,10
 554 224 554 224 511.5 180 c 128,-1,11
 469 136 469 136 411 136 c 0,0,1
EndSplineSet
EndChar

StartChar: comma
Encoding: 44 44 539
Width: 768
VWidth: 2596
GlyphClass: 1
Flags: HW
LayerCount: 2
Fore
SplineSet
379 -245 m 1,0,-1
 253 -147 l 1,1,2
 306 -84 306 -84 337.5 -20.5 c 128,-1,3
 369 43 369 43 369 88 c 0,4,5
 369 122 369 122 350 150 c 128,-1,6
 331 178 331 178 310.5 211 c 128,-1,7
 290 244 290 244 290 292 c 0,8,9
 290 362 290 362 333 402 c 128,-1,10
 376 442 376 442 433 442 c 0,11,12
 498 442 498 442 543.5 393 c 128,-1,13
 589 344 589 344 589 247 c 0,14,15
 588 15 588 15 379 -245 c 1,0,-1
EndSplineSet
EndChar

StartChar: colon
Encoding: 58 58 540
Width: 768
VWidth: 2705
GlyphClass: 1
Flags: HW
LayerCount: 2
Fore
SplineSet
403 245 m 0,0,1
 342 245 342 245 299.5 289 c 128,-1,2
 257 333 257 333 257 394 c 128,-1,3
 257 455 257 455 301 501 c 128,-1,4
 345 547 345 547 403 547 c 128,-1,5
 461 547 461 547 506.5 502.5 c 128,-1,6
 552 458 552 458 552 394 c 0,7,8
 552 336 552 336 509 290.5 c 128,-1,9
 466 245 466 245 403 245 c 0,0,1
403 1014 m 0,10,11
 345 1014 345 1014 301 1058.5 c 128,-1,12
 257 1103 257 1103 257 1163 c 0,13,14
 257 1224 257 1224 301 1268 c 128,-1,15
 345 1312 345 1312 403 1312 c 128,-1,16
 461 1312 461 1312 506.5 1268.5 c 128,-1,17
 552 1225 552 1225 552 1163 c 0,18,19
 552 1105 552 1105 508 1059.5 c 128,-1,20
 464 1014 464 1014 403 1014 c 0,10,11
EndSplineSet
EndChar

StartChar: semicolon
Encoding: 59 59 541
Width: 768
VWidth: 2705
GlyphClass: 1
Flags: HW
LayerCount: 2
Fore
SplineSet
360 -136 m 1,0,-1
 236 -38 l 1,1,2
 289 25 289 25 320.5 88.5 c 128,-1,3
 352 152 352 152 352 197 c 0,4,5
 352 231 352 231 331.5 259 c 128,-1,6
 311 287 311 287 291.5 320 c 128,-1,7
 272 353 272 353 272 401 c 0,8,9
 272 471 272 471 316 511 c 128,-1,10
 360 551 360 551 415 551 c 0,11,12
 480 551 480 551 525.5 502 c 128,-1,13
 571 453 571 453 571 356 c 0,14,15
 571 124 571 124 360 -136 c 1,0,-1
403 1014 m 0,16,17
 345 1014 345 1014 301 1058.5 c 128,-1,18
 257 1103 257 1103 257 1163 c 0,19,20
 257 1224 257 1224 301 1268 c 128,-1,21
 345 1312 345 1312 403 1312 c 128,-1,22
 461 1312 461 1312 506.5 1268.5 c 128,-1,23
 552 1225 552 1225 552 1163 c 0,24,25
 552 1105 552 1105 508 1059.5 c 128,-1,26
 464 1014 464 1014 403 1014 c 0,16,17
EndSplineSet
EndChar

StartChar: ellipsis
Encoding: 8230 8230 542
Width: 768
VWidth: 2430
GlyphClass: 1
Flags: HW
LayerCount: 2
Fore
SplineSet
116 -24 m 0,0,1
 70 -24 70 -24 37 13.5 c 128,-1,2
 4 51 4 51 4 107 c 0,3,4
 4 160 4 160 37 198 c 128,-1,5
 70 236 70 236 116 236 c 0,6,7
 160 236 160 236 192 198 c 128,-1,8
 224 160 224 160 224 107 c 0,9,10
 224 51 224 51 192 13.5 c 128,-1,11
 160 -24 160 -24 116 -24 c 0,0,1
372 -24 m 0,12,13
 326 -24 326 -24 294 13.5 c 128,-1,14
 262 51 262 51 262 107 c 0,15,16
 262 160 262 160 294.5 198 c 128,-1,17
 327 236 327 236 372 236 c 0,18,19
 416 236 416 236 449 198 c 128,-1,20
 482 160 482 160 482 107 c 0,21,22
 482 51 482 51 449 13.5 c 128,-1,23
 416 -24 416 -24 372 -24 c 0,12,13
632 -24 m 128,-1,25
 586 -24 586 -24 554.5 13.5 c 128,-1,26
 523 51 523 51 523 107 c 0,27,28
 523 160 523 160 554.5 198 c 128,-1,29
 586 236 586 236 632 236 c 128,-1,30
 678 236 678 236 709 198 c 128,-1,31
 740 160 740 160 740 107 c 0,32,33
 740 51 740 51 709 13.5 c 128,-1,24
 678 -24 678 -24 632 -24 c 128,-1,25
EndSplineSet
EndChar

StartChar: exclam
Encoding: 33 33 543
Width: 768
VWidth: 2430
GlyphClass: 1
Flags: HW
LayerCount: 2
Fore
SplineSet
411 -27 m 128,-1,1
 350 -27 350 -27 306 17 c 128,-1,2
 262 61 262 61 262 121 c 0,3,4
 262 182 262 182 306 227 c 128,-1,5
 350 272 350 272 411 272 c 128,-1,6
 472 272 472 272 515.5 226 c 128,-1,7
 559 180 559 180 559 121 c 0,8,9
 559 60 559 60 515.5 16.5 c 128,-1,0
 472 -27 472 -27 411 -27 c 128,-1,1
336 486 m 1,10,-1
 276 1444 l 2,11,12
 275.897435897 1448.61538462 275.897435897 1448.61538462 275.897435897 1453.11505588 c 0,13,14
 275.897435897 1536.35897436 275.897435897 1536.35897436 311 1580 c 0,15,16
 348 1626 348 1626 406 1626 c 0,17,18
 462 1626 462 1626 501 1579.5 c 0,19,20
 538.097560976 1535.26829268 538.097560976 1535.26829268 538.097560976 1436.29506246 c 0,21,22
 538.097560976 1431.2195122 538.097560976 1431.2195122 538 1426 c 1,23,-1
 473 486 l 1,24,-1
 336 486 l 1,10,-1
EndSplineSet
EndChar

StartChar: question
Encoding: 63 63 545
Width: 768
VWidth: 2430
GlyphClass: 1
Flags: HW
LayerCount: 2
Fore
SplineSet
457 -30 m 0,0,1
 396 -30 396 -30 353.5 14 c 128,-1,2
 311 58 311 58 311 121 c 0,3,4
 311 182 311 182 353.5 225.5 c 128,-1,5
 396 269 396 269 457 269 c 0,6,7
 515 269 515 269 557.5 226 c 128,-1,8
 600 183 600 183 600 121 c 0,9,10
 600 58 600 58 557.5 14 c 128,-1,11
 515 -30 515 -30 457 -30 c 0,0,1
357 561 m 2,12,13
 357 665 357 665 379 736 c 128,-1,14
 401 807 401 807 431.5 860.5 c 128,-1,15
 462 914 462 914 493 962.5 c 128,-1,16
 524 1011 524 1011 546 1072.5 c 128,-1,17
 568 1134 568 1134 568 1227 c 0,18,19
 568 1317 568 1317 529.5 1369 c 128,-1,20
 491 1421 491 1421 427 1421 c 0,21,22
 346 1421 346 1421 290 1349 c 1,23,24
 271 1315 271 1315 265.5 1297.5 c 128,-1,25
 260 1280 260 1280 265 1261 c 1,26,-1
 255 1245 l 1,27,-1
 236 1257 l 1,28,-1
 102 1366 l 1,29,30
 158 1487 158 1487 244.5 1554 c 128,-1,31
 331 1621 331 1621 452 1621 c 0,32,33
 593 1621 593 1621 678 1516.5 c 128,-1,34
 763 1412 763 1412 763 1222 c 0,35,36
 763 1110 763 1110 741 1037.5 c 128,-1,37
 719 965 719 965 687.5 912.5 c 128,-1,38
 656 860 656 860 623.5 812.5 c 128,-1,39
 591 765 591 765 569 707 c 128,-1,40
 547 649 547 649 547 561 c 2,41,-1
 547 452 l 1,42,-1
 357 452 l 1,43,-1
 357 561 l 2,12,13
EndSplineSet
EndChar

StartChar: periodcentered
Encoding: 183 183 547
Width: 768
VWidth: 2430
GlyphClass: 1
Flags: HW
LayerCount: 2
Fore
SplineSet
411 663 m 128,-1,1
 350 663 350 663 307.5 707 c 128,-1,2
 265 751 265 751 265 812 c 128,-1,3
 265 873 265 873 307.5 916.5 c 128,-1,4
 350 960 350 960 411 960 c 0,5,6
 469 960 469 960 512.5 916 c 128,-1,7
 556 872 556 872 556 812 c 0,8,9
 556 751 556 751 514 707 c 128,-1,0
 472 663 472 663 411 663 c 128,-1,1
EndSplineSet
Substitution2: "Single Substitution lookup 11 subtable" periodcentered.loclCAT
Substitution2: "Single Substitution lookup 10 subtable" periodcentered.loclCAT
Substitution2: "'aalt' Access All Alternates in Latin lookup 0 subtable" periodcentered.loclCAT
EndChar

StartChar: bullet
Encoding: 8226 8226 548
Width: 768
VWidth: 2430
GlyphClass: 1
Flags: HW
LayerCount: 2
Fore
SplineSet
430 505 m 0,0,1
 342 505 342 505 281.5 568 c 128,-1,2
 221 631 221 631 221 717 c 0,3,4
 221 807 221 807 284.5 868.5 c 128,-1,5
 348 930 348 930 430 930 c 0,6,7
 515 930 515 930 577.5 867 c 128,-1,8
 640 804 640 804 640 717 c 0,9,10
 640 632 640 632 577.5 568.5 c 128,-1,11
 515 505 515 505 430 505 c 0,0,1
EndSplineSet
EndChar

StartChar: asterisk
Encoding: 42 42 549
Width: 768
VWidth: 2430
GlyphClass: 1
Flags: HW
LayerCount: 2
Fore
SplineSet
262 267 m 1,0,-1
 93 420 l 1,1,-1
 302 758 l 1,2,-1
 50 851 l 1,3,-1
 121 1089 l 1,4,-1
 343 930 l 1,5,-1
 307 1317 l 1,6,-1
 541 1317 l 1,7,-1
 498 930 l 1,8,-1
 719 1076 l 1,9,-1
 786 848 l 1,10,-1
 527 758 l 1,11,-1
 734 422 l 1,12,-1
 566 267 l 1,13,-1
 416 617 l 1,14,-1
 262 267 l 1,0,-1
EndSplineSet
Substitution2: "'ss01' Style Set 1 in Latin lookup 35 subtable" asterisk.ss01
Substitution2: "'salt' Stylistic Alternatives in Latin lookup 34 subtable" asterisk.ss01
Substitution2: "'aalt' Access All Alternates in Latin lookup 0 subtable" asterisk.ss01
EndChar

StartChar: uni2E12
Encoding: 11794 11794 550
Width: 768
VWidth: 2194
GlyphClass: 1
Flags: HW
LayerCount: 2
Fore
SplineSet
302 -246 m 1,0,-1
 302 -106 l 1,1,2
 349 -106 349 -106 375 -61.5 c 128,-1,3
 401 -17 401 -17 401 49 c 0,4,5
 401 113 401 113 376.5 160 c 128,-1,6
 352 207 352 207 302 207 c 1,7,-1
 302 343 l 1,8,9
 403 343 403 343 466 269.5 c 128,-1,10
 529 196 529 196 529 47 c 0,11,12
 529 -97 529 -97 466 -171.5 c 128,-1,13
 403 -246 403 -246 302 -246 c 1,0,-1
EndSplineSet
EndChar

StartChar: numbersign
Encoding: 35 35 551
Width: 768
VWidth: 2430
GlyphClass: 1
Flags: HW
LayerCount: 2
Fore
SplineSet
325 603 m 1,0,-1
 451 603 l 1,1,-1
 480 955 l 1,2,-1
 352 955 l 1,3,-1
 325 603 l 1,0,-1
405 21 m 1,4,-1
 441 433 l 1,5,-1
 314 433 l 1,6,-1
 280 34 l 1,7,-1
 125 32 l 1,8,-1
 157 427 l 1,9,-1
 32 427 l 1,10,-1
 39 598 l 1,11,-1
 169 598 l 1,12,-1
 198 953 l 1,13,-1
 54 953 l 1,14,-1
 59 1125 l 1,15,-1
 206 1125 l 1,16,-1
 239 1516 l 1,17,-1
 397 1521 l 1,18,-1
 364 1130 l 1,19,-1
 491 1130 l 1,20,-1
 523 1512 l 1,21,-1
 684 1514 l 1,22,-1
 653 1134 l 1,23,-1
 768 1134 l 1,24,-1
 755 960 l 1,25,-1
 644 960 l 1,26,-1
 612 610 l 1,27,-1
 742 610 l 1,28,-1
 732 440 l 1,29,-1
 603 440 l 1,30,-1
 568 34 l 1,31,-1
 405 21 l 1,4,-1
EndSplineSet
EndChar

StartChar: slash
Encoding: 47 47 552
Width: 768
VWidth: 2430
GlyphClass: 1
Flags: HW
LayerCount: 2
Fore
SplineSet
276 -102 m 1,0,-1
 78 -32 l 1,1,-1
 578 1618 l 1,2,-1
 777 1535 l 1,3,-1
 276 -102 l 1,0,-1
EndSplineSet
Substitution2: "'frac' Diagonal Fractions in Latin lookup 23 subtable" fraction
Substitution2: "'aalt' Access All Alternates in Latin lookup 0 subtable" fraction
EndChar

StartChar: backslash
Encoding: 92 92 553
Width: 768
VWidth: 2430
GlyphClass: 1
Flags: HW
LayerCount: 2
Fore
SplineSet
580 -104 m 1,0,-1
 78 1538 l 1,1,-1
 276 1616 l 1,2,-1
 780 -32 l 1,3,-1
 580 -104 l 1,0,-1
EndSplineSet
EndChar

StartChar: asterisk.ss01
Encoding: 65572 -1 555
Width: 768
VWidth: 2430
GlyphClass: 1
Flags: HW
LayerCount: 2
Fore
SplineSet
262 413 m 1,0,-1
 93 566 l 1,1,-1
 302 904 l 1,2,-1
 50 997 l 1,3,-1
 121 1234 l 1,4,-1
 343 1076 l 1,5,-1
 307 1463 l 1,6,-1
 541 1463 l 1,7,-1
 498 1076 l 1,8,-1
 719 1222 l 1,9,-1
 786 994 l 1,10,-1
 527 904 l 1,11,-1
 734 568 l 1,12,-1
 566 413 l 1,13,-1
 416 763 l 1,14,-1
 262 413 l 1,0,-1
EndSplineSet
EndChar

StartChar: parenleft
Encoding: 40 40 556
Width: 768
VWidth: 2435
GlyphClass: 1
Flags: HW
LayerCount: 2
Fore
SplineSet
643 -246 m 1,0,1
 490 -149 490 -149 378.5 11 c 128,-1,2
 267 171 267 171 207.5 371 c 128,-1,3
 148 571 148 571 148 787 c 128,-1,4
 148 1003 148 1003 206 1198 c 128,-1,5
 264 1393 264 1393 373.5 1547 c 128,-1,6
 483 1701 483 1701 634 1799 c 1,7,-1
 725 1608 l 1,8,9
 560 1482 560 1482 459.5 1269.5 c 128,-1,10
 359 1057 359 1057 359 782 c 0,11,12
 359 602 359 602 404 440 c 128,-1,13
 449 278 449 278 532.5 147 c 128,-1,14
 616 16 616 16 730 -70 c 1,15,-1
 643 -246 l 1,0,1
EndSplineSet
EndChar

StartChar: parenright
Encoding: 41 41 557
Width: 768
VWidth: 2435
GlyphClass: 1
Flags: HW
LayerCount: 2
Fore
SplineSet
240 -246 m 1
 393 -149 393 -149 505 11 c 0
 616 171 616 171 675 371 c 0
 734 571 734 571 736 787 c 0
 736 1003 736 1003 676 1198 c 0
 618 1393 618 1393 509 1547 c 0
 400 1701 400 1701 250 1799 c 1
 158 1608 l 1
 323 1482 323 1482 423 1269 c 0
 524 1057 524 1057 524 782 c 0
 524 602 524 602 479 440 c 0
 434 278 434 278 351 147 c 0
 267 16 267 16 153 -70 c 1
 240 -246 l 1
EndSplineSet
EndChar

StartChar: braceleft
Encoding: 123 123 558
Width: 768
VWidth: 2475
GlyphClass: 1
Flags: HW
LayerCount: 2
Fore
SplineSet
644 -176 m 2,0,1
 523 -176 523 -176 432 -139.5 c 128,-1,2
 341 -103 341 -103 289.5 -9.5 c 128,-1,3
 242.557522124 75.7256637168 242.557522124 75.7256637168 242.557522124 224.510611638 c 0,0,0
 242.557522124 238.955752212 242.557522124 238.955752212 243 254 c 2,4,-1
 248 490 l 2,5,6
 248 590 248 590 232 639.5 c 128,-1,7
 216 689 216 689 187 704.5 c 128,-1,8
 158 720 158 720 114 720 c 2,9,-1
 68 720 l 1,10,-1
 68 922 l 1,11,-1
 114 922 l 2,12,13
 182 922 182 922 217.5 968 c 128,-1,14
 253 1014 253 1014 253 1144 c 2,15,-1
 248 1332 l 1,16,17
 248 1543 248 1543 346.5 1650.5 c 128,-1,18
 445 1758 445 1758 600 1758 c 2,19,-1
 719 1758 l 1,20,-1
 719 1569 l 1,21,-1
 591 1569 l 2,22,23
 528 1569 528 1569 492.5 1516.5 c 128,-1,24
 457 1464 457 1464 457 1357 c 2,25,-1
 459 1175 l 2,26,27
 459 1046 459 1046 420.5 957 c 128,-1,28
 382 868 382 868 313 822 c 1,29,30
 378 780 378 780 417.5 689.5 c 128,-1,31
 457 599 457 599 457 453 c 2,32,-1
 452 256 l 1,33,34
 454 122 454 122 494.5 66.5 c 128,-1,35
 535 11 535 11 622 11 c 2,36,-1
 717 11 l 1,37,-1
 717 -176 l 1,38,-1
 644 -176 l 2,0,1
EndSplineSet
EndChar

StartChar: braceright
Encoding: 125 125 559
Width: 768
VWidth: 2475
GlyphClass: 1
Flags: HW
LayerCount: 2
Fore
SplineSet
170 -176 m 2
 291 -176 291 -176 383 -140 c 0
 474 -103 474 -103 524 -10 c 0
 571.290909091 77.1636363636 571.290909091 77.1636363636 571.290909091 229.674710744 c 0,0,0
 571.290909091 241.636363636 571.290909091 241.636363636 571 254 c 2
 566 490 l 2
 566 590 566 590 581 639 c 0
 596 689 596 689 627 705 c 0
 657 720 657 720 700 720 c 2
 746 720 l 1
 746 922 l 1
 700 922 l 2
 632 922 632 922 597 968 c 0
 561 1014 561 1014 561 1144 c 2
 566 1332 l 1
 566 1543 566 1543 468 1652 c 0
 370.907407407 1758.00925926 370.907407407 1758.00925926 216.883916324 1758.00925926 c 0,0,0
 215.444444444 1758.00925926 215.444444444 1758.00925926 214 1758 c 2
 95 1758 l 1
 95 1569 l 1
 223 1569 l 2
 286 1569 286 1569 322 1516 c 0
 357.027027027 1465.40540541 357.027027027 1465.40540541 357.027027027 1362.74360847 c 0,0,0
 357.027027027 1359.89189189 357.027027027 1359.89189189 357 1357 c 2
 355 1175 l 2
 355 1046 355 1046 394 957 c 0
 433 868 433 868 501 822 c 1
 436 780 436 780 396 690 c 0
 357 599 357 599 357 453 c 2
 362 256 l 1
 360 122 360 122 319 66 c 0
 279.701754386 10.9824561404 279.701754386 10.9824561404 195.038165589 10.9824561404 c 0,0,0
 193.526315789 10.9824561404 193.526315789 10.9824561404 192 11 c 2
 97 11 l 1
 97 -176 l 1
 170 -176 l 2
EndSplineSet
EndChar

StartChar: bracketleft
Encoding: 91 91 560
Width: 768
VWidth: 2505
GlyphClass: 1
Flags: HW
LayerCount: 2
Fore
SplineSet
183 -141 m 1,0,-1
 183 1703 l 1,1,-1
 721 1703 l 1,2,-1
 721 1496 l 1,3,-1
 389 1496 l 1,4,-1
 389 58 l 1,5,-1
 724 58 l 1,6,-1
 724 -141 l 1,7,-1
 183 -141 l 1,0,-1
EndSplineSet
EndChar

StartChar: bracketright
Encoding: 93 93 561
Width: 768
VWidth: 2505
GlyphClass: 1
Flags: HW
LayerCount: 2
Fore
SplineSet
717 -141 m 1
 717 1703 l 1
 178 1703 l 1
 178 1496 l 1
 510 1496 l 1
 510 58 l 1
 174 58 l 1
 174 -141 l 1
 717 -141 l 1
EndSplineSet
EndChar

StartChar: hyphen
Encoding: 45 45 562
Width: 768
VWidth: 2430
GlyphClass: 1
Flags: HW
LayerCount: 2
Fore
SplineSet
178 670 m 1,0,-1
 178 877 l 1,1,-1
 678 877 l 1,2,-1
 678 670 l 1,3,-1
 178 670 l 1,0,-1
EndSplineSet
EndChar

StartChar: endash
Encoding: 8211 8211 564
Width: 768
VWidth: 2430
GlyphClass: 1
Flags: HW
LayerCount: 2
Fore
SplineSet
109 670 m 1,0,-1
 109 877 l 1,1,-1
 746 877 l 1,2,-1
 746 670 l 1,3,-1
 109 670 l 1,0,-1
EndSplineSet
EndChar

StartChar: emdash
Encoding: 8212 8212 565
Width: 768
VWidth: 2430
GlyphClass: 1
Flags: HW
LayerCount: 2
Fore
SplineSet
13 670 m 1,0,-1
 13 877 l 1,1,-1
 749 877 l 1,2,-1
 749 670 l 1,3,-1
 13 670 l 1,0,-1
EndSplineSet
EndChar

StartChar: underscore
Encoding: 95 95 569
Width: 768
VWidth: 2430
GlyphClass: 1
Flags: HW
LayerCount: 2
Fore
SplineSet
50 -241 m 1,0,-1
 50 -39 l 1,1,-1
 786 -39 l 1,2,-1
 786 -241 l 1,3,-1
 50 -241 l 1,0,-1
EndSplineSet
EndChar

StartChar: quotedblleft
Encoding: 8220 8220 572
Width: 768
VWidth: 2430
GlyphClass: 1
Flags: HW
LayerCount: 2
Fore
SplineSet
297 1560 m 1,0,-1
 411 1463 l 1,1,2
 360 1400 360 1400 326 1335.5 c 128,-1,3
 292 1271 292 1271 292 1210 c 0,4,5
 292 1173 292 1173 312.5 1149 c 128,-1,6
 333 1125 333 1125 352 1097 c 128,-1,7
 371 1069 371 1069 371 1023 c 0,8,9
 371 958 371 958 332.5 915 c 128,-1,10
 294 872 294 872 236 872 c 0,11,12
 180 872 180 872 134 920.5 c 128,-1,13
 88 969 88 969 88 1055 c 0,14,15
 88 1167 88 1167 139 1289.5 c 128,-1,16
 190 1412 190 1412 297 1560 c 1,0,-1
659 1560 m 1,17,-1
 772 1463 l 1,18,19
 721 1400 721 1400 687.5 1335.5 c 128,-1,20
 654 1271 654 1271 654 1210 c 0,21,22
 654 1173 654 1173 674.5 1149 c 128,-1,23
 695 1125 695 1125 714 1097 c 128,-1,24
 733 1069 733 1069 733 1023 c 0,25,26
 733 958 733 958 694.5 915 c 128,-1,27
 656 872 656 872 598 872 c 0,28,29
 542 872 542 872 496 920.5 c 128,-1,30
 450 969 450 969 450 1055 c 0,31,32
 450 1167 450 1167 501 1289.5 c 128,-1,33
 552 1412 552 1412 659 1560 c 1,17,-1
EndSplineSet
EndChar

StartChar: quoteleft
Encoding: 8216 8216 574
Width: 768
VWidth: 2430
GlyphClass: 1
Flags: HW
LayerCount: 2
Fore
SplineSet
469 1560 m 1,0,-1
 589 1463 l 1,1,2
 536 1400 536 1400 500 1335.5 c 128,-1,3
 464 1271 464 1271 464 1210 c 0,4,5
 464 1173 464 1173 484.5 1149 c 128,-1,6
 505 1125 505 1125 526 1097 c 128,-1,7
 547 1069 547 1069 547 1023 c 0,8,9
 547 958 547 958 506.5 915 c 128,-1,10
 466 872 466 872 406 872 c 0,11,12
 348 872 348 872 300.5 920.5 c 128,-1,13
 253 969 253 969 253 1055 c 0,14,15
 253 1167 253 1167 305 1289.5 c 128,-1,16
 357 1412 357 1412 469 1560 c 1,0,-1
EndSplineSet
EndChar

StartChar: quoteright
Encoding: 8217 8217 575
Width: 768
VWidth: 2430
GlyphClass: 1
Flags: HW
LayerCount: 2
Fore
SplineSet
345 872 m 1,0,-1
 225 969 l 1,1,2
 278 1032 278 1032 313 1097 c 128,-1,3
 348 1162 348 1162 348 1220 c 0,4,5
 348 1259 348 1259 327 1283.5 c 128,-1,6
 306 1308 306 1308 286.5 1335.5 c 128,-1,7
 267 1363 267 1363 267 1410 c 0,8,9
 267 1475 267 1475 307.5 1517.5 c 128,-1,10
 348 1560 348 1560 406 1560 c 128,-1,11
 464 1560 464 1560 512.5 1511.5 c 128,-1,12
 561 1463 561 1463 561 1378 c 0,13,14
 561 1266 561 1266 509 1143 c 128,-1,15
 457 1020 457 1020 345 872 c 1,0,-1
EndSplineSet
EndChar

StartChar: guillemotleft
Encoding: 171 171 576
Width: 768
VWidth: 2430
GlyphClass: 1
Flags: HW
LayerCount: 2
Fore
SplineSet
670 114 m 1,0,-1
 389 552 l 1,1,-1
 389 631 l 1,2,-1
 663 1016 l 1,3,-1
 772 877 l 1,4,-1
 561 589 l 1,5,-1
 786 243 l 1,6,-1
 670 114 l 1,0,-1
369 114 m 1,7,-1
 85 552 l 1,8,-1
 85 631 l 1,9,-1
 364 1016 l 1,10,-1
 464 884 l 1,11,-1
 262 589 l 1,12,-1
 478 241 l 1,13,-1
 369 114 l 1,7,-1
EndSplineSet
EndChar

StartChar: guilsinglleft
Encoding: 8249 8249 578
Width: 768
VWidth: 2430
GlyphClass: 1
Flags: HW
LayerCount: 2
Fore
SplineSet
491 104 m 1,0,-1
 209 542 l 1,1,-1
 209 624 l 1,2,-1
 486 1011 l 1,3,-1
 615 856 l 1,4,-1
 418 580 l 1,5,-1
 622 260 l 1,6,-1
 491 104 l 1,0,-1
EndSplineSet
EndChar

StartChar: guilsinglright
Encoding: 8250 8250 579
Width: 768
VWidth: 2430
GlyphClass: 1
Flags: HW
LayerCount: 2
Fore
SplineSet
327 104 m 1,0,-1
 199 260 l 1,1,-1
 403 580 l 1,2,-1
 206 856 l 1,3,-1
 333 1011 l 1,4,-1
 612 624 l 1,5,-1
 612 542 l 1,6,-1
 327 104 l 1,0,-1
EndSplineSet
EndChar

StartChar: quotedbl
Encoding: 34 34 580
Width: 768
VWidth: 2430
GlyphClass: 1
Flags: HW
LayerCount: 2
Fore
SplineSet
178 1616 m 1
 376 1616 l 1
 376 1470 376 1470 374 1382 c 0
 372 1294 372 1294 365 1235 c 0
 359 1176 359 1176 354 1121 c 0
 348 1066 348 1066 338 990 c 1
 216 990 l 1
 207 1068 207 1068 201 1121 c 0
 195 1176 195 1176 189 1234 c 0
 183 1292 183 1292 180 1381 c 0
 178 1470 178 1470 178 1616 c 1
473 1616 m 1
 673 1616 l 1
 673 1470 673 1470 670 1382 c 0
 668 1294 668 1294 662 1235 c 0
 656 1176 656 1176 650 1121 c 0
 644 1066 644 1066 635 990 c 1
 513 990 l 1
 504 1068 504 1068 497 1121 c 0
 491 1176 491 1176 485 1234 c 0
 479 1292 479 1292 476 1381 c 0
 473 1470 473 1470 473 1616 c 1
EndSplineSet
Substitution2: "'ss03' Style Set 3 in Latin lookup 37 subtable" quotedbl.ss03
Substitution2: "'aalt' Access All Alternates in Latin lookup 0 subtable" quotedbl.ss03
EndChar

StartChar: quotesingle
Encoding: 39 39 581
Width: 768
VWidth: 2430
GlyphClass: 1
Flags: HW
LayerCount: 2
Fore
SplineSet
325 1616 m 1,0,-1
 524 1616 l 1,1,2
 524 1470 524 1470 522 1383 c 128,-1,3
 520 1296 520 1296 514 1236 c 128,-1,4
 508 1176 508 1176 502 1121.5 c 128,-1,5
 496 1067 496 1067 486 990 c 1,6,-1
 364 990 l 1,7,8
 355 1068 355 1068 349 1122 c 128,-1,9
 343 1176 343 1176 337 1234.5 c 128,-1,10
 331 1293 331 1293 328 1381.5 c 128,-1,11
 325 1470 325 1470 325 1616 c 1,0,-1
EndSplineSet
Substitution2: "'ss03' Style Set 3 in Latin lookup 37 subtable" quotesingle.ss03
Substitution2: "'aalt' Access All Alternates in Latin lookup 0 subtable" quotesingle.ss03
EndChar

StartChar: quotesingle.ss03
Encoding: 65574 -1 583
Width: 768
VWidth: 2430
GlyphClass: 1
Flags: HW
LayerCount: 2
Fore
SplineSet
466 977 m 1,0,-1
 313 1006 l 1,1,2
 340 1120 340 1120 347.5 1198 c 0,3,4
 353.75 1263 353.75 1263 353.75 1319.31944444 c 0,5,6
 353.75 1330.58333333 353.75 1330.58333333 353.5 1341.5 c 0,7,8
 352 1407 352 1407 352 1484 c 0,9,10
 352 1630 352 1630 459 1630 c 0,11,12
 508 1630 508 1630 538 1588 c 128,-1,13
 568 1546 568 1546 568 1468 c 0,14,15
 568 1383 568 1383 543.5 1276 c 128,-1,16
 519 1169 519 1169 466 977 c 1,0,-1
EndSplineSet
EndChar

StartChar: hyphen_greater.dlig
Encoding: 65575 -1 584
Width: 768
VWidth: 2430
GlyphClass: 1
Flags: HW
LayerCount: 2
Fore
SplineSet
32 675 m 1,0,-1
 32 879 l 1,1,-1
 493 879 l 1,2,-1
 493 675 l 1,3,-1
 32 675 l 1,0,-1
345 95 m 1,4,-1
 345 348 l 1,5,-1
 656 777 l 1,6,-1
 347 1164 l 1,7,-1
 347 1412 l 1,8,-1
 768 851 l 1,9,-1
 768 710 l 1,10,-1
 345 95 l 1,4,-1
EndSplineSet
Ligature2: "'dlig' Discretionary Ligatures in Latin lookup 32 subtable" hyphen greater
EndChar

StartChar: exclam_equal_equal.dlig
Encoding: 65576 -1 585
Width: 768
VWidth: 2400
GlyphClass: 1
Flags: HW
LayerCount: 2
Fore
SplineSet
24 33 m 1,0,-1
 24 227 l 1,1,-1
 325 227 l 1,2,-1
 351 479 l 1,3,-1
 113 479 l 1,4,-1
 113 682 l 1,5,-1
 371 682 l 1,6,-1
 398 935 l 1,7,-1
 24 935 l 1,8,-1
 24 1131 l 1,9,-1
 417 1131 l 1,10,-1
 448 1429 l 1,11,-1
 501 1367 l 1,12,-1
 477 1131 l 1,13,-1
 760 1131 l 1,14,-1
 760 935 l 1,15,-1
 456 935 l 1,16,-1
 431 682 l 1,17,-1
 671 682 l 1,18,-1
 671 479 l 1,19,-1
 410 479 l 1,20,-1
 384 227 l 1,21,-1
 760 227 l 1,22,-1
 760 33 l 1,23,-1
 364 33 l 1,24,-1
 336 -246 l 1,25,-1
 283 -189 l 1,26,-1
 305 33 l 1,27,-1
 24 33 l 1,0,-1
EndSplineSet
Ligature2: "'dlig' Discretionary Ligatures in Latin lookup 32 subtable" exclam equal equal
EndChar

StartChar: uni20B5
Encoding: 8373 8373 594
Width: 768
VWidth: 2430
GlyphClass: 2
Flags: HW
AnchorPoint: "Anchor-2" 456 0 basechar 0
AnchorPoint: "Anchor-0" 447 1514 basechar 0
LayerCount: 2
Fore
SplineSet
258 758 m 0,0,1
 258 527 258 527 298.5 392 c 128,-1,2
 339 257 339 257 402 211 c 1,3,-1
 402 1293 l 1,4,5
 341 1247 341 1247 299.5 1119.5 c 128,-1,6
 258 992 258 992 258 758 c 0,0,1
402 -172 m 1,7,-1
 402 -19 l 1,8,9
 306 -2 306 -2 227 79 c 128,-1,10
 148 160 148 160 101 323 c 128,-1,11
 54 486 54 486 52 749 c 0,12,13
 52 1025 52 1025 103.5 1187 c 128,-1,14
 155 1349 155 1349 236 1425.5 c 128,-1,15
 317 1502 317 1502 402 1521 c 1,16,-1
 402 1640 l 1,17,-1
 557 1640 l 1,18,-1
 557 1521 l 1,19,20
 640 1502 640 1502 697 1444.5 c 128,-1,21
 754 1387 754 1387 788 1303 c 1,22,-1
 687 1140 l 1,23,-1
 675 1120 l 1,24,-1
 660 1132 l 1,25,26
 655 1149 655 1149 655.5 1173.5 c 128,-1,27
 656 1198 656 1198 637 1234 c 1,28,29
 601 1285 601 1285 557 1308 c 1,30,-1
 557 199 l 1,31,32
 622 233 622 233 673 338 c 1,33,-1
 772 170 l 1,34,35
 687 17 687 17 557 -14 c 1,36,-1
 557 -172 l 1,37,-1
 402 -172 l 1,7,-1
EndSplineSet
EndChar

StartChar: cent
Encoding: 162 162 595
Width: 768
VWidth: 2430
GlyphClass: 2
Flags: HW
AnchorPoint: "Anchor-2" 476 104 basechar 0
AnchorPoint: "Anchor-0" 476 1236 basechar 0
LayerCount: 2
Fore
SplineSet
287 666 m 0,0,1
 287 543 287 543 310 461 c 128,-1,2
 333 379 333 379 371 336 c 1,3,-1
 438 1043 l 1,4,5
 377 1019 377 1019 332 932.5 c 128,-1,6
 287 846 287 846 287 666 c 0,0,1
494 -178 m 1,7,-1
 325 -178 l 1,8,-1
 350 100 l 1,9,10
 221 149 221 149 148 291 c 128,-1,11
 75 433 75 433 75 666 c 0,12,13
 75 958 75 958 186 1105 c 128,-1,14
 297 1252 297 1252 457 1261 c 1,15,-1
 482 1514 l 1,16,-1
 644 1514 l 1,17,-1
 619 1236 l 1,18,19
 731 1194 731 1194 793 1081 c 1,20,-1
 698 918 l 1,21,-1
 688 899 l 1,22,-1
 670 907 l 1,23,24
 665 926 665 926 663 947.5 c 128,-1,25
 661 969 661 969 637 999 c 0,26,27
 620 1016 620 1016 600 1028 c 1,28,-1
 535 280 l 1,29,30
 623 294 623 294 686 392 c 1,31,-1
 777 216 l 1,32,33
 728 153 728 153 659.5 118 c 128,-1,34
 591 83 591 83 515 78 c 1,35,-1
 494 -178 l 1,7,-1
EndSplineSet
EndChar

StartChar: colonmonetary
Encoding: 8353 8353 596
Width: 768
VWidth: 2430
GlyphClass: 2
Flags: HW
AnchorPoint: "Anchor-2" 456 0 basechar 0
AnchorPoint: "Anchor-0" 447 1514 basechar 0
LayerCount: 2
Fore
SplineSet
258 758 m 0,0,1
 258 661 258 661 265.5 582 c 128,-1,2
 273 503 273 503 287 440 c 1,3,-1
 428 1308 l 1,4,5
 358 1274 358 1274 308 1143.5 c 128,-1,6
 258 1013 258 1013 258 758 c 0,0,1
341 287 m 1,7,8
 359 253 359 253 384 229 c 1,9,-1
 557 1305 l 1,10,11
 536 1317 536 1317 508 1319 c 1,12,-1
 341 287 l 1,7,8
188 -172 m 1,13,-1
 228 75 l 1,14,15
 148 158 148 158 101 321 c 128,-1,16
 54 484 54 484 52 749 c 0,17,18
 52 983 52 983 89.5 1133 c 128,-1,19
 127 1283 127 1283 188 1369.5 c 128,-1,20
 249 1456 249 1456 322 1491 c 128,-1,21
 395 1526 395 1526 463 1528 c 1,22,-1
 482 1640 l 1,23,-1
 559 1640 l 1,24,-1
 541 1524 l 1,25,26
 567 1519 567 1519 592 1512 c 1,27,-1
 614 1640 l 1,28,-1
 691 1640 l 1,29,-1
 666 1473 l 1,30,31
 746 1415 746 1415 788 1303 c 1,32,-1
 687 1140 l 1,33,-1
 675 1120 l 1,34,-1
 660 1132 l 1,35,36
 655 1149 655 1149 655.5 1173.5 c 128,-1,37
 656 1198 656 1198 637 1234 c 0,38,39
 632 1241 632 1241 628 1247 c 1,40,-1
 454 185 l 1,41,42
 468 183 468 183 485 183 c 0,43,44
 544 183 544 183 590.5 224 c 128,-1,45
 637 265 637 265 673 338 c 1,46,-1
 772 170 l 1,47,48
 716 68 716 68 643 22 c 128,-1,49
 570 -24 570 -24 463 -24 c 0,50,51
 442 -24 442 -24 421 -21 c 1,52,-1
 397 -172 l 1,53,-1
 317 -172 l 1,54,-1
 346 -5 l 1,55,56
 320 4 320 4 296 19 c 1,57,-1
 265 -172 l 1,58,-1
 188 -172 l 1,13,-1
EndSplineSet
EndChar

StartChar: currency
Encoding: 164 164 597
Width: 768
VWidth: 2430
GlyphClass: 1
Flags: HW
LayerCount: 2
Fore
SplineSet
425 644 m 128,-1,1
 486 644 486 644 516.5 700 c 128,-1,2
 547 756 547 756 547 839 c 128,-1,3
 547 922 547 922 516.5 978.5 c 128,-1,4
 486 1035 486 1035 425 1035 c 128,-1,5
 364 1035 364 1035 334 978 c 128,-1,6
 304 921 304 921 304 839 c 0,7,8
 304 756 304 756 334 700 c 128,-1,0
 364 644 364 644 425 644 c 128,-1,1
209 367 m 1,9,-1
 85 489 l 1,10,-1
 174 649 l 1,11,12
 133.909090909 737.772727273 133.909090909 737.772727273 133.909090909 832.012396694 c 0,0,0
 133.909090909 836.5 133.909090909 836.5 134 841 c 0,13,14
 134 892 134 892 143.5 941 c 128,-1,15
 153 990 153 990 174 1035 c 1,16,-1
 85 1191 l 1,17,-1
 209 1315 l 1,18,-1
 290 1183 l 1,19,20
 358 1232 358 1232 427 1232 c 0,21,22
 495 1232 495 1232 561 1185 c 1,23,-1
 642 1315 l 1,24,-1
 768 1194 l 1,25,-1
 675 1041 l 1,26,27
 699 992 699 992 710 942 c 128,-1,28
 721 892 721 892 721 841 c 0,29,30
 721 737 721 737 678 644 c 1,31,-1
 768 489 l 1,32,-1
 642 367 l 1,33,-1
 564 496 l 1,34,35
 532 472 532 472 497 459.5 c 128,-1,36
 462 447 462 447 427 447 c 0,37,38
 349 447 349 447 287 498 c 1,39,-1
 209 367 l 1,9,-1
EndSplineSet
EndChar

StartChar: dollar
Encoding: 36 36 598
Width: 768
VWidth: 2430
GlyphClass: 1
Flags: HW
LayerCount: 2
Fore
SplineSet
527 216 m 1,0,1
 576 235 576 235 605.5 293.5 c 128,-1,2
 635 352 635 352 635 430 c 0,3,4
 635 511 635 511 605 559.5 c 128,-1,5
 575 608 575 608 527 629 c 1,6,-1
 527 216 l 1,0,1
376 909 m 1,7,-1
 376 1254 l 1,8,9
 334 1245 334 1245 305 1205.5 c 128,-1,10
 276 1166 276 1166 276 1099 c 0,11,12
 276 970 276 970 376 909 c 1,7,-1
379 -112 m 1,13,-1
 379 30 l 1,14,15
 294 39 294 39 215 79 c 128,-1,16
 136 119 136 119 83 192 c 1,17,-1
 183 379 l 1,18,19
 192 372 192 372 194.5 354 c 128,-1,20
 197 336 197 336 206 323 c 0,21,22
 230 284 230 284 274 254.5 c 128,-1,23
 318 225 318 225 376 211 c 1,24,-1
 376 691 l 1,25,26
 242 759 242 759 171 844.5 c 128,-1,27
 100 930 100 930 100 1083 c 0,28,29
 100 1250 100 1250 181 1332 c 128,-1,30
 262 1414 262 1414 379 1436 c 1,31,-1
 379 1582 l 1,32,-1
 529 1582 l 2,33,34
 534 1580 534 1580 535 1570 c 0,35,36
 535 1565 535 1565 529.5 1551.5 c 128,-1,37
 524 1538 524 1538 524 1519 c 2,38,-1
 524 1438 l 1,39,40
 599 1426 599 1426 660 1391 c 128,-1,41
 721 1356 721 1356 765 1287 c 1,42,-1
 675 1127 l 1,43,44
 661 1129 661 1129 658.5 1147.5 c 128,-1,45
 656 1166 656 1166 649 1178 c 0,46,47
 630 1212 630 1212 597 1232 c 128,-1,48
 564 1252 564 1252 527 1257 c 1,49,-1
 527 837 l 1,50,51
 624 791 624 791 686.5 741 c 128,-1,52
 749 691 749 691 778 620 c 128,-1,53
 807 549 807 549 807 440 c 0,54,55
 807 275 807 275 730.5 166.5 c 128,-1,56
 654 58 654 58 524 34 c 1,57,-1
 524 -112 l 1,58,-1
 379 -112 l 1,13,-1
EndSplineSet
EndChar

StartChar: dong
Encoding: 8363 8363 599
Width: 768
VWidth: 2430
GlyphClass: 2
Flags: HW
AnchorPoint: "Anchor-4" 554 1331 basechar 0
AnchorPoint: "Anchor-2" 403 265 basechar 0
AnchorPoint: "Anchor-1" 705 1152 basechar 0
AnchorPoint: "Anchor-0" 403 1152 basechar 0
LayerCount: 2
Fore
SplineSet
123 153 m 1,0,-1
 731 153 l 1,1,-1
 731 0 l 1,2,-1
 123 0 l 1,3,-1
 123 153 l 1,0,-1
392 403 m 0,4,5
 510.008333333 403 510.008333333 403 510.008333333 708.838263889 c 0,6,7
 510.008333333 711.408333333 510.008333333 711.408333333 510 714 c 0,8,9
 510 879 510 879 481 955.5 c 128,-1,10
 452 1032 452 1032 394 1032 c 128,-1,11
 336 1032 336 1032 304 964.5 c 128,-1,12
 272 897 272 897 272 731 c 0,13,14
 272 548 272 548 306.5 475.5 c 128,-1,15
 341 403 341 403 392 403 c 0,4,5
355 246 m 0,16,17
 287 246 287 246 230.5 286.5 c 128,-1,18
 174 327 174 327 140.5 431 c 128,-1,19
 107 535 107 535 107 714 c 0,20,21
 107 892 107 892 138.5 995.5 c 128,-1,22
 170 1099 170 1099 227.5 1142 c 128,-1,23
 285 1185 285 1185 357 1185 c 0,24,25
 476 1185 476 1185 513 1064 c 1,26,-1
 513 1247 l 1,27,-1
 301 1247 l 1,28,-1
 301 1419 l 1,29,-1
 513 1419 l 1,30,-1
 513 1556 l 1,31,-1
 698 1556 l 1,32,-1
 698 1538 l 1,33,34
 681 1521 681 1521 680 1468 c 2,35,-1
 680 1419 l 1,36,-1
 770 1419 l 1,37,-1
 770 1247 l 1,38,-1
 680 1247 l 1,39,-1
 680 396 l 2,40,41
 680 362 680 362 681 329.5 c 128,-1,42
 682 297 682 297 693 265 c 1,43,-1
 529 265 l 1,44,45
 512.944444444 306.555555556 512.944444444 306.555555556 512.944444444 360.598765432 c 0,46,47
 512.944444444 363.777777778 512.944444444 363.777777778 513 367 c 1,48,49
 486 309 486 309 443.5 277.5 c 128,-1,50
 401 246 401 246 355 246 c 0,16,17
EndSplineSet
EndChar

StartChar: Euro
Encoding: 8364 8364 600
Width: 768
VWidth: 2430
GlyphClass: 1
Flags: HW
LayerCount: 2
Fore
SplineSet
514 -32 m 0,0,1
 371 -32 371 -32 260 91 c 128,-1,2
 149 214 149 214 122 491 c 1,3,-1
 35 491 l 1,4,-1
 64 693 l 1,5,-1
 110 693 l 1,6,7
 108.666666667 713 108.666666667 713 108.666666667 736.777777778 c 0,0,0
 108.666666667 748.666666667 108.666666667 748.666666667 109 761.5 c 128,-1,8
 110 800 110 800 112 831 c 1,9,-1
 35 831 l 1,10,-1
 66 1032 l 1,11,-1
 134 1032 l 1,12,13
 160 1217 160 1217 221.5 1325 c 128,-1,14
 283 1433 283 1433 364.5 1480.5 c 128,-1,15
 446 1528 446 1528 527 1528 c 0,16,17
 688 1528 688 1528 771 1414 c 1,18,-1
 718 1217 l 1,19,20
 696 1226 696 1226 679.5 1253 c 128,-1,21
 663 1280 663 1280 632 1303.5 c 128,-1,22
 601 1327 601 1327 531 1327 c 0,23,24
 460 1327 460 1327 406 1256 c 128,-1,25
 352 1185 352 1185 331 1032 c 1,26,-1
 679 1032 l 1,27,-1
 626 831 l 1,28,-1
 310 831 l 1,29,30
 308 799 308 799 308 765 c 128,-1,31
 308 731 308 731 308 693 c 1,32,-1
 593 693 l 1,33,-1
 540 491 l 1,34,-1
 322 491 l 1,35,36
 335 343 335 343 388.5 261.5 c 128,-1,37
 442 180 442 180 531 180 c 0,38,39
 579 180 579 180 621 199 c 128,-1,40
 663 218 663 218 694 265 c 1,41,-1
 764 81 l 1,42,43
 711 20 711 20 648 -6 c 128,-1,44
 585 -32 585 -32 514 -32 c 0,0,1
EndSplineSet
EndChar

StartChar: florin
Encoding: 402 402 601
Width: 768
VWidth: 2360
GlyphClass: 1
Flags: HW
LayerCount: 2
Fore
SplineSet
169 -246 m 0,0,1
 127 -246 127 -246 87 -229.5 c 128,-1,2
 47 -213 47 -213 16 -176 c 1,3,-1
 87 22 l 1,4,5
 96 20 96 20 99 5.5 c 128,-1,6
 102 -9 102 -9 113.5 -23.5 c 128,-1,7
 125 -38 125 -38 157 -38 c 0,8,9
 193 -38 193 -38 209.5 22 c 128,-1,10
 226 82 226 82 232 206 c 2,11,-1
 266 837 l 1,12,-1
 113 837 l 1,13,-1
 113 1021 l 1,14,-1
 272 1021 l 1,15,-1
 283 1201 l 2,16,17
 292 1368 292 1368 327 1463.5 c 128,-1,18
 362 1559 362 1559 421.5 1599.5 c 128,-1,19
 481 1640 481 1640 560 1640 c 0,20,21
 674 1640 674 1640 752 1536 c 1,22,-1
 691 1328 l 1,23,24
 680 1328 680 1328 673 1356 c 0,25,26
 654 1445 654 1445 579 1445 c 0,27,28
 537 1445 537 1445 511.5 1386.5 c 128,-1,29
 486 1328 486 1328 479 1176 c 2,30,-1
 470 1021 l 1,31,-1
 622 1021 l 1,32,-1
 622 837 l 1,33,-1
 459 837 l 1,34,-1
 424 199 l 2,35,36
 415 30 415 30 379.5 -67.5 c 128,-1,37
 344 -165 344 -165 289.5 -205.5 c 128,-1,38
 235 -246 235 -246 169 -246 c 0,0,1
EndSplineSet
EndChar

StartChar: uni20B2
Encoding: 8370 8370 603
Width: 768
VWidth: 2430
GlyphClass: 1
Flags: HW
LayerCount: 2
Fore
SplineSet
230 775 m 0,0,1
 230 557 230 557 264 414.5 c 128,-1,2
 298 272 298 272 354 211 c 1,3,-1
 354 1303 l 1,4,5
 300 1257 300 1257 265 1135 c 128,-1,6
 230 1013 230 1013 230 775 c 0,0,1
354 -172 m 1,7,-1
 354 -19 l 1,8,9
 202 27 202 27 118.5 222.5 c 128,-1,10
 35 418 35 418 35 746 c 0,11,12
 37 1020 37 1020 84.5 1183.5 c 128,-1,13
 132 1347 132 1347 203.5 1426 c 128,-1,14
 275 1505 275 1505 354 1526 c 1,15,-1
 354 1640 l 1,16,-1
 485 1640 l 1,17,-1
 485 1538 l 1,18,19
 593 1529 593 1529 661 1468 c 128,-1,20
 729 1407 729 1407 765 1319 c 1,21,-1
 678 1143 l 1,22,23
 664 1152 664 1152 648.5 1193 c 128,-1,24
 633 1234 633 1234 598 1276.5 c 128,-1,25
 563 1319 563 1319 485 1331 c 1,26,-1
 485 167 l 1,27,28
 546 179 546 179 598 243 c 1,29,-1
 598 554 l 1,30,-1
 535 554 l 1,31,-1
 535 761 l 1,32,-1
 771 761 l 1,33,-1
 771 132 l 1,34,35
 706 60 706 60 633 19.5 c 128,-1,36
 560 -21 560 -21 485 -30 c 1,37,-1
 485 -172 l 1,38,-1
 354 -172 l 1,7,-1
EndSplineSet
EndChar

StartChar: uni20AD
Encoding: 8365 8365 604
Width: 768
VWidth: 2430
GlyphClass: 1
Flags: HW
LayerCount: 2
Fore
SplineSet
286 656 m 1,0,-1
 237 559 l 1,1,-1
 239 0 l 1,2,-1
 54 0 l 1,3,-1
 54 772 l 1,4,-1
 -16 772 l 1,5,-1
 -16 941 l 1,6,-1
 54 941 l 1,7,-1
 54 1514 l 1,8,-1
 258 1514 l 1,9,-1
 258 1495 l 1,10,11
 246 1481 246 1481 242.5 1463.5 c 128,-1,12
 239 1446 239 1446 239 1405 c 2,13,-1
 239 918 l 1,14,-1
 505 1526 l 1,15,16
 533 1521 533 1521 575 1517.5 c 128,-1,17
 617 1514 617 1514 640 1514 c 2,18,-1
 698 1514 l 1,19,-1
 448 941 l 1,20,-1
 670 941 l 1,21,-1
 670 772 l 1,22,-1
 437 772 l 1,23,-1
 720 0 l 1,24,-1
 517 -9 l 1,25,-1
 286 656 l 1,0,-1
EndSplineSet
EndChar

StartChar: uni20BA
Encoding: 8378 8378 606
Width: 768
VWidth: 2430
GlyphClass: 1
Flags: HW
LayerCount: 2
Fore
SplineSet
160 0 m 1,0,-1
 160 666 l 1,1,-1
 42 603 l 1,2,-1
 42 758 l 1,3,-1
 160 821 l 1,4,-1
 160 950 l 1,5,-1
 42 888 l 1,6,-1
 42 1043 l 1,7,-1
 160 1106 l 1,8,-1
 160 1514 l 1,9,-1
 375 1514 l 1,10,11
 375 1490 375 1490 369 1481.5 c 128,-1,12
 363 1473 363 1473 361 1431 c 2,13,-1
 361 1210 l 1,14,-1
 596 1334 l 1,15,-1
 596 1178 l 1,16,-1
 361 1055 l 1,17,-1
 361 926 l 1,18,-1
 596 1050 l 1,19,-1
 596 895 l 1,20,-1
 361 770 l 1,21,-1
 361 206 l 1,22,23
 430 206 430 206 486.5 234 c 128,-1,24
 543 262 543 262 576 338.5 c 128,-1,25
 609 415 609 415 609 561 c 1,26,-1
 778 561 l 1,27,28
 778.037558685 555.478873239 778.037558685 555.478873239 778.037558685 550.014349005 c 0,0,0
 778.037558685 264.492957746 778.037558685 264.492957746 675.5 133.5 c 128,-1,29
 571 0 571 0 331 0 c 2,30,-1
 160 0 l 1,0,-1
EndSplineSet
EndChar

StartChar: uni20BC
Encoding: 8380 8380 607
Width: 768
VWidth: 2430
GlyphClass: 1
Flags: HW
LayerCount: 2
Fore
SplineSet
345 231 m 1,0,-1
 345 1236 l 1,1,2
 280 1209 280 1209 254.5 1125 c 128,-1,3
 229 1041 229 1041 229 897 c 2,4,-1
 229 81 l 2,5,6
 229 44 229 44 235 31.5 c 128,-1,7
 241 19 241 19 241 0 c 1,8,-1
 61 0 l 1,9,-1
 61 895 l 2,10,11
 61 1162 61 1162 135 1290.5 c 128,-1,12
 209 1419 209 1419 345 1444 c 1,13,-1
 345 1626 l 1,14,-1
 508 1626 l 1,15,-1
 508 1444 l 1,16,17
 637 1417 637 1417 715 1290.5 c 128,-1,18
 793 1164 793 1164 793 888 c 2,19,-1
 793 0 l 1,20,-1
 629 0 l 1,21,-1
 629 890 l 2,22,23
 629 1038 629 1038 602 1124 c 128,-1,24
 575 1210 575 1210 508 1239 c 1,25,-1
 508 231 l 1,26,-1
 345 231 l 1,0,-1
EndSplineSet
EndChar

StartChar: uni20A6
Encoding: 8358 8358 608
Width: 768
VWidth: 2430
GlyphClass: 2
Flags: HW
AnchorPoint: "Anchor-2" 383 0 basechar 0
AnchorPoint: "Anchor-0" 383 1514 basechar 0
LayerCount: 2
Fore
SplineSet
526 580 m 1,0,-1
 526 659 l 1,1,-1
 505 659 l 1,2,-1
 526 580 l 1,0,-1
243 999 m 1,3,-1
 243 809 l 1,4,-1
 300 809 l 1,5,-1
 243 999 l 1,3,-1
20 659 m 1,6,-1
 20 809 l 1,7,-1
 87 809 l 1,8,-1
 87 1514 l 1,9,-1
 255 1514 l 1,10,-1
 460 809 l 1,11,-1
 526 809 l 1,12,-1
 522 1514 l 1,13,-1
 694 1514 l 1,14,-1
 694 1495 l 1,15,16
 683 1481 683 1481 680 1463.5 c 128,-1,17
 677 1446 677 1446 677 1405 c 2,18,-1
 677 809 l 1,19,-1
 754 809 l 1,20,-1
 756 659 l 1,21,-1
 677 659 l 1,22,-1
 677 0 l 1,23,-1
 532 0 l 1,24,-1
 341 659 l 1,25,-1
 243 659 l 1,26,-1
 243 0 l 1,27,-1
 87 0 l 1,28,-1
 87 659 l 1,29,-1
 20 659 l 1,6,-1
EndSplineSet
EndChar

StartChar: peseta
Encoding: 8359 8359 609
Width: 768
VWidth: 2430
GlyphClass: 1
Flags: HW
LayerCount: 2
Fore
SplineSet
394 -30 m 0,0,1
 312 -30 312 -30 282.5 39.5 c 128,-1,2
 256.52238806 100.701492537 256.52238806 100.701492537 256.52238806 242.162174204 c 0,0,0
 256.52238806 261.343283582 256.52238806 261.343283582 257 282 c 1,3,-1
 267 491 l 1,4,-1
 200 491 l 1,5,-1
 209 631 l 1,6,-1
 272 631 l 1,7,-1
 272 742 l 1,8,-1
 383 765 l 1,9,-1
 406 770 l 1,10,-1
 411 751 l 1,11,12
 400 734 400 734 391.5 716 c 128,-1,13
 383 698 383 698 383 656 c 2,14,-1
 383 631 l 1,15,-1
 454 631 l 1,16,-1
 442 491 l 1,17,-1
 379 491 l 1,18,-1
 372 294 l 2,19,20
 370.72 259.76 370.72 259.76 370.72 232.3808 c 0,0,0
 370.72 174.2 370.72 174.2 376.5 147 c 128,-1,21
 385 107 385 107 420 107 c 0,22,23
 438 107 438 107 457 123 c 1,24,-1
 483 209 l 1,25,-1
 488 229 l 1,26,-1
 500 223 l 1,27,28
 507 209 507 209 507 190.5 c 128,-1,29
 507 172 507 172 520 148 c 1,30,31
 556.26 99.98 556.26 99.98 606.926 99.98 c 0,0,0
 607.96 99.98 607.96 99.98 609 100 c 0,32,33
 639 100 639 100 654.5 122 c 128,-1,34
 670 144 670 144 670 170 c 0,35,36
 670 197 670 197 657 219 c 128,-1,37
 644 241 644 241 600 262 c 0,38,39
 543 294 543 294 506.5 340.5 c 128,-1,40
 470 387 470 387 470 469 c 0,41,42
 470 552 470 552 512.5 598 c 128,-1,43
 555 644 555 644 618 644 c 0,44,45
 714 644 714 644 773 559 c 1,46,-1
 718 454 l 1,47,-1
 707 435 l 1,48,-1
 698 438 l 1,49,50
 698 455 698 455 697 468.5 c 128,-1,51
 696 482 696 482 679 496 c 0,52,53
 653 517 653 517 625 517 c 128,-1,54
 597 517 597 517 586 503 c 128,-1,55
 575 489 575 489 575 466 c 0,56,57
 575 442 575 442 590 422.5 c 128,-1,58
 605 403 605 403 648 379 c 0,59,60
 721 337 721 337 749 293.5 c 128,-1,61
 777 250 777 250 777 180 c 0,62,63
 777 87 777 87 732.5 26.5 c 128,-1,64
 688 -34 688 -34 616 -34 c 0,65,66
 546 -34 546 -34 490 14 c 1,67,68
 446 -30 446 -30 394 -30 c 0,0,1
198 914 m 2,69,70
 326 914 326 914 326 1145 c 0,71,72
 326 1240 326 1240 297.5 1298 c 128,-1,73
 269 1356 269 1356 198 1356 c 2,74,-1
 178 1356 l 1,75,-1
 178 914 l 1,76,-1
 198 914 l 2,69,70
41 1514 m 1,77,-1
 198 1514 l 2,78,79
 292 1514 292 1514 353.5 1463 c 128,-1,80
 415 1412 415 1412 443.5 1329.5 c 128,-1,81
 472 1247 472 1247 472 1150 c 0,82,83
 472 985 472 985 403.5 875 c 128,-1,84
 335 765 335 765 205 765 c 2,85,-1
 178 765 l 1,86,-1
 178 0 l 1,87,-1
 41 0 l 1,88,-1
 41 1514 l 1,77,-1
EndSplineSet
EndChar

StartChar: uni20B1
Encoding: 8369 8369 610
Width: 768
VWidth: 2430
GlyphClass: 2
Flags: HW
AnchorPoint: "Anchor-2" 215 0 basechar 0
AnchorPoint: "Anchor-0" 360 1514 basechar 0
LayerCount: 2
Fore
SplineSet
246 839 m 1,0,-1
 360 839 l 2,1,2
 444 839 444 839 479 939 c 1,3,-1
 246 939 l 1,4,-1
 246 839 l 1,0,-1
500 1069 m 0,5,6
 500 1090 500 1090 498 1111 c 1,7,-1
 246 1111 l 1,8,-1
 246 1035 l 1,9,-1
 498 1035 l 1,10,11
 500 1052 500 1052 500 1069 c 0,5,6
246 1305 m 1,12,-1
 246 1208 l 1,13,-1
 479 1208 l 1,14,15
 444 1305 444 1305 360 1305 c 2,16,-1
 246 1305 l 1,12,-1
54 0 m 1,17,-1
 54 926 l 1,18,-1
 3 926 l 1,19,-1
 3 1035 l 1,20,-1
 54 1035 l 1,21,-1
 54 1101 l 1,22,-1
 3 1101 l 1,23,-1
 3 1208 l 1,24,-1
 54 1208 l 1,25,-1
 54 1514 l 1,26,-1
 366 1514 l 2,27,28
 500 1514 500 1514 580.5 1435 c 128,-1,29
 661 1356 661 1356 683 1208 c 1,30,-1
 739 1208 l 1,31,-1
 739 1101 l 1,32,-1
 694 1101 l 1,33,34
 694 1089 694 1089 694 1071 c 0,35,36
 694 1052 694 1052 694 1035 c 1,37,-1
 739 1035 l 1,38,-1
 739 926 l 1,39,-1
 680 926 l 1,40,41
 651 792 651 792 572.5 711.5 c 128,-1,42
 494 631 494 631 374 631 c 2,43,-1
 246 631 l 1,44,-1
 246 0 l 1,45,-1
 54 0 l 1,17,-1
EndSplineSet
EndChar

StartChar: uni20BD
Encoding: 8381 8381 611
Width: 768
VWidth: 2430
GlyphClass: 2
Flags: HW
AnchorPoint: "Anchor-2" 261 0 basechar 0
AnchorPoint: "Anchor-0" 413 1514 basechar 0
LayerCount: 2
Fore
SplineSet
292 839 m 1,0,-1
 413 839 l 2,1,2
 481 839 481 839 520.5 900.5 c 128,-1,3
 560 962 560 962 560 1069 c 0,4,5
 560 1185 560 1185 520 1245 c 128,-1,6
 480 1305 480 1305 413 1305 c 2,7,-1
 292 1305 l 1,8,-1
 292 839 l 1,0,-1
91 0 m 1,9,-1
 91 290 l 1,10,-1
 25 290 l 1,11,-1
 25 496 l 1,12,-1
 91 496 l 1,13,-1
 91 631 l 1,14,-1
 25 631 l 1,15,-1
 25 839 l 1,16,-1
 91 839 l 1,17,-1
 91 1514 l 1,18,-1
 419 1514 l 2,19,20
 592 1514 592 1514 676.5 1398.5 c 128,-1,21
 761 1283 761 1283 761 1071 c 0,22,23
 761 874 761 874 672.5 752.5 c 128,-1,24
 584 631 584 631 428 631 c 2,25,-1
 292 631 l 1,26,-1
 292 496 l 1,27,-1
 485 496 l 1,28,-1
 485 290 l 1,29,-1
 292 290 l 1,30,-1
 292 0 l 1,31,-1
 91 0 l 1,9,-1
EndSplineSet
EndChar

StartChar: uni20B9
Encoding: 8377 8377 612
Width: 768
VWidth: 2430
GlyphClass: 1
Flags: HW
LayerCount: 2
Fore
SplineSet
95 841 m 1,0,-1
 290 841 l 2,1,2
 360 841 360 841 399 877.5 c 128,-1,3
 438 914 438 914 452 979 c 1,4,-1
 95 979 l 1,5,-1
 95 1145 l 1,6,-1
 452 1145 l 1,7,8
 440 1215 440 1215 401 1255.5 c 128,-1,9
 362 1296 362 1296 290 1296 c 2,10,-1
 95 1296 l 1,11,-1
 95 1512 l 1,12,-1
 777 1512 l 1,13,-1
 777 1354 l 1,14,-1
 549 1354 l 1,15,16
 637 1276 637 1276 661 1145 c 1,17,-1
 777 1145 l 1,18,-1
 777 979 l 1,19,-1
 668 979 l 1,20,21
 656 865 656 865 598 781.5 c 128,-1,22
 540 698 540 698 459 663 c 1,23,-1
 707 0 l 1,24,-1
 478 0 l 1,25,-1
 260 629 l 1,26,-1
 95 629 l 1,27,-1
 95 841 l 1,0,-1
EndSplineSet
EndChar

StartChar: sterling
Encoding: 163 163 613
Width: 768
VWidth: 2430
GlyphClass: 1
Flags: HW
LayerCount: 2
Fore
SplineSet
120 -24 m 1,0,-1
 52 167 l 1,1,2
 118 211 118 211 152.5 255 c 128,-1,3
 187 299 187 299 200 364.5 c 128,-1,4
 213 430 213 430 213 542 c 0,5,6
 213 586 213 586 208 639.5 c 128,-1,7
 203 693 203 693 194 751 c 1,8,-1
 92 751 l 1,9,-1
 92 953 l 1,10,-1
 163 953 l 1,11,12
 161 985 161 985 158.5 1020 c 128,-1,13
 156 1055 156 1055 156 1086 c 0,14,15
 156 1304 156 1304 250.5 1410 c 128,-1,16
 345 1516 345 1516 476 1516 c 0,17,18
 540 1516 540 1516 602 1485 c 128,-1,19
 664 1454 664 1454 712 1387 c 1,20,-1
 615 1217 l 1,21,22
 592 1261 592 1261 562.5 1289 c 128,-1,23
 533 1317 533 1317 476 1317 c 0,24,25
 422 1317 422 1317 389.5 1256.5 c 128,-1,26
 357 1196 357 1196 357 1089 c 0,27,28
 357 1062 357 1062 359.5 1027 c 128,-1,29
 362 992 362 992 366 953 c 1,30,-1
 551 953 l 1,31,-1
 551 751 l 1,32,-1
 397 751 l 1,33,34
 404 695 404 695 409 644 c 128,-1,35
 414 593 414 593 414 547 c 0,36,37
 414 459 414 459 405.5 391 c 128,-1,38
 397 323 397 323 372 257 c 1,39,40
 383.052631579 258.719298246 383.052631579 258.719298246 393.743305633 258.719298246 c 0,41,42
 426.578947368 258.719298246 426.578947368 258.719298246 456 242.5 c 0,43,44
 495 221 495 221 531.5 196.5 c 128,-1,45
 568 172 568 172 612 172 c 0,46,47
 673 172 673 172 738 236 c 1,48,-1
 788 49 l 1,49,50
 702 -36 702 -36 603 -37 c 0,51,52
 556 -37 556 -37 505 -10 c 128,-1,53
 454 17 454 17 403 44.5 c 128,-1,54
 352 72 352 72 307 72 c 0,55,56
 264 72 264 72 221.5 47 c 128,-1,57
 179 22 179 22 120 -24 c 1,0,-1
EndSplineSet
EndChar

StartChar: uni20A9
Encoding: 8361 8361 614
Width: 768
VWidth: 2430
GlyphClass: 2
Flags: HW
AnchorPoint: "Anchor-2" 385 0 basechar 0
AnchorPoint: "Anchor-0" 394 1514 basechar 0
LayerCount: 2
Fore
SplineSet
540 629 m 1,0,-1
 542 702 l 1,1,-1
 529 702 l 1,2,-1
 540 629 l 1,0,-1
253 629 m 1,3,-1
 262 702 l 1,4,-1
 248 702 l 1,5,-1
 253 629 l 1,3,-1
389 839 m 1,6,-1
 387 823 l 1,7,-1
 392 823 l 1,8,-1
 389 839 l 1,6,-1
169 0 m 1,9,-1
 113 702 l 1,10,-1
 20 702 l 1,11,-1
 20 823 l 1,12,-1
 102 823 l 1,13,-1
 49 1514 l 1,14,-1
 197 1514 l 1,15,-1
 239 823 l 1,16,-1
 279 823 l 1,17,-1
 352 1347 l 1,18,-1
 439 1347 l 1,19,-1
 511 823 l 1,20,-1
 549 823 l 1,21,-1
 580 1514 l 1,22,-1
 721 1514 l 1,23,-1
 669 823 l 1,24,-1
 756 823 l 1,25,-1
 756 702 l 1,26,-1
 657 702 l 1,27,-1
 604 0 l 1,28,-1
 502 0 l 1,29,-1
 407 702 l 1,30,-1
 370 702 l 1,31,-1
 273 0 l 1,32,-1
 169 0 l 1,9,-1
EndSplineSet
EndChar

StartChar: yen
Encoding: 165 165 615
Width: 768
VWidth: 2430
GlyphClass: 1
Flags: HW
LayerCount: 2
Fore
SplineSet
506 0 m 1,0,-1
 310 0 l 1,1,-1
 310 269 l 1,2,-1
 117 269 l 1,3,-1
 117 430 l 1,4,-1
 310 430 l 1,5,-1
 310 552 l 1,6,-1
 117 552 l 1,7,-1
 117 714 l 1,8,-1
 302 714 l 1,9,-1
 28 1514 l 1,10,-1
 237 1514 l 1,11,-1
 407 955 l 1,12,-1
 567 1514 l 1,13,-1
 764 1514 l 1,14,-1
 509 714 l 1,15,-1
 690 714 l 1,16,-1
 690 552 l 1,17,-1
 506 552 l 1,18,-1
 506 430 l 1,19,-1
 690 430 l 1,20,-1
 690 269 l 1,21,-1
 506 269 l 1,22,-1
 506 0 l 1,0,-1
EndSplineSet
EndChar

StartChar: asteriskmath
Encoding: 8727 8727 616
Width: 768
VWidth: 2430
GlyphClass: 1
Flags: HW
LayerCount: 2
Fore
SplineSet
262 299 m 1,0,-1
 93 452 l 1,1,-1
 302 790 l 1,2,-1
 50 882 l 1,3,-1
 121 1120 l 1,4,-1
 343 962 l 1,5,-1
 307 1349 l 1,6,-1
 541 1349 l 1,7,-1
 498 962 l 1,8,-1
 719 1108 l 1,9,-1
 786 879 l 1,10,-1
 527 790 l 1,11,-1
 734 454 l 1,12,-1
 566 299 l 1,13,-1
 416 649 l 1,14,-1
 262 299 l 1,0,-1
EndSplineSet
EndChar

StartChar: uni2215
Encoding: 8725 8725 618
Width: 768
VWidth: 2398
GlyphClass: 1
Flags: HW
LayerCount: 2
Fore
SplineSet
222 -246 m 1,0,-1
 66 -207 l 1,1,-1
 597 1913 l 1,2,-1
 752 1871 l 1,3,-1
 222 -246 l 1,0,-1
EndSplineSet
EndChar

StartChar: element
Encoding: 8712 8712 619
Width: 768
VWidth: 2430
GlyphClass: 1
Flags: HW
LayerCount: 2
Fore
SplineSet
515 -19 m 2,0,1
 301 -19 301 -19 181 127.5 c 128,-1,2
 61 274 61 274 61 547 c 0,3,4
 61 819 61 819 183.5 974.5 c 128,-1,5
 306 1130 306 1130 513 1130 c 2,6,-1
 780 1130 l 1,7,-1
 780 974 l 1,8,-1
 540 974 l 2,9,10
 380 974 380 974 302.5 890.5 c 128,-1,11
 225 807 225 807 211 627 c 1,12,-1
 780 627 l 1,13,-1
 780 471 l 1,14,-1
 211 471 l 1,15,16
 223 291 223 291 297 213.5 c 128,-1,17
 371 136 371 136 540 136 c 2,18,-1
 780 136 l 1,19,-1
 780 -19 l 1,20,-1
 515 -19 l 2,0,1
EndSplineSet
EndChar

StartChar: plus
Encoding: 43 43 621
Width: 768
VWidth: 2430
GlyphClass: 1
Flags: HW
LayerCount: 2
Fore
SplineSet
338 253 m 1,0,-1
 338 680 l 1,1,-1
 65 680 l 1,2,-1
 65 888 l 1,3,-1
 338 888 l 1,4,-1
 338 1278 l 1,5,-1
 527 1278 l 1,6,-1
 527 888 l 1,7,-1
 790 888 l 1,8,-1
 790 680 l 1,9,-1
 527 680 l 1,10,-1
 527 253 l 1,11,-1
 338 253 l 1,0,-1
EndSplineSet
EndChar

StartChar: minus
Encoding: 8722 8722 622
Width: 768
VWidth: 2430
GlyphClass: 1
Flags: HW
LayerCount: 2
Fore
SplineSet
65 680 m 1,0,-1
 65 888 l 1,1,-1
 790 888 l 1,2,-1
 790 680 l 1,3,-1
 65 680 l 1,0,-1
EndSplineSet
Substitution2: "'sups' Superscript in Latin lookup 20 subtable" uni207B
Substitution2: "'aalt' Access All Alternates in Latin lookup 0 subtable" uni207B
EndChar

StartChar: multiply
Encoding: 215 215 623
Width: 768
VWidth: 2430
GlyphClass: 1
Flags: HW
LayerCount: 2
Fore
SplineSet
622 338 m 1,0,-1
 433 642 l 1,1,-1
 246 350 l 1,2,-1
 116 501 l 1,3,-1
 316 816 l 1,4,-1
 116 1140 l 1,5,-1
 253 1293 l 1,6,-1
 435 997 l 1,7,-1
 619 1290 l 1,8,-1
 758 1145 l 1,9,-1
 554 819 l 1,10,-1
 753 496 l 1,11,-1
 622 338 l 1,0,-1
EndSplineSet
EndChar

StartChar: divide
Encoding: 247 247 624
Width: 768
VWidth: 2430
GlyphClass: 1
Flags: HW
LayerCount: 2
Fore
SplineSet
433 246 m 0,0,1
 389 246 389 246 356 278.5 c 128,-1,2
 323 311 323 311 323 357 c 0,3,4
 323 406 323 406 357.5 439.5 c 128,-1,5
 392 473 392 473 433 473 c 0,6,7
 479 473 479 473 512 438 c 128,-1,8
 545 403 545 403 545 357 c 128,-1,9
 545 311 545 311 512 278.5 c 128,-1,10
 479 246 479 246 433 246 c 0,0,1
104 654 m 1,11,-1
 104 872 l 1,12,-1
 751 872 l 1,13,-1
 751 654 l 1,14,-1
 104 654 l 1,11,-1
433 1043 m 0,15,16
 389 1043 389 1043 356 1077 c 128,-1,17
 323 1111 323 1111 323 1157 c 128,-1,18
 323 1203 323 1203 357.5 1238 c 128,-1,19
 392 1273 392 1273 433 1273 c 0,20,21
 479 1273 479 1273 512 1238 c 128,-1,22
 545 1203 545 1203 545 1157 c 128,-1,23
 545 1111 545 1111 512 1077 c 128,-1,24
 479 1043 479 1043 433 1043 c 0,15,16
EndSplineSet
EndChar

StartChar: equal
Encoding: 61 61 625
Width: 768
VWidth: 2430
GlyphClass: 1
Flags: HW
LayerCount: 2
Fore
SplineSet
72 415 m 1,0,-1
 72 617 l 1,1,-1
 782 617 l 1,2,-1
 782 415 l 1,3,-1
 72 415 l 1,0,-1
72 921 m 1,4,-1
 72 1120 l 1,5,-1
 782 1120 l 1,6,-1
 782 921 l 1,7,-1
 72 921 l 1,4,-1
EndSplineSet
EndChar

StartChar: notequal
Encoding: 8800 8800 626
Width: 768
VWidth: 2430
GlyphClass: 1
Flags: HW
LayerCount: 2
Fore
SplineSet
72 415 m 1,0,-1
 72 617 l 1,1,-1
 287 617 l 1,2,-1
 403 921 l 1,3,-1
 72 921 l 1,4,-1
 72 1120 l 1,5,-1
 478 1120 l 1,6,-1
 615 1473 l 1,7,-1
 751 1403 l 1,8,-1
 644 1120 l 1,9,-1
 782 1120 l 1,10,-1
 782 921 l 1,11,-1
 566 921 l 1,12,-1
 450 617 l 1,13,-1
 782 617 l 1,14,-1
 782 415 l 1,15,-1
 371 415 l 1,16,-1
 238 65 l 1,17,-1
 100 132 l 1,18,-1
 209 415 l 1,19,-1
 72 415 l 1,0,-1
EndSplineSet
EndChar

StartChar: greater
Encoding: 62 62 627
Width: 768
VWidth: 2430
GlyphClass: 1
Flags: HW
LayerCount: 2
Fore
SplineSet
65 104 m 1,0,-1
 65 362 l 1,1,-1
 586 777 l 1,2,-1
 68 1145 l 1,3,-1
 68 1393 l 1,4,-1
 797 848 l 1,5,-1
 797 712 l 1,6,-1
 65 104 l 1,0,-1
EndSplineSet
EndChar

StartChar: less
Encoding: 60 60 628
Width: 768
VWidth: 2430
GlyphClass: 1
Flags: HW
LayerCount: 2
Fore
SplineSet
788 104 m 1,0,-1
 56 712 l 1,1,-1
 56 848 l 1,2,-1
 786 1393 l 1,3,-1
 786 1145 l 1,4,-1
 269 777 l 1,5,-1
 788 364 l 1,6,-1
 788 104 l 1,0,-1
EndSplineSet
EndChar

StartChar: lessequal
Encoding: 8804 8804 630
Width: 768
VWidth: 2430
GlyphClass: 1
Flags: HW
LayerCount: 2
Fore
SplineSet
74 56 m 1,0,-1
 74 250 l 1,1,-1
 789 250 l 1,2,-1
 789 56 l 1,3,-1
 74 56 l 1,0,-1
789 327 m 1,4,-1
 53 797 l 1,5,-1
 53 939 l 1,6,-1
 789 1412 l 1,7,-1
 789 1181 l 1,8,-1
 260 865 l 1,9,-1
 789 564 l 1,10,-1
 789 327 l 1,4,-1
EndSplineSet
EndChar

StartChar: plusminus
Encoding: 177 177 631
Width: 768
VWidth: 2430
GlyphClass: 1
Flags: HW
LayerCount: 2
Fore
SplineSet
65 9 m 1,0,-1
 65 225 l 1,1,-1
 788 225 l 1,2,-1
 788 9 l 1,3,-1
 65 9 l 1,0,-1
336 371 m 1,4,-1
 336 800 l 1,5,-1
 68 800 l 1,6,-1
 68 1009 l 1,7,-1
 336 1009 l 1,8,-1
 336 1398 l 1,9,-1
 529 1398 l 1,10,-1
 529 1009 l 1,11,-1
 788 1009 l 1,12,-1
 788 800 l 1,13,-1
 529 800 l 1,14,-1
 529 371 l 1,15,-1
 336 371 l 1,4,-1
EndSplineSet
EndChar

StartChar: asciitilde
Encoding: 126 126 633
Width: 768
VWidth: 2430
GlyphClass: 1
Flags: HW
LayerCount: 2
Fore
SplineSet
596 612 m 0,0,1
 538 612 538 612 496 645 c 128,-1,2
 454 678 454 678 421.5 711 c 128,-1,3
 389 744 389 744 352 744 c 0,4,5
 313 744 313 744 281.5 715 c 128,-1,6
 250 686 250 686 225 635 c 1,7,-1
 100 758 l 1,8,9
 132 830 132 830 191 892.5 c 128,-1,10
 250 955 250 955 327 955 c 0,11,12
 390 955 390 955 431.5 922.5 c 128,-1,13
 473 890 473 890 506.5 856.5 c 128,-1,14
 540 823 540 823 573 823 c 0,15,16
 610 823 610 823 635.5 856.5 c 128,-1,17
 661 890 661 890 691 939 c 1,18,-1
 800 795 l 1,19,20
 758 714 758 714 708.5 663 c 128,-1,21
 659 612 659 612 596 612 c 0,0,1
EndSplineSet
Substitution2: "'ss01' Style Set 1 in Latin lookup 35 subtable" asciitilde.ss01
Substitution2: "'salt' Stylistic Alternatives in Latin lookup 34 subtable" asciitilde.ss01
Substitution2: "'aalt' Access All Alternates in Latin lookup 0 subtable" asciitilde.ss01
EndChar

StartChar: logicalnot
Encoding: 172 172 634
Width: 768
VWidth: 2430
GlyphClass: 1
Flags: HW
LayerCount: 2
Fore
SplineSet
505 374 m 1,0,-1
 505 659 l 1,1,-1
 139 659 l 1,2,-1
 139 890 l 1,3,-1
 721 890 l 1,4,-1
 721 374 l 1,5,-1
 505 374 l 1,0,-1
EndSplineSet
EndChar

StartChar: asciicircum
Encoding: 94 94 635
Width: 768
VWidth: 2430
GlyphClass: 1
Flags: HW
LayerCount: 2
Fore
SplineSet
287 821 m 1,0,-1
 121 888 l 1,1,-1
 382 1514 l 1,2,-1
 489 1514 l 1,3,-1
 721 890 l 1,4,-1
 556 821 l 1,5,-1
 427 1159 l 1,6,-1
 287 821 l 1,0,-1
EndSplineSet
Substitution2: "'ss01' Style Set 1 in Latin lookup 35 subtable" asciicircum.ss01
Substitution2: "'salt' Stylistic Alternatives in Latin lookup 34 subtable" asciicircum.ss01
Substitution2: "'aalt' Access All Alternates in Latin lookup 0 subtable" asciicircum.ss01
EndChar

StartChar: infinity
Encoding: 8734 8734 636
Width: 768
VWidth: 2430
GlyphClass: 1
Flags: HW
LayerCount: 2
Fore
SplineSet
609 731 m 0,0,1
 609 780 609 780 591.5 813 c 128,-1,2
 574 846 574 846 543 846 c 0,3,4
 499 846 499 846 455 731 c 1,5,6
 497 610 497 610 545 610 c 0,7,8
 574 610 574 610 591.5 644 c 128,-1,9
 609 678 609 678 609 731 c 0,0,1
304 731 m 1,10,11
 269 850 269 850 221 851 c 0,12,13
 188 851 188 851 170 816.5 c 128,-1,14
 152 782 152 782 152 731 c 0,15,16
 152 685 152 685 170 650 c 128,-1,17
 188 615 188 615 221 615 c 0,18,19
 267 615 267 615 304 731 c 1,10,11
750 726 m 0,20,21
 750 597 750 597 696 504 c 128,-1,22
 642 411 642 411 558 411 c 0,23,24
 449 411 449 411 380 564 c 1,25,26
 343 496 343 496 298.5 454.5 c 128,-1,27
 254 413 254 413 210 413 c 0,28,29
 126 413 126 413 70 502 c 128,-1,30
 14 591 14 591 14 731 c 0,31,32
 14 865 14 865 68 957.5 c 128,-1,33
 122 1050 122 1050 210 1050 c 0,34,35
 258 1050 258 1050 303 1014.5 c 128,-1,36
 348 979 348 979 383 897 c 1,37,38
 454 1048 454 1048 558 1048 c 0,39,40
 642 1048 642 1048 696 960 c 128,-1,41
 750 872 750 872 750 726 c 0,20,21
EndSplineSet
EndChar

StartChar: emptyset
Encoding: 8709 8709 637
Width: 768
VWidth: 2430
GlyphClass: 1
Flags: HW
LayerCount: 2
Fore
SplineSet
389 427 m 0,0,1
 474 427 474 427 530.5 532 c 128,-1,2
 587 637 587 637 587 793 c 0,3,4
 587 876 587 876 569 948 c 1,5,-1
 276 494 l 1,6,7
 325 427 325 427 389 427 c 0,0,1
193 793 m 0,8,9
 193 710 193 710 212 637 c 1,10,-1
 505 1089 l 1,11,12
 454 1152 454 1152 389 1152 c 0,13,14
 306 1152 306 1152 249.5 1049 c 128,-1,15
 193 946 193 946 193 793 c 0,8,9
118 253 m 1,16,-1
 22 345 l 1,17,-1
 109 478 l 1,18,19
 49 617 49 617 49 793 c 0,20,21
 49 941 49 941 92.5 1061 c 128,-1,22
 136 1181 136 1181 212.5 1252.5 c 128,-1,23
 289 1324 289 1324 389 1324 c 0,24,25
 449 1324 449 1324 501.5 1297.5 c 128,-1,26
 554 1271 554 1271 594 1225 c 1,27,-1
 664 1334 l 1,28,-1
 758 1239 l 1,29,-1
 671 1103 l 1,30,31
 733 967 733 967 734 793 c 0,32,33
 734 647 734 647 689.5 525 c 128,-1,34
 645 403 645 403 568.5 330 c 128,-1,35
 492 257 492 257 389 257 c 0,36,37
 331 257 331 257 279 284 c 128,-1,38
 227 311 227 311 187 357 c 1,39,-1
 118 253 l 1,16,-1
EndSplineSet
EndChar

StartChar: integral
Encoding: 8747 8747 638
Width: 768
VWidth: 2347
GlyphClass: 1
Flags: HW
LayerCount: 2
Fore
SplineSet
201 -246 m 0,0,1
 134 -246 134 -246 76 -208 c 1,2,-1
 76 -11 l 1,3,4
 102 -25 102 -25 125 -36 c 128,-1,5
 148 -47 148 -47 172 -47 c 0,6,7
 218 -47 218 -47 242 1 c 128,-1,8
 266 49 266 49 266 157 c 2,9,-1
 266 1456 l 2,10,11
 266 1661 266 1661 337 1753.5 c 128,-1,12
 408 1846 408 1846 525 1846 c 0,13,14
 561 1846 561 1846 591 1837 c 128,-1,15
 621 1828 621 1828 647 1812 c 1,16,-1
 647 1616 l 1,17,18
 624 1626 624 1626 597.5 1637 c 128,-1,19
 571 1648 571 1648 551 1648 c 0,20,21
 503 1648 503 1648 479.5 1602 c 128,-1,22
 456 1556 456 1556 456 1430 c 2,23,-1
 456 135 l 2,24,25
 456 -62 456 -62 382.5 -154 c 128,-1,26
 309 -246 309 -246 201 -246 c 0,0,1
EndSplineSet
EndChar

StartChar: uni2126
Encoding: 8486 8486 639
Width: 768
VWidth: 2430
GlyphClass: 1
Flags: HW
LayerCount: 2
Fore
SplineSet
399 1361 m 0,0,1
 312 1361 312 1361 269 1244 c 128,-1,2
 226 1127 226 1127 226 907 c 0,3,4
 226 472 226 472 352 323 c 1,5,-1
 352 0 l 1,6,-1
 30 0 l 1,7,-1
 30 262 l 1,8,-1
 184 262 l 1,9,10
 112 357 112 357 72 534.5 c 128,-1,11
 32 712 32 712 32 955 c 0,12,13
 32 1296 32 1296 129 1468 c 128,-1,14
 226 1640 226 1640 396 1640 c 0,15,16
 560 1640 560 1640 659.5 1471.5 c 128,-1,17
 759 1303 759 1303 759 955 c 0,18,19
 759 714 759 714 722.5 538 c 128,-1,20
 686 362 686 362 609 262 c 1,21,-1
 766 262 l 1,22,-1
 766 0 l 1,23,-1
 439 0 l 1,24,-1
 439 323 l 1,25,26
 513 404 513 404 541 551 c 128,-1,27
 569 698 569 698 569 909 c 0,28,29
 569.005813953 911.627906977 569.005813953 911.627906977 569.005813953 914.240535425 c 0,0,0
 569.005813953 1361 569.005813953 1361 399 1361 c 0,0,1
EndSplineSet
EndChar

StartChar: uni2206
Encoding: 8710 8710 640
Width: 768
VWidth: 2430
GlyphClass: 1
Flags: HW
LayerCount: 2
Fore
SplineSet
564 223 m 1,0,-1
 408 1331 l 1,1,-1
 404 1331 l 1,2,-1
 242 223 l 1,3,-1
 564 223 l 1,0,-1
522 1640 m 1,4,-1
 771 155 l 1,5,-1
 771 0 l 1,6,-1
 35 0 l 1,7,-1
 35 158 l 1,8,-1
 289 1640 l 1,9,-1
 522 1640 l 1,4,-1
EndSplineSet
EndChar

StartChar: product
Encoding: 8719 8719 641
Width: 768
VWidth: 2329
GlyphClass: 1
Flags: HW
LayerCount: 2
Fore
SplineSet
62 -246 m 1,0,-1
 62 1514 l 1,1,-1
 706 1514 l 1,2,3
 706 1495 706 1495 699 1485 c 128,-1,4
 692 1475 692 1475 690 1438 c 2,5,-1
 690 -246 l 1,6,-1
 502 -246 l 1,7,-1
 502 1334 l 1,8,-1
 254 1334 l 1,9,-1
 254 -246 l 1,10,-1
 62 -246 l 1,0,-1
EndSplineSet
EndChar

StartChar: summation
Encoding: 8721 8721 642
Width: 768
VWidth: 2362
GlyphClass: 1
Flags: HW
LayerCount: 2
Fore
SplineSet
29 -246 m 1,0,-1
 29 -70 l 1,1,-1
 343 690 l 1,2,-1
 40 1447 l 1,3,-1
 40 1623 l 1,4,-1
 729 1623 l 1,5,-1
 729 1423 l 1,6,-1
 265 1423 l 1,7,-1
 551 694 l 1,8,-1
 245 -46 l 1,9,-1
 751 -46 l 1,10,-1
 751 -246 l 1,11,-1
 29 -246 l 1,0,-1
EndSplineSet
EndChar

StartChar: radical
Encoding: 8730 8730 643
Width: 768
VWidth: 2430
GlyphClass: 1
Flags: HW
LayerCount: 2
Fore
SplineSet
261 -17 m 1,0,-1
 120 637 l 1,1,-1
 3 637 l 1,2,-1
 3 841 l 1,3,-1
 232 841 l 1,4,-1
 321 427 l 1,5,-1
 559 1640 l 1,6,-1
 739 1640 l 1,7,-1
 410 -17 l 1,8,-1
 261 -17 l 1,0,-1
EndSplineSet
EndChar

StartChar: uni00B5
Encoding: 181 181 644
Width: 768
VWidth: 2318
GlyphClass: 1
Flags: HW
LayerCount: 2
Fore
SplineSet
11 -246 m 1,0,1
 11 -161 11 -161 25.5 46 c 128,-1,2
 40 253 40 253 40 550 c 2,3,-1
 40 1130 l 1,4,-1
 219 1130 l 1,5,-1
 219 503 l 2,6,7
 219 365 219 365 241 315 c 128,-1,8
 263 265 263 265 307 265 c 0,9,10
 399 265 399 265 399 499 c 2,11,-1
 399 1130 l 1,12,-1
 576 1130 l 1,13,-1
 576 374 l 2,14,15
 576 281 576 281 616 281 c 0,16,17
 631 281 631 281 647.5 301 c 128,-1,18
 664 321 664 321 672 345 c 2,19,-1
 683 378 l 1,20,-1
 747 202 l 1,21,22
 684 71 684 71 600 71 c 0,23,24
 560 71 560 71 530.5 104.5 c 128,-1,25
 501 138 501 138 488 185 c 1,26,27
 467 132 467 132 421.5 104 c 128,-1,28
 376 76 376 76 326 76 c 0,29,30
 284 76 284 76 242 105 c 128,-1,31
 200 134 200 134 182 192 c 1,32,33
 182 132 182 132 181 50.5 c 128,-1,34
 180 -31 180 -31 179 -109.5 c 128,-1,35
 178 -188 178 -188 178 -246 c 1,36,-1
 11 -246 l 1,0,1
EndSplineSet
EndChar

StartChar: partialdiff
Encoding: 8706 8706 645
Width: 768
VWidth: 2430
GlyphClass: 1
Flags: HW
LayerCount: 2
Fore
SplineSet
368 170 m 0,0,1
 436 170 436 170 479.5 250.5 c 128,-1,2
 523 331 523 331 544.5 460 c 128,-1,3
 566 589 566 589 573 733 c 1,4,5
 514 911 514 911 414 911 c 0,6,7
 359 911 359 911 322 866 c 128,-1,8
 285 821 285 821 263.5 747 c 128,-1,9
 242 673 242 673 235.5 587 c 128,-1,10
 232.12 542.28 232.12 542.28 232.12 497.56 c 0,0,0
 232.12 456.28 232.12 456.28 235 415 c 0,11,12
 244 289 244 289 277.5 229.5 c 128,-1,13
 311 170 311 170 368 170 c 0,0,1
356 -27 m 0,14,15
 208 -27 208 -27 129 102 c 128,-1,16
 50 231 50 231 37 425 c 0,17,18
 33.693877551 469.448979592 33.693877551 469.448979592 33.693877551 513.76301541 c 0,0,0
 33.693877551 590.081632653 33.693877551 590.081632653 43.5 666 c 128,-1,19
 59 786 59 786 100.5 883.5 c 128,-1,20
 142 981 142 981 209 1041 c 128,-1,21
 276 1101 276 1101 372 1101 c 0,22,23
 438 1101 438 1101 487 1069 c 128,-1,24
 536 1037 536 1037 571 981 c 1,25,26
 573 1002 573 1002 571 1025 c 128,-1,27
 569 1048 569 1048 566 1071 c 0,28,29
 555 1212 555 1212 511.5 1311 c 128,-1,30
 468 1410 468 1410 363 1410 c 0,31,32
 320 1410 320 1410 266 1392.5 c 128,-1,33
 212 1375 212 1375 169 1336 c 1,34,-1
 153 1543 l 1,35,36
 201 1575 201 1575 256 1591 c 128,-1,37
 311 1607 311 1607 366 1607 c 0,38,39
 503 1607 503 1607 585 1535 c 128,-1,40
 667 1463 667 1463 708 1327 c 128,-1,41
 749 1191 749 1191 763 997 c 0,42,43
 769.62745098 899.117647059 769.62745098 899.117647059 769.62745098 803.444444444 c 0,0,0
 769.62745098 711.450980392 769.62745098 711.450980392 763.5 621.5 c 128,-1,44
 751 438 751 438 704.5 292 c 128,-1,45
 658 146 658 146 573.5 59.5 c 128,-1,46
 489 -27 489 -27 356 -27 c 0,14,15
EndSplineSet
EndChar

StartChar: percent
Encoding: 37 37 646
Width: 768
VWidth: 2430
GlyphClass: 1
Flags: HW
LayerCount: 2
Fore
SplineSet
580 136 m 0,0,1
 607 136 607 136 623 177 c 128,-1,2
 639 218 639 218 639 287 c 0,3,4
 639 357 639 357 624 400 c 128,-1,5
 609 443 609 443 577 443 c 0,6,7
 519 443 519 443 519 292 c 0,8,9
 520 136 520 136 580 136 c 0,0,1
580 -24 m 0,10,11
 499 -24 499 -24 445.5 60 c 128,-1,12
 392 144 392 144 392 290 c 128,-1,13
 392 436 392 436 446 520.5 c 128,-1,14
 500 605 500 605 580 605 c 0,15,16
 659 605 659 605 711 519 c 128,-1,17
 763 433 763 433 763 290 c 0,18,19
 763 142 763 142 711 59 c 128,-1,20
 659 -24 659 -24 580 -24 c 0,10,11
213 1071 m 0,21,22
 271 1071 271 1071 271 1225 c 0,23,24
 271 1378 271 1378 213 1378 c 0,25,26
 157 1378 157 1378 156 1225 c 0,27,28
 157 1071 157 1071 213 1071 c 0,21,22
47 0 m 1,29,-1
 594 1514 l 1,30,-1
 744 1514 l 1,31,-1
 195 0 l 1,32,-1
 47 0 l 1,29,-1
213 909 m 0,33,34
 136 909 136 909 81.5 992.5 c 128,-1,35
 27 1076 27 1076 27 1225 c 0,36,37
 27 1371 27 1371 82 1455.5 c 128,-1,38
 137 1540 137 1540 213 1540 c 0,39,40
 294 1540 294 1540 347.5 1454 c 128,-1,41
 401 1368 401 1368 401 1222 c 0,42,43
 401 1071 401 1071 348.5 990 c 128,-1,44
 296 909 296 909 213 909 c 0,33,34
EndSplineSet
EndChar

StartChar: perthousand
Encoding: 8240 8240 647
Width: 768
VWidth: 2430
GlyphClass: 1
Flags: HW
LayerCount: 2
Fore
SplineSet
590 126 m 0
 612 126 612 126 629 164 c 0
 646 202 646 202 646 269 c 0
 646 334 646 334 630 372 c 0
 614 410 614 410 587 411 c 0
 565 411 565 411 549 376 c 0
 533 341 533 341 533 272 c 0
 532.947368421 268.315789474 532.947368421 268.315789474 532.947368421 264.720221607 c 0,0,0
 532.947368421 200 532.947368421 200 550 164 c 0
 568 126 568 126 590 126 c 0
206 126 m 0
 228 126 228 126 244 164 c 0
 260 202 260 202 260 269 c 0
 260 334 260 334 246 372 c 0
 232 410 232 410 203 411 c 0
 181 411 181 411 165 376 c 0
 149 341 149 341 149 272 c 0
 148.941176471 267.882352941 148.941176471 267.882352941 148.941176471 263.875432526 c 0,0,0
 148.941176471 199.764705882 148.941176471 199.764705882 164 164 c 0
 180 126 180 126 206 126 c 0
590 -21 m 0
 522 -21 522 -21 472 54 c 0
 422 129 422 129 421 269 c 0
 422 404 422 404 472 486 c 0
 522 568 522 568 590 568 c 0
 660 568 660 568 710 490 c 0
 759.019607843 413.529411765 759.019607843 413.529411765 759.019607843 274.582852749 c 0,0,0
 759.019607843 271.803921569 759.019607843 271.803921569 759 269 c 0
 759.018867925 266.283018868 759.018867925 266.283018868 759.018867925 263.591313635 c 0,0,0
 759.018867925 123.622641509 759.018867925 123.622641509 708 52 c 0
 656 -21 656 -21 590 -21 c 0
206 -21 m 0
 138 -21 138 -21 88 54 c 0
 38 129 38 129 37 269 c 0
 37 410 37 410 87 489 c 0
 138 568 138 568 206 568 c 0
 276 568 276 568 326 488 c 0
 375.019607843 409.568627451 375.019607843 409.568627451 375.019607843 274.428296809 c 0,0,0
 375.019607843 271.725490196 375.019607843 271.725490196 375 269 c 0
 375.018867925 266.283018868 375.018867925 266.283018868 375.018867925 263.591313635 c 0,0,0
 375.018867925 123.622641509 375.018867925 123.622641509 324 52 c 0
 272 -21 272 -21 206 -21 c 0
32 542 m 1
 32 710 l 1
 768 1300 l 1
 768 1132 l 1
 32 542 l 1
206 1103 m 0
 228 1104 228 1104 244 1140 c 0
 260 1176 260 1176 260 1247 c 0
 260 1310 260 1310 246 1348 c 0
 232 1386 232 1386 203 1387 c 0
 181 1387 181 1387 165 1352 c 0
 149 1317 149 1317 149 1247 c 0
 148.941176471 1242.88235294 148.941176471 1242.88235294 148.941176471 1238.87889273 c 0,0,0
 148.941176471 1174.82352941 148.941176471 1174.82352941 164 1140 c 0
 180 1103 180 1103 206 1103 c 0
206 953 m 0
 138 953 138 953 88 1028 c 0
 38 1103 38 1103 37 1247 c 0
 37 1388 37 1388 87 1466 c 0
 137.35443038 1543.01265823 137.35443038 1543.01265823 204.281204935 1543.01265823 c 0,0,0
 205.139240506 1543.01265823 205.139240506 1543.01265823 206 1543 c 0
 276 1543 276 1543 326 1465 c 0
 375.019607843 1388.52941176 375.019607843 1388.52941176 375.019607843 1252.46635909 c 0,0,0
 375.019607843 1249.74509804 375.019607843 1249.74509804 375 1247 c 0
 375.018867925 1244.28301887 375.018867925 1244.28301887 375.018867925 1241.59060164 c 0,0,0
 375.018867925 1101.58490566 375.018867925 1101.58490566 324 1028 c 0
 272 953 272 953 206 953 c 0
EndSplineSet
EndChar

StartChar: circleplus
Encoding: 8853 8853 648
Width: 768
VWidth: 2430
GlyphClass: 1
Flags: HW
LayerCount: 2
Fore
SplineSet
350 438 m 1,0,-1
 350 691 l 1,1,-1
 208 691 l 1,2,-1
 208 821 l 1,3,-1
 350 821 l 1,4,-1
 350 1050 l 1,5,-1
 472 1050 l 1,6,-1
 472 821 l 1,7,-1
 610 821 l 1,8,-1
 610 691 l 1,9,-1
 472 691 l 1,10,-1
 472 438 l 1,11,-1
 350 438 l 1,0,-1
409 376 m 0,12,13
 512 376 512 376 582 482.5 c 128,-1,14
 652 589 652 589 652 749 c 128,-1,15
 652 909 652 909 582 1013.5 c 128,-1,16
 512 1118 512 1118 409 1118 c 0,17,18
 304 1118 304 1118 233.5 1013.5 c 128,-1,19
 163 909 163 909 163 749 c 128,-1,20
 163 589 163 589 233.5 482.5 c 128,-1,21
 304 376 304 376 409 376 c 0,12,13
409 243 m 0,22,23
 304 243 304 243 221 307 c 128,-1,24
 138 371 138 371 89 484.5 c 128,-1,25
 40 598 40 598 40 749 c 128,-1,26
 40 900 40 900 89 1012.5 c 128,-1,27
 138 1125 138 1125 221 1189.5 c 128,-1,28
 304 1254 304 1254 409 1254 c 0,29,30
 512 1254 512 1254 595 1189.5 c 128,-1,31
 678 1125 678 1125 727 1012 c 128,-1,32
 776 899 776 899 776 749 c 0,33,34
 776 598 776 598 727 484.5 c 128,-1,35
 678 371 678 371 595 307 c 128,-1,36
 512 243 512 243 409 243 c 0,22,23
EndSplineSet
EndChar

StartChar: arrowup
Encoding: 8593 8593 651
Width: 768
VWidth: 2430
GlyphClass: 1
Flags: HW
LayerCount: 2
Fore
SplineSet
310 0 m 1,0,-1
 310 981 l 1,1,-1
 180 753 l 1,2,-1
 42 916 l 1,3,-1
 362 1495 l 1,4,-1
 458 1495 l 1,5,-1
 778 916 l 1,6,-1
 642 753 l 1,7,-1
 512 979 l 1,8,-1
 512 0 l 1,9,-1
 310 0 l 1,0,-1
EndSplineSet
EndChar

StartChar: uni2197
Encoding: 8599 8599 652
Width: 768
VWidth: 2430
GlyphClass: 1
Flags: HW
LayerCount: 2
Fore
SplineSet
28 420 m 1,0,-1
 435 1115 l 1,1,-1
 192 1064 l 1,2,-1
 181 1283 l 1,3,-1
 694 1385 l 1,4,-1
 764 1280 l 1,5,-1
 711 584 l 1,6,-1
 532 600 l 1,7,-1
 565 953 l 1,8,-1
 172 292 l 1,9,-1
 28 420 l 1,0,-1
EndSplineSet
EndChar

StartChar: arrowright
Encoding: 8594 8594 653
Width: 768
VWidth: 2430
GlyphClass: 1
Flags: HW
LayerCount: 2
Fore
SplineSet
18 831 m 1,0,-1
 453 831 l 1,1,-1
 245 1130 l 1,2,-1
 378 1266 l 1,3,-1
 754 775 l 1,4,-1
 754 666 l 1,5,-1
 378 174 l 1,6,-1
 245 313 l 1,7,-1
 453 608 l 1,8,-1
 18 608 l 1,9,-1
 18 831 l 1,0,-1
EndSplineSet
EndChar

StartChar: arrowboth
Encoding: 8596 8596 659
Width: 768
VWidth: 2430
GlyphClass: 1
Flags: HW
LayerCount: 2
Fore
SplineSet
554 1191 m 1,0,-1
 749 770 l 1,1,-1
 749 659 l 1,2,-1
 552 248 l 1,3,-1
 418 348 l 1,4,-1
 526 608 l 1,5,-1
 234 608 l 1,6,-1
 345 348 l 1,7,-1
 209 248 l 1,8,-1
 13 659 l 1,9,-1
 13 770 l 1,10,-1
 209 1191 l 1,11,-1
 347 1101 l 1,12,-1
 232 831 l 1,13,-1
 529 831 l 1,14,-1
 418 1101 l 1,15,-1
 554 1191 l 1,0,-1
EndSplineSet
EndChar

StartChar: arrowupdn
Encoding: 8597 8597 660
Width: 768
VWidth: 2430
GlyphClass: 1
Flags: HW
LayerCount: 2
Fore
SplineSet
765 427 m 1,0,-1
 462 107 l 1,1,-1
 382 107 l 1,2,-1
 81 430 l 1,3,-1
 158 615 l 1,4,-1
 316 462 l 1,5,-1
 316 1037 l 1,6,-1
 158 879 l 1,7,-1
 83 1071 l 1,8,-1
 382 1389 l 1,9,-1
 462 1389 l 1,10,-1
 765 1069 l 1,11,-1
 693 877 l 1,12,-1
 529 1037 l 1,13,-1
 529 457 l 1,14,-1
 693 615 l 1,15,-1
 765 427 l 1,0,-1
EndSplineSet
EndChar

StartChar: uni21E7
Encoding: 8679 8679 661
Width: 768
VWidth: 2430
GlyphClass: 1
Flags: HW
LayerCount: 2
Fore
SplineSet
346 126 m 1,0,-1
 508 126 l 1,1,-1
 508 1016 l 1,2,-1
 637 1016 l 1,3,-1
 425 1349 l 1,4,-1
 222 1016 l 1,5,-1
 346 1016 l 1,6,-1
 346 126 l 1,0,-1
228 0 m 1,7,-1
 228 888 l 1,8,-1
 58 888 l 1,9,-1
 58 994 l 1,10,-1
 404 1546 l 1,11,-1
 450 1546 l 1,12,-1
 794 994 l 1,13,-1
 794 888 l 1,14,-1
 624 888 l 1,15,-1
 624 0 l 1,16,-1
 228 0 l 1,7,-1
EndSplineSet
EndChar

StartChar: uni21E8
Encoding: 8680 8680 662
Width: 768
VWidth: 2430
GlyphClass: 1
Flags: HW
LayerCount: 2
Fore
SplineSet
119 833 m 1,0,-1
 119 545 l 1,1,-1
 441 545 l 1,2,-1
 441 418 l 1,3,-1
 631 691 l 1,4,-1
 441 962 l 1,5,-1
 441 833 l 1,6,-1
 119 833 l 1,0,-1
13 960 m 1,7,-1
 333 960 l 1,8,-1
 333 1217 l 1,9,-1
 401 1217 l 1,10,-1
 749 721 l 1,11,-1
 749 656 l 1,12,-1
 401 163 l 1,13,-1
 333 163 l 1,14,-1
 333 418 l 1,15,-1
 13 418 l 1,16,-1
 13 960 l 1,7,-1
EndSplineSet
EndChar

StartChar: uni2B06
Encoding: 11014 11014 665
Width: 768
VWidth: 2430
GlyphClass: 1
Flags: HW
LayerCount: 2
Fore
SplineSet
794 994 m 1,0,-1
 794 888 l 1,1,-1
 614 888 l 1,2,-1
 614 0 l 1,3,-1
 237 0 l 1,4,-1
 237 888 l 1,5,-1
 58 888 l 1,6,-1
 58 994 l 1,7,-1
 404 1546 l 1,8,-1
 450 1546 l 1,9,-1
 794 994 l 1,0,-1
EndSplineSet
EndChar

StartChar: uni2B05
Encoding: 11013 11013 668
Width: 768
VWidth: 2430
GlyphClass: 1
Flags: HW
LayerCount: 2
Fore
SplineSet
749 418 m 1,0,-1
 429 418 l 1,1,-1
 429 163 l 1,2,-1
 362 163 l 1,3,-1
 13 656 l 1,4,-1
 13 721 l 1,5,-1
 362 1217 l 1,6,-1
 429 1217 l 1,7,-1
 429 960 l 1,8,-1
 749 960 l 1,9,-1
 749 418 l 1,0,-1
EndSplineSet
EndChar

StartChar: dneighthblock
Encoding: 9601 9601 669
Width: 768
VWidth: 2429
GlyphClass: 1
Flags: HW
LayerCount: 2
Fore
SplineSet
619 -246 m 1,0,-1
 619 -547 l 1,1,-1
 16 -547 l 1,2,-1
 16 -246 l 1,3,-1
 619 -246 l 1,0,-1
EndSplineSet
EndChar

StartChar: dnquarterblock
Encoding: 9602 9602 670
Width: 768
VWidth: 252
GlyphClass: 1
Flags: HW
LayerCount: 2
Fore
SplineSet
-17 -246 m 1,0,-1
 -17 -121 l 1,1,-1
 108 -121 l 1,2,-1
 108 -246 l 1,3,-1
 -17 -246 l 1,0,-1
EndSplineSet
EndChar

StartChar: dnthreeeighthsblock
Encoding: 9603 9603 671
Width: 768
VWidth: 1219
GlyphClass: 1
Flags: HW
LayerCount: 2
Fore
SplineSet
-18 -246 m 1,0,-1
 -18 304 l 1,1,-1
 349 304 l 1,2,-1
 349 -246 l 1,3,-1
 -18 -246 l 1,0,-1
EndSplineSet
EndChar

StartChar: dnhalfblock
Encoding: 9604 9604 672
Width: 768
VWidth: 1702
GlyphClass: 1
Flags: HW
LayerCount: 2
Fore
SplineSet
-18 -246 m 1,0,-1
 -18 729 l 1,1,-1
 470 729 l 1,2,-1
 470 -246 l 1,3,-1
 -18 -246 l 1,0,-1
EndSplineSet
EndChar

StartChar: dnfiveeighthsblock
Encoding: 9605 9605 673
Width: 768
VWidth: 1993
GlyphClass: 1
Flags: HW
LayerCount: 2
Fore
SplineSet
-17 -246 m 1,0,-1
 -17 1155 l 1,1,-1
 543 1155 l 1,2,-1
 543 -246 l 1,3,-1
 -17 -246 l 1,0,-1
EndSplineSet
EndChar

StartChar: dnthreequartersblock
Encoding: 9606 9606 674
Width: 768
VWidth: 2187
GlyphClass: 1
Flags: HW
LayerCount: 2
Fore
SplineSet
-18 -246 m 1,0,-1
 -18 1579 l 1,1,-1
 591 1579 l 1,2,-1
 591 -246 l 1,3,-1
 -18 -246 l 1,0,-1
EndSplineSet
EndChar

StartChar: dnseveneighthsblock
Encoding: 9607 9607 675
Width: 768
VWidth: 2325
GlyphClass: 1
Flags: HW
LayerCount: 2
Fore
SplineSet
-17 -246 m 1,0,-1
 -17 2005 l 1,1,-1
 626 2005 l 1,2,-1
 626 -246 l 1,3,-1
 -17 -246 l 1,0,-1
EndSplineSet
EndChar

StartChar: fullblock
Encoding: 9608 9608 676
Width: 768
VWidth: 2430
GlyphClass: 1
Flags: HW
LayerCount: 2
Fore
SplineSet
-18 -246 m 1,0,-1
 -18 2430 l 1,1,-1
 651 2430 l 1,2,-1
 651 -246 l 1,3,-1
 -18 -246 l 1,0,-1
EndSplineSet
EndChar

StartChar: uphalfblock
Encoding: 9600 9600 677
Width: 768
VWidth: 2430
GlyphClass: 1
Flags: HW
LayerCount: 2
Fore
SplineSet
-18 729 m 1,0,-1
 -18 2430 l 1,1,-1
 718 2430 l 1,2,-1
 718 729 l 1,3,-1
 -18 729 l 1,0,-1
EndSplineSet
EndChar

StartChar: upeighthblock
Encoding: 9620 9620 678
Width: 768
VWidth: 2430
GlyphClass: 1
Flags: HW
LayerCount: 2
Fore
SplineSet
-18 2005 m 1,0,-1
 -18 2430 l 1,1,-1
 718 2430 l 1,2,-1
 718 2005 l 1,3,-1
 -18 2005 l 1,0,-1
EndSplineSet
EndChar

StartChar: lefteighthblock
Encoding: 9615 9615 679
Width: 768
VWidth: 2430
GlyphClass: 1
Flags: HW
LayerCount: 2
Fore
SplineSet
16 -246 m 1,0,-1
 16 2430 l 1,1,-1
 100 2430 l 1,2,-1
 100 -246 l 1,3,-1
 16 -246 l 1,0,-1
EndSplineSet
EndChar

StartChar: leftquarterblock
Encoding: 9614 9614 680
Width: 768
VWidth: 2430
GlyphClass: 1
Flags: HW
LayerCount: 2
Fore
SplineSet
16 -246 m 1,0,-1
 16 2430 l 1,1,-1
 184 2430 l 1,2,-1
 184 -246 l 1,3,-1
 16 -246 l 1,0,-1
EndSplineSet
EndChar

StartChar: leftthreeeighthsblock
Encoding: 9613 9613 681
Width: 768
VWidth: 2430
GlyphClass: 1
Flags: HW
LayerCount: 2
Fore
SplineSet
16 -246 m 1,0,-1
 16 2430 l 1,1,-1
 268 2430 l 1,2,-1
 268 -246 l 1,3,-1
 16 -246 l 1,0,-1
EndSplineSet
EndChar

StartChar: lefthalfblock
Encoding: 9612 9612 682
Width: 768
VWidth: 2430
GlyphClass: 1
Flags: HW
LayerCount: 2
Fore
SplineSet
16 -246 m 1,0,-1
 16 2430 l 1,1,-1
 350 2430 l 1,2,-1
 350 -246 l 1,3,-1
 16 -246 l 1,0,-1
EndSplineSet
EndChar

StartChar: leftfiveeighthsblock
Encoding: 9611 9611 683
Width: 768
VWidth: 2430
GlyphClass: 1
Flags: HW
LayerCount: 2
Fore
SplineSet
16 -246 m 1,0,-1
 16 2430 l 1,1,-1
 435 2430 l 1,2,-1
 435 -246 l 1,3,-1
 16 -246 l 1,0,-1
EndSplineSet
EndChar

StartChar: leftthreequartersblock
Encoding: 9610 9610 684
Width: 768
VWidth: 2430
GlyphClass: 1
Flags: HW
LayerCount: 2
Fore
SplineSet
16 -246 m 1,0,-1
 16 2430 l 1,1,-1
 519 2430 l 1,2,-1
 519 -246 l 1,3,-1
 16 -246 l 1,0,-1
EndSplineSet
EndChar

StartChar: leftseveneighthsblock
Encoding: 9609 9609 685
Width: 768
VWidth: 2430
GlyphClass: 1
Flags: HW
LayerCount: 2
Fore
SplineSet
16 -246 m 1,0,-1
 16 2430 l 1,1,-1
 603 2430 l 1,2,-1
 603 -246 l 1,3,-1
 16 -246 l 1,0,-1
EndSplineSet
EndChar

StartChar: righthalfblock
Encoding: 9616 9616 686
Width: 768
VWidth: 2430
GlyphClass: 1
Flags: HW
LayerCount: 2
Fore
SplineSet
316 -246 m 1,0,-1
 316 2430 l 1,1,-1
 651 2430 l 1,2,-1
 651 -246 l 1,3,-1
 316 -246 l 1,0,-1
EndSplineSet
EndChar

StartChar: righteighthblock
Encoding: 9621 9621 687
Width: 768
VWidth: 2430
GlyphClass: 1
Flags: HW
LayerCount: 2
Fore
SplineSet
569 -246 m 1,0,-1
 569 2430 l 1,1,-1
 651 2430 l 1,2,-1
 651 -246 l 1,3,-1
 569 -246 l 1,0,-1
EndSplineSet
EndChar

StartChar: dnleftquadrant
Encoding: 9622 9622 688
Width: 768
VWidth: 1702
GlyphClass: 1
Flags: HW
LayerCount: 2
Fore
SplineSet
16 -246 m 1,0,-1
 16 729 l 1,1,-1
 259 729 l 1,2,-1
 259 -246 l 1,3,-1
 16 -246 l 1,0,-1
EndSplineSet
EndChar

StartChar: dnrightquadrant
Encoding: 9623 9623 689
Width: 768
VWidth: 1702
GlyphClass: 1
Flags: HW
LayerCount: 2
Fore
SplineSet
226 -246 m 1,0,-1
 226 729 l 1,1,-1
 470 729 l 1,2,-1
 470 -246 l 1,3,-1
 226 -246 l 1,0,-1
EndSplineSet
EndChar

StartChar: upleftquadrant
Encoding: 9624 9624 690
Width: 768
VWidth: 2430
GlyphClass: 1
Flags: HW
LayerCount: 2
Fore
SplineSet
16 729 m 1,0,-1
 16 2430 l 1,1,-1
 441 2430 l 1,2,-1
 441 729 l 1,3,-1
 16 729 l 1,0,-1
EndSplineSet
EndChar

StartChar: upleftdnleftdnrightquadrant
Encoding: 9625 9625 691
Width: 768
VWidth: 2430
GlyphClass: 1
Flags: HW
LayerCount: 2
Fore
SplineSet
-18 -246 m 1,0,-1
 -18 2430 l 1,1,-1
 316 2430 l 1,2,-1
 316 1092 l 1,3,-1
 651 1092 l 1,4,-1
 651 -246 l 1,5,-1
 -18 -246 l 1,0,-1
EndSplineSet
EndChar

StartChar: upleftdnrightquadrant
Encoding: 9626 9626 692
Width: 768
VWidth: 2430
GlyphClass: 1
Flags: HW
LayerCount: 2
Fore
SplineSet
316 1092 m 1,0,-1
 651 1092 l 1,1,-1
 651 -246 l 1,2,-1
 316 -246 l 1,3,-1
 316 1092 l 1,0,-1
316 1092 m 1,4,-1
 -18 1092 l 1,5,-1
 -18 2430 l 1,6,-1
 316 2430 l 1,7,-1
 316 1092 l 1,4,-1
EndSplineSet
EndChar

StartChar: upleftuprightdnleftquadrant
Encoding: 9627 9627 693
Width: 768
VWidth: 2430
GlyphClass: 1
Flags: HW
LayerCount: 2
Fore
SplineSet
-18 -246 m 1,0,-1
 -18 2430 l 1,1,-1
 651 2430 l 1,2,-1
 651 1092 l 1,3,-1
 316 1092 l 1,4,-1
 316 -246 l 1,5,-1
 -18 -246 l 1,0,-1
EndSplineSet
EndChar

StartChar: upleftuprightdnrightquadrant
Encoding: 9628 9628 694
Width: 768
VWidth: 2430
GlyphClass: 1
Flags: HW
LayerCount: 2
Fore
SplineSet
316 -246 m 1,0,-1
 316 1092 l 1,1,-1
 -18 1092 l 1,2,-1
 -18 2430 l 1,3,-1
 651 2430 l 1,4,-1
 651 -246 l 1,5,-1
 316 -246 l 1,0,-1
EndSplineSet
EndChar

StartChar: uprightquadrant
Encoding: 9629 9629 695
Width: 768
VWidth: 2430
GlyphClass: 1
Flags: HW
LayerCount: 2
Fore
SplineSet
407 729 m 1,0,-1
 407 2430 l 1,1,-1
 833 2430 l 1,2,-1
 833 729 l 1,3,-1
 407 729 l 1,0,-1
EndSplineSet
EndChar

StartChar: uprightdnleftquadrant
Encoding: 9630 9630 696
Width: 768
VWidth: 2430
GlyphClass: 1
Flags: HW
LayerCount: 2
Fore
SplineSet
-18 -246 m 1,0,-1
 -18 1092 l 1,1,-1
 316 1092 l 1,2,-1
 316 -246 l 1,3,-1
 -18 -246 l 1,0,-1
316 1092 m 1,4,-1
 316 2430 l 1,5,-1
 651 2430 l 1,6,-1
 651 1092 l 1,7,-1
 316 1092 l 1,4,-1
EndSplineSet
EndChar

StartChar: uprightdnleftdnrightquadrant
Encoding: 9631 9631 697
Width: 768
VWidth: 2430
GlyphClass: 1
Flags: HW
LayerCount: 2
Fore
SplineSet
-18 -246 m 1,0,-1
 -18 1092 l 1,1,-1
 316 1092 l 1,2,-1
 316 2430 l 1,3,-1
 651 2430 l 1,4,-1
 651 -246 l 1,5,-1
 -18 -246 l 1,0,-1
EndSplineSet
EndChar

StartChar: lightshade
Encoding: 9617 9617 698
Width: 768
VWidth: 2419
GlyphClass: 1
Flags: HW
LayerCount: 2
Fore
SplineSet
9 -246 m 1
 9 -126 l 1
 94 -126 l 1
 94 -246 l 1
 9 -246 l 1
236 -246 m 1
 236 -126 l 1
 320 -126 l 1
 320 -246 l 1
 236 -246 l 1
462 -246 m 1
 462 -126 l 1
 545 -126 l 1
 545 -246 l 1
 462 -246 l 1
123 -53 m 1
 123 66 l 1
 206 66 l 1
 206 -53 l 1
 123 -53 l 1
348 -53 m 1
 348 66 l 1
 433 66 l 1
 433 -53 l 1
 348 -53 l 1
573 -53 m 1
 573 66 l 1
 658 66 l 1
 658 -53 l 1
 573 -53 l 1
9 140 m 1
 9 259 l 1
 94 259 l 1
 94 140 l 1
 9 140 l 1
236 140 m 1
 236 259 l 1
 320 259 l 1
 320 140 l 1
 236 140 l 1
462 140 m 1
 462 259 l 1
 545 259 l 1
 545 140 l 1
 462 140 l 1
573 333 m 1
 573 453 l 1
 658 453 l 1
 658 333 l 1
 573 333 l 1
348 333 m 1
 348 453 l 1
 433 453 l 1
 433 333 l 1
 348 333 l 1
123 333 m 1
 123 453 l 1
 206 453 l 1
 206 333 l 1
 123 333 l 1
9 526 m 1
 9 646 l 1
 94 646 l 1
 94 526 l 1
 9 526 l 1
236 526 m 1
 236 646 l 1
 320 646 l 1
 320 526 l 1
 236 526 l 1
462 526 m 1
 462 646 l 1
 545 646 l 1
 545 526 l 1
 462 526 l 1
123 720 m 1
 123 839 l 1
 206 839 l 1
 206 720 l 1
 123 720 l 1
348 720 m 1
 348 839 l 1
 433 839 l 1
 433 720 l 1
 348 720 l 1
573 720 m 1
 573 839 l 1
 658 839 l 1
 658 720 l 1
 573 720 l 1
9 913 m 1
 9 1032 l 1
 94 1032 l 1
 94 913 l 1
 9 913 l 1
236 913 m 1
 236 1032 l 1
 320 1032 l 1
 320 913 l 1
 236 913 l 1
462 913 m 1
 462 1032 l 1
 545 1032 l 1
 545 913 l 1
 462 913 l 1
123 1105 m 1
 123 1225 l 1
 206 1225 l 1
 206 1105 l 1
 123 1105 l 1
348 1105 m 1
 348 1225 l 1
 433 1225 l 1
 433 1105 l 1
 348 1105 l 1
573 1105 m 1
 573 1225 l 1
 658 1225 l 1
 658 1105 l 1
 573 1105 l 1
9 1298 m 1
 9 1418 l 1
 94 1418 l 1
 94 1298 l 1
 9 1298 l 1
236 1298 m 1
 236 1418 l 1
 320 1418 l 1
 320 1298 l 1
 236 1298 l 1
462 1298 m 1
 462 1418 l 1
 545 1418 l 1
 545 1298 l 1
 462 1298 l 1
123 1492 m 1
 123 1612 l 1
 206 1612 l 1
 206 1492 l 1
 123 1492 l 1
348 1492 m 1
 348 1612 l 1
 433 1612 l 1
 433 1492 l 1
 348 1492 l 1
573 1492 m 1
 573 1612 l 1
 658 1612 l 1
 658 1492 l 1
 573 1492 l 1
462 1685 m 1
 462 1805 l 1
 545 1805 l 1
 545 1685 l 1
 462 1685 l 1
236 1685 m 1
 236 1805 l 1
 320 1805 l 1
 320 1685 l 1
 236 1685 l 1
9 1685 m 1
 9 1805 l 1
 94 1805 l 1
 94 1685 l 1
 9 1685 l 1
123 1878 m 1
 123 1997 l 1
 206 1997 l 1
 206 1878 l 1
 123 1878 l 1
348 1878 m 1
 348 1997 l 1
 433 1997 l 1
 433 1878 l 1
 348 1878 l 1
573 1878 m 1
 573 1997 l 1
 658 1997 l 1
 658 1878 l 1
 573 1878 l 1
9 2071 m 1
 9 2190 l 1
 94 2190 l 1
 94 2071 l 1
 9 2071 l 1
236 2071 m 1
 236 2190 l 1
 320 2190 l 1
 320 2071 l 1
 236 2071 l 1
462 2071 m 1
 462 2190 l 1
 545 2190 l 1
 545 2071 l 1
 462 2071 l 1
123 2264 m 1
 123 2384 l 1
 206 2384 l 1
 206 2264 l 1
 123 2264 l 1
348 2264 m 1
 348 2384 l 1
 433 2384 l 1
 433 2264 l 1
 348 2264 l 1
573 2264 m 1
 573 2384 l 1
 658 2384 l 1
 658 2264 l 1
 573 2264 l 1
EndSplineSet
EndChar

StartChar: mediumshade
Encoding: 9618 9618 699
Width: 768
VWidth: 2425
GlyphClass: 1
Flags: HW
LayerCount: 2
Fore
SplineSet
-14 -246 m 1
 -14 -81 l 1
 98 -81 l 1
 98 -246 l 1
 -14 -246 l 1
207 -246 m 1
 207 -81 l 1
 321 -81 l 1
 321 -246 l 1
 207 -246 l 1
431 -246 m 1
 431 -81 l 1
 546 -81 l 1
 546 -246 l 1
 431 -246 l 1
96 -54 m 1
 96 111 l 1
 211 111 l 1
 211 -54 l 1
 96 -54 l 1
318 -54 m 1
 318 111 l 1
 433 111 l 1
 433 -54 l 1
 318 -54 l 1
543 -54 m 1
 543 111 l 1
 654 111 l 1
 654 -54 l 1
 543 -54 l 1
-14 138 m 1
 -14 303 l 1
 98 303 l 1
 98 138 l 1
 -14 138 l 1
207 138 m 1
 207 303 l 1
 321 303 l 1
 321 138 l 1
 207 138 l 1
431 138 m 1
 431 303 l 1
 546 303 l 1
 546 138 l 1
 431 138 l 1
543 330 m 1
 543 495 l 1
 654 495 l 1
 654 330 l 1
 543 330 l 1
318 330 m 1
 318 495 l 1
 433 495 l 1
 433 330 l 1
 318 330 l 1
96 330 m 1
 96 495 l 1
 211 495 l 1
 211 330 l 1
 96 330 l 1
-14 521 m 1
 -14 686 l 1
 98 686 l 1
 98 521 l 1
 -14 521 l 1
207 521 m 1
 207 686 l 1
 321 686 l 1
 321 521 l 1
 207 521 l 1
431 521 m 1
 431 686 l 1
 546 686 l 1
 546 521 l 1
 431 521 l 1
96 713 m 1
 96 878 l 1
 211 878 l 1
 211 713 l 1
 96 713 l 1
318 713 m 1
 318 878 l 1
 433 878 l 1
 433 713 l 1
 318 713 l 1
543 713 m 1
 543 878 l 1
 654 878 l 1
 654 713 l 1
 543 713 l 1
-14 905 m 1
 -14 1070 l 1
 98 1070 l 1
 98 905 l 1
 -14 905 l 1
207 905 m 1
 207 1070 l 1
 321 1070 l 1
 321 905 l 1
 207 905 l 1
431 905 m 1
 431 1070 l 1
 546 1070 l 1
 546 905 l 1
 431 905 l 1
96 1097 m 1
 96 1262 l 1
 211 1262 l 1
 211 1097 l 1
 96 1097 l 1
318 1097 m 1
 318 1262 l 1
 433 1262 l 1
 433 1097 l 1
 318 1097 l 1
543 1097 m 1
 543 1262 l 1
 654 1262 l 1
 654 1097 l 1
 543 1097 l 1
-14 1289 m 1
 -14 1454 l 1
 98 1454 l 1
 98 1289 l 1
 -14 1289 l 1
207 1289 m 1
 207 1454 l 1
 321 1454 l 1
 321 1289 l 1
 207 1289 l 1
431 1289 m 1
 431 1454 l 1
 546 1454 l 1
 546 1289 l 1
 431 1289 l 1
96 1480 m 1
 96 1645 l 1
 211 1645 l 1
 211 1480 l 1
 96 1480 l 1
318 1480 m 1
 318 1645 l 1
 433 1645 l 1
 433 1480 l 1
 318 1480 l 1
543 1480 m 1
 543 1645 l 1
 654 1645 l 1
 654 1480 l 1
 543 1480 l 1
431 1672 m 1
 431 1837 l 1
 546 1837 l 1
 546 1672 l 1
 431 1672 l 1
207 1672 m 1
 207 1837 l 1
 321 1837 l 1
 321 1672 l 1
 207 1672 l 1
-14 1672 m 1
 -14 1837 l 1
 98 1837 l 1
 98 1672 l 1
 -14 1672 l 1
96 1865 m 1
 96 2029 l 1
 211 2029 l 1
 211 1865 l 1
 96 1865 l 1
318 1865 m 1
 318 2029 l 1
 433 2029 l 1
 433 1865 l 1
 318 1865 l 1
543 1865 m 1
 543 2029 l 1
 654 2029 l 1
 654 1865 l 1
 543 1865 l 1
-14 2057 m 1
 -14 2221 l 1
 98 2221 l 1
 98 2057 l 1
 -14 2057 l 1
207 2057 m 1
 207 2221 l 1
 321 2221 l 1
 321 2057 l 1
 207 2057 l 1
431 2057 m 1
 431 2221 l 1
 546 2221 l 1
 546 2057 l 1
 431 2057 l 1
96 2249 m 1
 96 2413 l 1
 211 2413 l 1
 211 2249 l 1
 96 2249 l 1
318 2249 m 1
 318 2413 l 1
 433 2413 l 1
 433 2249 l 1
 318 2249 l 1
543 2249 m 1
 543 2413 l 1
 654 2413 l 1
 654 2249 l 1
 543 2249 l 1
EndSplineSet
EndChar

StartChar: darkshade
Encoding: 9619 9619 700
Width: 768
VWidth: 2430
GlyphClass: 1
Flags: HW
LayerCount: 2
Fore
SplineSet
288 -30 m 1
 288 111 l 1
 234 111 l 1
 234 -30 l 1
 288 -30 l 1
511 -30 m 1
 511 111 l 1
 456 111 l 1
 456 -30 l 1
 511 -30 l 1
177 161 m 1
 177 303 l 1
 122 303 l 1
 122 161 l 1
 177 161 l 1
401 161 m 1
 401 303 l 1
 345 303 l 1
 345 161 l 1
 401 161 l 1
288 352 m 1
 288 493 l 1
 234 493 l 1
 234 352 l 1
 288 352 l 1
511 352 m 1
 511 493 l 1
 456 493 l 1
 456 352 l 1
 511 352 l 1
177 544 m 1
 177 685 l 1
 122 685 l 1
 122 544 l 1
 177 544 l 1
401 544 m 1
 401 685 l 1
 345 685 l 1
 345 544 l 1
 401 544 l 1
288 734 m 1
 288 876 l 1
 234 876 l 1
 234 734 l 1
 288 734 l 1
511 734 m 1
 511 876 l 1
 456 876 l 1
 456 734 l 1
 511 734 l 1
401 925 m 1
 401 1067 l 1
 345 1067 l 1
 345 925 l 1
 401 925 l 1
177 925 m 1
 177 1067 l 1
 122 1067 l 1
 122 925 l 1
 177 925 l 1
288 1117 m 1
 288 1259 l 1
 234 1259 l 1
 234 1117 l 1
 288 1117 l 1
511 1117 m 1
 511 1259 l 1
 456 1259 l 1
 456 1117 l 1
 511 1117 l 1
177 1308 m 1
 177 1449 l 1
 122 1449 l 1
 122 1308 l 1
 177 1308 l 1
401 1308 m 1
 401 1449 l 1
 345 1449 l 1
 345 1308 l 1
 401 1308 l 1
288 1499 m 1
 288 1640 l 1
 234 1640 l 1
 234 1499 l 1
 288 1499 l 1
511 1499 m 1
 511 1640 l 1
 456 1640 l 1
 456 1499 l 1
 511 1499 l 1
401 1690 m 1
 401 1832 l 1
 345 1832 l 1
 345 1690 l 1
 401 1690 l 1
177 1690 m 1
 177 1832 l 1
 122 1832 l 1
 122 1690 l 1
 177 1690 l 1
288 1881 m 1
 288 2023 l 1
 234 2023 l 1
 234 1881 l 1
 288 1881 l 1
511 1881 m 1
 511 2023 l 1
 456 2023 l 1
 456 1881 l 1
 511 1881 l 1
177 2073 m 1
 177 2214 l 1
 122 2214 l 1
 122 2073 l 1
 177 2073 l 1
401 2073 m 1
 401 2214 l 1
 345 2214 l 1
 345 2073 l 1
 401 2073 l 1
-18 -246 m 1
 -18 -30 l 1
 66 -30 l 1
 66 111 l 1
 -18 111 l 1
 -18 352 l 1
 66 352 l 1
 66 493 l 1
 -18 493 l 1
 -18 734 l 1
 66 734 l 1
 66 876 l 1
 -18 876 l 1
 -18 1117 l 1
 66 1117 l 1
 66 1259 l 1
 -18 1259 l 1
 -18 1499 l 1
 66 1499 l 1
 66 1640 l 1
 -18 1640 l 1
 -18 1881 l 1
 66 1881 l 1
 66 2023 l 1
 -18 2023 l 1
 -18 2264 l 1
 66 2264 l 1
 66 2430 l 1
 234 2430 l 1
 234 2264 l 1
 288 2264 l 1
 288 2430 l 1
 456 2430 l 1
 456 2264 l 1
 511 2264 l 1
 511 2430 l 1
 651 2430 l 1
 651 2214 l 1
 569 2214 l 1
 569 2073 l 1
 651 2073 l 1
 651 1832 l 1
 569 1832 l 1
 569 1690 l 1
 651 1690 l 1
 651 1449 l 1
 569 1449 l 1
 569 1308 l 1
 651 1308 l 1
 651 1067 l 1
 569 1067 l 1
 569 925 l 1
 651 925 l 1
 651 685 l 1
 569 685 l 1
 569 544 l 1
 651 544 l 1
 651 303 l 1
 569 303 l 1
 569 161 l 1
 651 161 l 1
 651 -80 l 1
 569 -80 l 1
 569 -246 l 1
 401 -246 l 1
 401 -80 l 1
 345 -80 l 1
 345 -246 l 1
 177 -246 l 1
 177 -80 l 1
 122 -80 l 1
 122 -246 l 1
 -18 -246 l 1
EndSplineSet
EndChar

